<svg width="160" height="132" viewBox="0 0 160 132" fill="none" xmlns="http://www.w3.org/2000/svg">
<g clip-path="url(#clip0)">
<mask id="path-1-inside-1" fill="white">
<path d="M57 132C88.4802 132 114 106.033 114 74L-2.55887e-06 74C-5.35925e-06 106.033 25.5198 132 57 132Z"/>
</mask>
<path d="M114 74L345 74L345 -157L114 -157L114 74ZM-2.55887e-06 74L1.76358e-05 -157L-231 -157L-231 74L-2.55887e-06 74ZM-117 74C-117 -17.7414 -42.8685 -99 57 -99L57 363C219.829 363 345 229.806 345 74L-117 74ZM57 -99C156.869 -99 231 -17.7414 231 74L-231 74C-231 229.806 -105.829 363 57 363L57 -99ZM-2.27535e-05 305L114 305L114 -157L1.76358e-05 -157L-2.27535e-05 305Z" fill="#8DD0B8" mask="url(#path-1-inside-1)"/>
<mask id="path-3-inside-2" fill="white">
<path d="M58.5 75C73.1355 75 85 62.9117 85 48L32 48C32 62.9117 43.8645 75 58.5 75Z"/>
</mask>
<path d="M85 48L316 48L316 -183L85 -183L85 48ZM32 48L32 -183L-199 -183L-199 48L32 48ZM-146 48C-146 -60.5765 -58.4938 -156 58.5 -156L58.5 306C204.765 306 316 186.4 316 48L-146 48ZM58.5 -156C175.494 -156 263 -60.5765 263 48L-199 48C-199 186.4 -87.7649 306 58.5 306L58.5 -156ZM32 279L85 279L85 -183L32 -183L32 279Z" fill="#8DD0B8" mask="url(#path-3-inside-2)"/>
<path fill-rule="evenodd" clip-rule="evenodd" d="M125 1C125 0.171573 125.672 -0.5 126.5 -0.5H139C139.828 -0.5 140.5 0.171573 140.5 1V3.9434C140.5 4.77182 139.828 5.4434 139 5.4434C138.172 5.4434 137.5 4.77182 137.5 3.9434V2.5H128V10.3159L157.424 8.82268C157.834 8.80185 158.236 8.95037 158.533 9.23355C158.831 9.51672 159 9.90974 159 10.3208V27C159 27.3987 158.841 27.781 158.559 28.0625C158.276 28.3439 157.894 28.5013 157.495 28.5L142.281 28.4485L145.164 47.7787L154.294 109.5H158C158.828 109.5 159.5 110.172 159.5 111C159.5 111.828 158.828 112.5 158 112.5H12C11.1716 112.5 10.5 111.828 10.5 111C10.5 110.172 11.1716 109.5 12 109.5H39.2516L29.1517 43.8631L27.9997 101.03C27.983 101.858 27.298 102.516 26.4698 102.5C25.6415 102.483 24.9836 101.798 25.0003 100.97L26.4696 28.0567L12.4949 28.0094C11.6685 28.0066 11 27.3359 11 26.5094V17.6792C11 16.8804 11.6261 16.2217 12.424 16.1812L30 15.2892V5.90566C30 5.07723 30.6716 4.40566 31.5 4.40566H44.5C45.3284 4.40566 46 5.07723 46 5.90566V14.4773L56.924 13.9229C57.7513 13.8809 58.4561 14.5176 58.4981 15.3449C58.5401 16.1723 57.9034 16.877 57.076 16.919L14 19.1051V25.0145L27.9942 25.0618C28.0023 25.0618 28.0103 25.0618 28.0183 25.0619L47.5099 25.1279C47.527 25.1276 47.5441 25.1277 47.561 25.128L74.9947 25.2209C75.0024 25.2208 75.0101 25.2209 75.0177 25.2209L121.495 25.3782C121.503 25.3782 121.51 25.3782 121.517 25.3783L140.522 25.4426C140.539 25.4423 140.555 25.4424 140.572 25.4427L156 25.4949V11.8988L70.576 16.2339C69.7487 16.2759 69.0439 15.6392 69.0019 14.8119C68.9599 13.9845 69.5966 13.2798 70.424 13.2378L125 10.4681V1ZM139.246 28.4383L123.244 28.3841L125.972 46.5H141.94L139.246 28.4383ZM142.386 49.5H126.419L127.084 54H143.052L142.386 49.5ZM143.496 57H127.528L129.229 68.5H145.197L143.496 57ZM145.64 71.5H129.673L130.339 76H146.306L145.64 71.5ZM146.75 79H130.783L132.262 89H148.229L146.75 79ZM148.673 92H132.706L133.371 96.5H149.339L148.673 92ZM149.783 99.5H133.815L135.294 109.5H151.262L149.783 99.5ZM132.262 109.5L123.197 48.2195L122.469 43.3847L121.802 64.0483C121.776 64.8763 121.083 65.5259 120.255 65.4992C119.427 65.4725 118.777 64.7797 118.804 63.9517L119.951 28.373L76.7521 28.2268L79.5925 46.5H95.4602L94.0161 36.7191C93.8951 35.8996 94.4614 35.1371 95.2809 35.0161C96.1004 34.8951 96.8629 35.4614 96.9839 36.2809L107.795 109.5H117.059L118.501 73.44C118.534 72.6123 119.232 71.9681 120.06 72.0012C120.888 72.0343 121.532 72.7322 121.499 73.56L120.061 109.5H132.262ZM104.762 109.5L103.286 99.5H87.7484L89.2869 109.5H104.762ZM86.2516 109.5L76.8255 48.2304L76.0169 43.0287L74.0452 109.5H86.2516ZM71.0438 109.5L73.455 28.2157L49.2772 28.1339L52.2903 47.7719L61.7869 109.5H71.0438ZM58.7516 109.5L57.2131 99.5H40.7484L42.2869 109.5H58.7516ZM40.2869 96.5H56.7516L56.0593 92H39.5946L40.2869 96.5ZM39.133 89H55.5977L54.0593 79H37.5946L39.133 89ZM37.133 76H53.5977L52.9054 71.5H44.5C43.6716 71.5 43 70.8284 43 70C43 69.1716 43.6716 68.5 44.5 68.5H52.4439L50.6747 57H34.21L37.133 76ZM33.7484 54H50.2131L49.5208 49.5H33.0561L33.7484 54ZM32.594 46.5H49.06L46.2405 28.1236L29.7501 28.0678L32.594 46.5ZM80.0561 49.5L80.7484 54H96.5676L95.9032 49.5H80.0561ZM97.0106 57H81.21L82.9792 68.5H98.7086L97.0106 57ZM99.1515 71.5H83.4407L84.133 76H99.8159L99.1515 71.5ZM100.259 79H84.5946L86.133 89H101.735L100.259 79ZM102.178 92H86.5946L87.2869 96.5H102.843L102.178 92ZM43 14.6295V7.40566H33V15.137L43 14.6295Z" fill="#2E3742"/>
</g>
<defs>
<clipPath id="clip0">
<rect width="160" height="132" fill="white"/>
</clipPath>
</defs>
</svg>
