<svg width="190" height="132" viewBox="0 0 190 132" fill="none" xmlns="http://www.w3.org/2000/svg">
<g clip-path="url(#clip0)">
<mask id="path-1-inside-1" fill="white">
<path d="M42.2034 121.206C70.4822 140.229 108.886 132.674 127.98 104.332L25.5731 35.4417C6.47892 63.7843 13.9246 102.182 42.2034 121.206Z"/>
</mask>
<path d="M127.98 104.332L319.647 233.268L448.713 41.6882L257.046 -87.2485L127.98 104.332ZM25.5731 35.4417L154.639 -156.139L-37.0283 -285.075L-166.094 -93.495L25.5731 35.4417ZM-63.6875 -24.6049C-11.8301 -101.58 93.2044 -122.89 171.269 -70.3747L-86.8625 312.786C47.7601 403.348 229.601 366.929 319.647 233.268L-63.6875 -24.6049ZM171.269 -70.3747C249.334 -17.8596 269.098 87.4034 217.24 164.378L-166.094 -93.495C-256.14 40.1652 -221.485 222.224 -86.8625 312.786L171.269 -70.3747ZM-103.493 227.022L-1.08611 295.912L257.046 -87.2485L154.639 -156.139L-103.493 227.022Z" fill="#8DD0B8" mask="url(#path-1-inside-1)"/>
<path d="M139.63 19.4987L129.572 22.692C118.258 18.86 110.086 22.0533 105.686 21.4146C101.286 20.776 93.1141 18.2213 90.5997 20.776C88.5882 22.8197 78.8661 27.5884 74.2564 29.7173L63.5704 48.8773C65.8752 51.6448 72.3707 55.264 79.9137 47.6C89.3425 38.02 93.1141 36.104 100.657 41.2133C104.718 43.9639 108.232 46.1593 111.985 47.6M129.572 49.516H122.658C118.595 49.516 115.202 48.8354 111.985 47.6M134.601 48.8773L137.115 48.2386M111.985 47.6L139.001 68.0373C141.515 69.7404 145.538 74.2962 141.515 78.8946C137.492 83.493 131.877 80.8106 129.572 78.8946M129.572 78.8946L124.543 75.0626L118.886 71.2306M129.572 78.8946C130.829 80.5977 132.464 85.0258 128.944 89.1133C124.543 94.2226 118.886 90.3906 117 89.1133M114.486 68.676L112.6 67.3986M117 89.1133C115.492 88.0914 109.248 84.0039 106.314 82.0879M117 89.1133C118.886 90.6035 121.778 94.6058 118.258 98.6932C115.428 101.979 111.558 100.246 106.314 97.062M96.257 91.0293C100.071 93.0807 103.404 95.2949 106.314 97.062M106.314 97.062C107.362 98.0315 108.829 100.609 106.314 103.164C103.171 106.357 98.7714 103.803 95.6284 101.887M95.6284 101.887L92.4855 99.9706L91.8569 96.1386C91.4378 94.4355 89.594 91.2847 85.571 92.3066M95.6284 101.887C92.4855 105.08 87.4568 106.357 83.6852 104.441C82.3982 103.787 81.6236 102.316 81.3614 100.609M85.571 92.3066C86.1996 90.8164 86.8282 87.1973 84.3138 84.6426C81.1709 81.4493 77.3994 83.3653 74.885 86.5586C74.4577 87.1013 74.0304 87.6993 73.6278 88.3338M85.571 92.3066C82.2583 93.148 80.8551 97.3154 81.3614 100.609M81.3614 100.609C79.6661 100.609 74.885 101.248 72.3707 98.0546C70.9844 96.294 71.1267 93.9511 71.9548 91.6679M73.6278 88.3338C74.4659 86.0389 75.2622 80.9383 71.7421 78.8946C67.3419 76.3399 64.199 79.5333 62.9418 81.4493C62.6412 81.9074 62.1609 82.5684 61.6728 83.3653M73.6278 88.3338C72.9675 89.3746 72.3735 90.5136 71.9548 91.6679M71.9548 91.6679C70.4172 93.4659 66.3362 96.2387 62.3132 92.9452C58.487 89.8129 60.1195 85.901 61.6728 83.3653M61.6728 83.3653C57.1383 88.3409 46.8617 86.5586 50.0498 74.7433M61.6728 83.3653L50.0498 74.7433M50.0498 74.7433L38.4269 66.1213L23.9693 61.6506M23.9693 61.6506L35.2839 45.684M23.9693 61.6506L16.4263 71.2306L1.96875 64.844M40.3126 37.3813L40.9412 36.7427M44.0842 31.6333L48.4843 25.8853L51.6272 21.4146L33.3982 9.9187M56.0274 27.1627L60.4275 30.356L67.3419 29.0787M146.924 64.7594C148.81 63.6949 153.459 61.012 154.087 59.7346C156.602 59.3089 159.116 58.7128 161.63 57.18M156.602 9.9187L142.773 16.3054L174.831 67.3986L188.031 64.844" stroke="#2E3742" stroke-width="3" stroke-linecap="round" stroke-linejoin="round"/>
</g>
<defs>
<clipPath id="clip0">
<rect width="190" height="132" fill="white"/>
</clipPath>
</defs>
</svg>
