<svg width="1920" height="1297" viewBox="0 0 1920 1297" fill="none" xmlns="http://www.w3.org/2000/svg">
<rect width="1920" height="1297" fill="white"/>
<rect x="1321.01" y="564" width="198.006" height="198.006" transform="rotate(45 1321.01 564)" fill="#F4F7FA"/>
<path fill-rule="evenodd" clip-rule="evenodd" d="M516.5 164C516.5 233.864 459.864 290.5 390 290.5L390 421.5C532.213 421.5 647.5 306.213 647.5 164L516.5 164Z" fill="#F4F7FA"/>
<path fill-rule="evenodd" clip-rule="evenodd" d="M1509.51 319.666C1510.29 319.386 1511.15 319.79 1511.43 320.569C1512.72 324.156 1514.13 329.961 1514.18 335.813C1514.18 336.171 1514.18 336.531 1514.17 336.892C1515.71 337.249 1517.2 337.807 1518.62 338.582C1524.32 341.707 1528.34 348.192 1528.15 358.484C1527.96 368.761 1523.72 376.924 1516.13 381.691C1508.58 386.427 1497.97 387.651 1485.27 384.657C1473.03 381.771 1463.49 382.265 1455.83 384.701C1450.43 386.418 1445.9 389.119 1441.99 392.366C1443.68 392.116 1445.51 392.068 1447.11 392.523C1447.91 392.75 1448.37 393.58 1448.14 394.377C1447.91 395.174 1447.08 395.635 1446.29 395.408C1444.92 395.02 1443.03 395.156 1441.14 395.575C1439.27 395.989 1437.68 396.617 1437.03 396.978C1436.47 397.292 1435.77 397.21 1435.29 396.774C1434.81 396.338 1434.67 395.646 1434.93 395.056C1435.29 394.256 1435.82 392.761 1436.16 391C1436.5 389.232 1436.65 387.302 1436.32 385.587C1436.17 384.773 1436.71 383.988 1437.52 383.835C1438.33 383.682 1439.12 384.218 1439.27 385.032C1439.63 386.96 1439.53 388.976 1439.25 390.763C1443.58 387.003 1448.7 383.82 1454.92 381.842C1463.19 379.213 1473.3 378.75 1485.96 381.737C1498.16 384.615 1507.88 383.324 1514.53 379.15C1521.14 375.006 1524.97 367.863 1525.15 358.427C1525.33 349.007 1521.7 343.693 1517.18 341.212C1516.16 340.654 1515.08 340.23 1513.97 339.934C1513.44 344.41 1511.87 348.759 1508.41 351.779C1505.7 354.139 1503.05 355.14 1500.68 354.878C1498.28 354.611 1496.51 353.076 1495.59 351.102C1493.76 347.187 1495.13 341.451 1500.76 338.575C1503.88 336.981 1507.55 336.203 1511.18 336.448C1511.18 336.245 1511.18 336.042 1511.18 335.838C1511.13 330.394 1509.81 324.927 1508.61 321.586C1508.33 320.806 1508.73 319.947 1509.51 319.666ZM1511.01 339.444C1507.94 339.23 1504.81 339.877 1502.13 341.246C1497.87 343.421 1497.19 347.446 1498.3 349.834C1498.85 351.011 1499.8 351.762 1501.01 351.896C1502.25 352.034 1504.1 351.55 1506.44 349.517C1509.18 347.124 1510.55 343.511 1511.01 339.444Z" fill="#2E3742"/>
<path fill-rule="evenodd" clip-rule="evenodd" d="M399.166 654.815C398.935 654.019 399.393 653.187 400.188 652.956C404.028 651.842 410.042 651.47 415.719 653.987C417.676 654.855 419.571 656.056 421.308 657.661C425.024 652.56 429.511 647.477 434.606 642.806C444.451 633.78 456.677 626.189 470.157 623.017C468.423 622.507 466.533 621.908 464.532 621.275C464.068 621.128 463.597 620.979 463.122 620.828C462.332 620.579 461.893 619.737 462.143 618.947C462.392 618.157 463.234 617.718 464.024 617.968C464.507 618.12 464.981 618.27 465.448 618.418C468.203 619.29 470.673 620.072 472.821 620.655C475.368 621.346 477.278 621.702 478.564 621.654C479.245 621.628 479.859 622.066 480.056 622.72C480.253 623.373 479.984 624.077 479.402 624.433C478.476 624.998 477.457 625.481 476.371 625.996C473.545 627.335 470.262 628.891 466.976 632.683C466.433 633.309 465.486 633.377 464.86 632.834C464.234 632.291 464.166 631.344 464.709 630.718C466.373 628.798 468.127 627.338 469.815 626.19C457.37 629.351 445.965 636.462 436.633 645.017C431.51 649.715 427.044 654.817 423.397 659.891C425.822 662.874 427.787 666.866 428.957 672.115C431.767 684.718 426.297 692.176 419.858 693.09C416.714 693.537 413.537 692.305 411.653 689.418C409.786 686.558 409.355 682.343 411 677.062C412.61 671.894 415.55 666.048 419.563 660.14C417.974 658.605 416.249 657.503 414.503 656.729C409.608 654.559 404.343 654.875 401.024 655.837C400.229 656.068 399.396 655.61 399.166 654.815ZM421.607 662.476C417.968 667.94 415.319 673.283 413.865 677.954C412.383 682.71 412.949 685.915 414.165 687.779C415.365 689.617 417.358 690.415 419.437 690.12C423.445 689.551 428.631 684.438 426.029 672.767C425.047 668.364 423.488 665.012 421.607 662.476Z" fill="#2E3742"/>
</svg>
