<svg width="150" height="132" viewBox="0 0 150 132" fill="none" xmlns="http://www.w3.org/2000/svg">
<mask id="path-1-inside-1" fill="white">
<path d="M67 65L0 65C1.61746e-06 102.003 29.9969 132 67 132V65Z"/>
</mask>
<path d="M0 65L-2.44776e-05 -166L-231 -166L-231 65L0 65ZM67 65H298V-166L67 -166L67 65ZM67 132L67 363H298V132H67ZM2.44776e-05 296H67L67 -166H-2.44776e-05L2.44776e-05 296ZM67 -99C157.575 -99 231 -25.5747 231 65L-231 65C-231 229.581 -97.5808 363 67 363L67 -99ZM-164 65V132H298V65H-164Z" fill="#8DD0B8" mask="url(#path-1-inside-1)"/>
<mask id="path-3-inside-2" fill="white">
<path d="M140 10L109 10C109 27.1208 122.879 41 140 41L140 10Z"/>
</mask>
<path d="M109 10L109 -221L-122 -221L-122 10L109 10ZM140 10L371 10L371 -221L140 -221L140 10ZM140 41L140 272L371 272L371 41L140 41ZM109 241L140 241L140 -221L109 -221L109 241ZM140 -190C250.457 -190 340 -100.457 340 9.99999L-122 10C-122 154.699 -4.69854 272 140 272L140 -190ZM-91 10L-91 41L371 41L371 10L-91 10Z" fill="#8DD0B8" mask="url(#path-3-inside-2)"/>
<path fill-rule="evenodd" clip-rule="evenodd" d="M74.636 0.54484C74.8672 0.486993 75.1089 0.485089 75.341 0.539285C80.0188 1.63145 88.939 7.13664 88.939 20.2553V35.7521L108.32 59.4547C110.189 61.7402 108.563 65.1702 105.61 65.1702H45.2188C42.2666 65.1702 40.6405 61.7402 42.5093 59.4547L61.8902 35.752V20.2553C61.8902 7.20914 70.1763 1.66047 74.636 0.54484ZM61.8902 40.4914L44.8317 61.3537C44.5648 61.6802 44.7971 62.1702 45.2188 62.1702H105.61C106.032 62.1702 106.264 61.6802 105.998 61.3537L88.939 40.4914V53.7128C88.939 54.5412 88.2675 55.2128 87.439 55.2128C86.6106 55.2128 85.939 54.5412 85.939 53.7128V20.2553C85.939 9.17508 78.7522 4.59751 75.0146 3.55214C71.6008 4.58892 64.8902 9.13317 64.8902 20.2553V53.7128C64.8902 54.5412 64.2187 55.2128 63.3902 55.2128C62.5618 55.2128 61.8902 54.5412 61.8902 53.7128V40.4914ZM27 24.883C25.067 24.883 23.5 26.45 23.5 28.383V87.1064C23.5 89.0394 25.067 90.6064 27 90.6064H123C124.933 90.6064 126.5 89.0394 126.5 87.1064V28.383C126.5 26.45 124.933 24.883 123 24.883H101.122C100.294 24.883 99.6219 24.2114 99.6219 23.383C99.6219 22.5546 100.294 21.883 101.122 21.883H123C126.59 21.883 129.5 24.7931 129.5 28.383V87.1064C129.5 90.6962 126.59 93.6064 123 93.6064H87.7042C87.8057 101.802 88.7639 102.606 90.7224 105.655C92.7213 108.766 95.9461 110.312 101.448 111.536C102.194 111.702 102.697 112.403 102.613 113.164C102.529 113.924 101.887 114.5 101.122 114.5H49.2927C48.4643 114.5 47.7927 113.828 47.7927 113C47.7927 112.172 48.4643 111.5 49.2927 111.5C55.1232 111.5 58.7064 107.923 60.8803 103.053C62.8224 98.7028 63.5226 97.5174 63.5649 93.6064H27C23.4101 93.6064 20.5 90.6962 20.5 87.1064V28.383C20.5 24.7931 23.4101 21.883 27 21.883H50.9512C51.7796 21.883 52.4512 22.5546 52.4512 23.383C52.4512 24.2114 51.7796 24.883 50.9512 24.883H27ZM66.565 93.6064C66.5227 97.8127 65.7783 99.4407 63.6197 104.276C62.381 107.051 60.6394 109.628 58.2631 111.5H92.5672C90.819 110.44 89.3595 109.084 88.1984 107.276C85.7532 103.47 84.8023 101.907 84.7038 93.6064H66.565ZM63.9808 70.1743C64.7423 70.5005 65.0953 71.3822 64.7691 72.1438L61.0374 78.8565C60.7112 79.618 59.8295 79.971 59.068 79.6448C58.3064 79.3186 57.9535 78.4369 58.2797 77.6754L62.0114 70.9626C62.3376 70.2011 63.2193 69.8482 63.9808 70.1743ZM87.6777 70.1743C88.4392 69.8482 89.321 70.2011 89.6471 70.9626L93.3789 77.6754C93.705 78.4369 93.3521 79.3186 92.5906 79.6448C91.829 79.971 90.9473 79.618 90.6211 78.8565L86.8894 72.1438C86.5633 71.3822 86.9162 70.5005 87.6777 70.1743ZM75 70.883C75.8284 70.883 76.5 71.5546 76.5 72.383V82C76.5 82.8284 75.8284 83.5 75 83.5C74.1716 83.5 73.5 82.8284 73.5 82V72.383C73.5 71.5546 74.1716 70.883 75 70.883Z" fill="#2E3742"/>
<circle cx="75.5" cy="23.5" r="4" stroke="#2E3742" stroke-width="3"/>
</svg>
