<svg width="152" height="148" viewBox="0 0 152 148" fill="none" xmlns="http://www.w3.org/2000/svg">
<path d="M77.5167 92.6753L82.9863 105.619L96.989 106.822C97.9602 106.906 98.3553 108.117 97.6181 108.755L86.9968 117.956L90.1797 131.643C90.4004 132.594 89.3696 133.343 88.5353 132.837L76.5014 125.581L64.4675 132.837C63.6309 133.34 62.6024 132.592 62.8231 131.643L66.0059 117.956L55.3825 108.753C54.6453 108.115 55.0381 106.903 56.0115 106.82L70.0143 105.617L75.4838 92.6753C75.8635 91.7749 77.1371 91.7749 77.5167 92.6753V92.6753Z" stroke="#8DD0B8" stroke-width="3.5"/>
<path d="M47.4304 110.294L42.8512 99.56C42.5334 98.8133 41.4671 98.8133 41.1493 99.56L36.5701 110.292L24.8469 111.289C24.0319 111.359 23.703 112.364 24.3202 112.893L33.2143 120.524L30.5496 131.875C30.3648 132.662 31.2259 133.282 31.9263 132.865L42.0012 126.848L52.076 132.865C52.7745 133.284 53.6375 132.664 53.4527 131.875L50.788 120.524L54.5 117.339" stroke="#8DD0B8" stroke-width="3.5" stroke-linecap="round" stroke-linejoin="round"/>
<path d="M18.1324 116.972L14.9795 109.395C14.7607 108.868 14.0265 108.868 13.8077 109.395L10.6548 116.971L2.58309 117.675C2.02199 117.724 1.79551 118.433 2.22047 118.807L8.34425 124.194L6.50954 132.206C6.3823 132.761 6.97521 133.199 7.45743 132.905L14.3942 128.657L21.331 132.905C21.812 133.201 22.4062 132.763 22.2789 132.206L20.4442 124.194L23 121.945" stroke="#8DD0B8" stroke-width="3.5" stroke-linecap="round" stroke-linejoin="round"/>
<path d="M133.868 116.972L137.02 109.395C137.239 108.868 137.973 108.868 138.192 109.395L141.345 116.971L149.417 117.675C149.978 117.724 150.204 118.433 149.78 118.807L143.656 124.194L145.49 132.206C145.618 132.761 145.025 133.199 144.543 132.905L137.606 128.657L130.669 132.905C130.188 133.201 129.594 132.763 129.721 132.206L131.556 124.194L129 121.945" stroke="#8DD0B8" stroke-width="3.5" stroke-linecap="round" stroke-linejoin="round"/>
<path d="M105.07 110.294L109.649 99.56C109.967 98.8133 111.033 98.8133 111.351 99.56L115.93 110.292L127.653 111.289C128.468 111.359 128.797 112.364 128.18 112.893L119.286 120.524L121.95 131.875C122.135 132.662 121.274 133.282 120.574 132.865L110.499 126.848L100.424 132.865C99.7255 133.284 98.8625 132.664 99.0473 131.875L101.712 120.524L98 117.339" stroke="#8DD0B8" stroke-width="3.5" stroke-linecap="round" stroke-linejoin="round"/>
<circle cx="76" cy="35" r="19.25" stroke="#3D4B5C" stroke-width="3.5"/>
<path d="M18 87V94" stroke="#3D4B5C" stroke-width="3.5" stroke-linecap="round" stroke-linejoin="round"/>
<path d="M134 87V94" stroke="#3D4B5C" stroke-width="3.5" stroke-linecap="round" stroke-linejoin="round"/>
<path d="M91 79V85" stroke="#3D4B5C" stroke-width="3.5" stroke-linecap="round" stroke-linejoin="round"/>
<path d="M62 79V85" stroke="#3D4B5C" stroke-width="3.5" stroke-linecap="round" stroke-linejoin="round"/>
<circle cx="31" cy="50" r="16.25" stroke="#3D4B5C" stroke-width="3.5"/>
<circle cx="121" cy="50" r="16.25" stroke="#3D4B5C" stroke-width="3.5"/>
<path d="M17 71C14.6503 72.0952 9.48101 75.6 7.60127 80.8571C5.72152 86.1143 5.87816 91.8095 6.19146 94" stroke="#3D4B5C" stroke-width="3.5" stroke-linecap="round" stroke-linejoin="round"/>
<path d="M135 71C137.563 72.0952 143.203 75.6 145.253 80.8571C147.304 86.1143 147.133 91.8095 146.791 94" stroke="#3D4B5C" stroke-width="3.5" stroke-linecap="round" stroke-linejoin="round"/>
<path d="M62 58C59.0095 59.2857 52.4304 63.4 50.038 69.5714C47.6456 75.7429 47.8449 82.4286 48.2437 85" stroke="#3D4B5C" stroke-width="3.5" stroke-linecap="round" stroke-linejoin="round"/>
<path d="M91 58C93.9905 59.2857 100.57 63.4 102.962 69.5714C105.354 75.7429 105.155 82.4286 104.756 85" stroke="#3D4B5C" stroke-width="3.5" stroke-linecap="round" stroke-linejoin="round"/>
</svg>
