<svg width="1920" height="582" viewBox="0 0 1920 582" fill="none" xmlns="http://www.w3.org/2000/svg">
<g clip-path="url(#clip0)">
<path d="M0 0H1920V582H0V0Z" fill="#F4F7FA"/>
<g opacity="0.5">
<path d="M1406.49 86.2451C1406.49 86.9327 1405.93 87.4902 1405.25 87.4902C1404.56 87.4902 1404 86.9327 1404 86.2451C1404 85.5574 1404.56 85 1405.25 85C1405.93 85 1406.49 85.5574 1406.49 86.2451Z" fill="#3D4B5C"/>
<path d="M1406.49 111.147C1406.49 111.835 1405.93 112.392 1405.25 112.392C1404.56 112.392 1404 111.835 1404 111.147C1404 110.459 1404.56 109.902 1405.25 109.902C1405.93 109.902 1406.49 110.459 1406.49 111.147Z" fill="#3D4B5C"/>
<path d="M1406.49 136.049C1406.49 136.737 1405.93 137.294 1405.25 137.294C1404.56 137.294 1404 136.737 1404 136.049C1404 135.361 1404.56 134.804 1405.25 134.804C1405.93 134.804 1406.49 135.361 1406.49 136.049Z" fill="#3D4B5C"/>
<path d="M1406.49 160.951C1406.49 161.639 1405.93 162.196 1405.25 162.196C1404.56 162.196 1404 161.639 1404 160.951C1404 160.263 1404.56 159.706 1405.25 159.706C1405.93 159.706 1406.49 160.263 1406.49 160.951Z" fill="#3D4B5C"/>
<path d="M1406.49 185.853C1406.49 186.541 1405.93 187.098 1405.25 187.098C1404.56 187.098 1404 186.541 1404 185.853C1404 185.165 1404.56 184.608 1405.25 184.608C1405.93 184.608 1406.49 185.165 1406.49 185.853Z" fill="#3D4B5C"/>
<path d="M1406.49 210.755C1406.49 211.443 1405.93 212 1405.25 212C1404.56 212 1404 211.443 1404 210.755C1404 210.067 1404.56 209.51 1405.25 209.51C1405.93 209.51 1406.49 210.067 1406.49 210.755Z" fill="#3D4B5C"/>
<path d="M1431.39 86.2451C1431.39 86.9327 1430.83 87.4902 1430.15 87.4902C1429.46 87.4902 1428.9 86.9327 1428.9 86.2451C1428.9 85.5574 1429.46 85 1430.15 85C1430.83 85 1431.39 85.5574 1431.39 86.2451Z" fill="#3D4B5C"/>
<path d="M1431.39 111.147C1431.39 111.835 1430.83 112.392 1430.15 112.392C1429.46 112.392 1428.9 111.835 1428.9 111.147C1428.9 110.459 1429.46 109.902 1430.15 109.902C1430.83 109.902 1431.39 110.459 1431.39 111.147Z" fill="#3D4B5C"/>
<path d="M1431.39 136.049C1431.39 136.737 1430.83 137.294 1430.15 137.294C1429.46 137.294 1428.9 136.737 1428.9 136.049C1428.9 135.361 1429.46 134.804 1430.15 134.804C1430.83 134.804 1431.39 135.361 1431.39 136.049Z" fill="#3D4B5C"/>
<path d="M1431.39 160.951C1431.39 161.639 1430.83 162.196 1430.15 162.196C1429.46 162.196 1428.9 161.639 1428.9 160.951C1428.9 160.263 1429.46 159.706 1430.15 159.706C1430.83 159.706 1431.39 160.263 1431.39 160.951Z" fill="#3D4B5C"/>
<path d="M1431.39 185.853C1431.39 186.541 1430.83 187.098 1430.15 187.098C1429.46 187.098 1428.9 186.541 1428.9 185.853C1428.9 185.165 1429.46 184.608 1430.15 184.608C1430.83 184.608 1431.39 185.165 1431.39 185.853Z" fill="#3D4B5C"/>
<path d="M1431.39 210.755C1431.39 211.443 1430.83 212 1430.15 212C1429.46 212 1428.9 211.443 1428.9 210.755C1428.9 210.067 1429.46 209.51 1430.15 209.51C1430.83 209.51 1431.39 210.067 1431.39 210.755Z" fill="#3D4B5C"/>
<path d="M1456.29 86.2451C1456.29 86.9327 1455.74 87.4902 1455.05 87.4902C1454.36 87.4902 1453.8 86.9327 1453.8 86.2451C1453.8 85.5574 1454.36 85 1455.05 85C1455.74 85 1456.29 85.5574 1456.29 86.2451Z" fill="#3D4B5C"/>
<path d="M1456.29 111.147C1456.29 111.835 1455.74 112.392 1455.05 112.392C1454.36 112.392 1453.8 111.835 1453.8 111.147C1453.8 110.459 1454.36 109.902 1455.05 109.902C1455.74 109.902 1456.29 110.459 1456.29 111.147Z" fill="#3D4B5C"/>
<path d="M1456.29 136.049C1456.29 136.737 1455.74 137.294 1455.05 137.294C1454.36 137.294 1453.8 136.737 1453.8 136.049C1453.8 135.361 1454.36 134.804 1455.05 134.804C1455.74 134.804 1456.29 135.361 1456.29 136.049Z" fill="#3D4B5C"/>
<path d="M1456.29 160.951C1456.29 161.639 1455.74 162.196 1455.05 162.196C1454.36 162.196 1453.8 161.639 1453.8 160.951C1453.8 160.263 1454.36 159.706 1455.05 159.706C1455.74 159.706 1456.29 160.263 1456.29 160.951Z" fill="#3D4B5C"/>
<path d="M1456.29 185.853C1456.29 186.541 1455.74 187.098 1455.05 187.098C1454.36 187.098 1453.8 186.541 1453.8 185.853C1453.8 185.165 1454.36 184.608 1455.05 184.608C1455.74 184.608 1456.29 185.165 1456.29 185.853Z" fill="#3D4B5C"/>
<path d="M1456.29 210.755C1456.29 211.443 1455.74 212 1455.05 212C1454.36 212 1453.8 211.443 1453.8 210.755C1453.8 210.067 1454.36 209.51 1455.05 209.51C1455.74 209.51 1456.29 210.067 1456.29 210.755Z" fill="#3D4B5C"/>
<path d="M1481.2 86.2451C1481.2 86.9327 1480.64 87.4902 1479.95 87.4902C1479.26 87.4902 1478.71 86.9327 1478.71 86.2451C1478.71 85.5574 1479.26 85 1479.95 85C1480.64 85 1481.2 85.5574 1481.2 86.2451Z" fill="#3D4B5C"/>
<path d="M1481.2 111.147C1481.2 111.835 1480.64 112.392 1479.95 112.392C1479.26 112.392 1478.71 111.835 1478.71 111.147C1478.71 110.459 1479.26 109.902 1479.95 109.902C1480.64 109.902 1481.2 110.459 1481.2 111.147Z" fill="#3D4B5C"/>
<path d="M1481.2 136.049C1481.2 136.737 1480.64 137.294 1479.95 137.294C1479.26 137.294 1478.71 136.737 1478.71 136.049C1478.71 135.361 1479.26 134.804 1479.95 134.804C1480.64 134.804 1481.2 135.361 1481.2 136.049Z" fill="#3D4B5C"/>
<path d="M1481.2 160.951C1481.2 161.639 1480.64 162.196 1479.95 162.196C1479.26 162.196 1478.71 161.639 1478.71 160.951C1478.71 160.263 1479.26 159.706 1479.95 159.706C1480.64 159.706 1481.2 160.263 1481.2 160.951Z" fill="#3D4B5C"/>
<path d="M1481.2 185.853C1481.2 186.541 1480.64 187.098 1479.95 187.098C1479.26 187.098 1478.71 186.541 1478.71 185.853C1478.71 185.165 1479.26 184.608 1479.95 184.608C1480.64 184.608 1481.2 185.165 1481.2 185.853Z" fill="#3D4B5C"/>
<path d="M1481.2 210.755C1481.2 211.443 1480.64 212 1479.95 212C1479.26 212 1478.71 211.443 1478.71 210.755C1478.71 210.067 1479.26 209.51 1479.95 209.51C1480.64 209.51 1481.2 210.067 1481.2 210.755Z" fill="#3D4B5C"/>
<path d="M1506.1 86.2451C1506.1 86.9327 1505.54 87.4902 1504.85 87.4902C1504.17 87.4902 1503.61 86.9327 1503.61 86.2451C1503.61 85.5574 1504.17 85 1504.85 85C1505.54 85 1506.1 85.5574 1506.1 86.2451Z" fill="#3D4B5C"/>
<path d="M1506.1 111.147C1506.1 111.835 1505.54 112.392 1504.85 112.392C1504.17 112.392 1503.61 111.835 1503.61 111.147C1503.61 110.459 1504.17 109.902 1504.85 109.902C1505.54 109.902 1506.1 110.459 1506.1 111.147Z" fill="#3D4B5C"/>
<path d="M1506.1 136.049C1506.1 136.737 1505.54 137.294 1504.85 137.294C1504.17 137.294 1503.61 136.737 1503.61 136.049C1503.61 135.361 1504.17 134.804 1504.85 134.804C1505.54 134.804 1506.1 135.361 1506.1 136.049Z" fill="#3D4B5C"/>
<path d="M1506.1 160.951C1506.1 161.639 1505.54 162.196 1504.85 162.196C1504.17 162.196 1503.61 161.639 1503.61 160.951C1503.61 160.263 1504.17 159.706 1504.85 159.706C1505.54 159.706 1506.1 160.263 1506.1 160.951Z" fill="#3D4B5C"/>
<path d="M1506.1 185.853C1506.1 186.541 1505.54 187.098 1504.85 187.098C1504.17 187.098 1503.61 186.541 1503.61 185.853C1503.61 185.165 1504.17 184.608 1504.85 184.608C1505.54 184.608 1506.1 185.165 1506.1 185.853Z" fill="#3D4B5C"/>
<path d="M1506.1 210.755C1506.1 211.443 1505.54 212 1504.85 212C1504.17 212 1503.61 211.443 1503.61 210.755C1503.61 210.067 1504.17 209.51 1504.85 209.51C1505.54 209.51 1506.1 210.067 1506.1 210.755Z" fill="#3D4B5C"/>
<path d="M1531 86.2451C1531 86.9327 1530.44 87.4902 1529.75 87.4902C1529.07 87.4902 1528.51 86.9327 1528.51 86.2451C1528.51 85.5574 1529.07 85 1529.75 85C1530.44 85 1531 85.5574 1531 86.2451Z" fill="#3D4B5C"/>
<path d="M1531 111.147C1531 111.835 1530.44 112.392 1529.75 112.392C1529.07 112.392 1528.51 111.835 1528.51 111.147C1528.51 110.459 1529.07 109.902 1529.75 109.902C1530.44 109.902 1531 110.459 1531 111.147Z" fill="#3D4B5C"/>
<path d="M1531 136.049C1531 136.737 1530.44 137.294 1529.75 137.294C1529.07 137.294 1528.51 136.737 1528.51 136.049C1528.51 135.361 1529.07 134.804 1529.75 134.804C1530.44 134.804 1531 135.361 1531 136.049Z" fill="#3D4B5C"/>
<path d="M1531 160.951C1531 161.639 1530.44 162.196 1529.75 162.196C1529.07 162.196 1528.51 161.639 1528.51 160.951C1528.51 160.263 1529.07 159.706 1529.75 159.706C1530.44 159.706 1531 160.263 1531 160.951Z" fill="#3D4B5C"/>
<path d="M1531 185.853C1531 186.541 1530.44 187.098 1529.75 187.098C1529.07 187.098 1528.51 186.541 1528.51 185.853C1528.51 185.165 1529.07 184.608 1529.75 184.608C1530.44 184.608 1531 185.165 1531 185.853Z" fill="#3D4B5C"/>
<path d="M1531 210.755C1531 211.443 1530.44 212 1529.75 212C1529.07 212 1528.51 211.443 1528.51 210.755C1528.51 210.067 1529.07 209.51 1529.75 209.51C1530.44 209.51 1531 210.067 1531 210.755Z" fill="#3D4B5C"/>
</g>
<g opacity="0.5">
<path d="M392.49 168.245C392.49 168.933 391.933 169.49 391.245 169.49C390.557 169.49 390 168.933 390 168.245C390 167.557 390.557 167 391.245 167C391.933 167 392.49 167.557 392.49 168.245Z" fill="#3D4B5C"/>
<path d="M392.49 193.147C392.49 193.835 391.933 194.392 391.245 194.392C390.557 194.392 390 193.835 390 193.147C390 192.459 390.557 191.902 391.245 191.902C391.933 191.902 392.49 192.459 392.49 193.147Z" fill="#3D4B5C"/>
<path d="M392.49 218.049C392.49 218.737 391.933 219.294 391.245 219.294C390.557 219.294 390 218.737 390 218.049C390 217.361 390.557 216.804 391.245 216.804C391.933 216.804 392.49 217.361 392.49 218.049Z" fill="#3D4B5C"/>
<path d="M392.49 242.951C392.49 243.639 391.933 244.196 391.245 244.196C390.557 244.196 390 243.639 390 242.951C390 242.263 390.557 241.706 391.245 241.706C391.933 241.706 392.49 242.263 392.49 242.951Z" fill="#3D4B5C"/>
<path d="M392.49 267.853C392.49 268.541 391.933 269.098 391.245 269.098C390.557 269.098 390 268.541 390 267.853C390 267.165 390.557 266.608 391.245 266.608C391.933 266.608 392.49 267.165 392.49 267.853Z" fill="#3D4B5C"/>
<path d="M392.49 292.755C392.49 293.443 391.933 294 391.245 294C390.557 294 390 293.443 390 292.755C390 292.067 390.557 291.51 391.245 291.51C391.933 291.51 392.49 292.067 392.49 292.755Z" fill="#3D4B5C"/>
<path d="M417.392 168.245C417.392 168.933 416.835 169.49 416.147 169.49C415.459 169.49 414.902 168.933 414.902 168.245C414.902 167.557 415.459 167 416.147 167C416.835 167 417.392 167.557 417.392 168.245Z" fill="#3D4B5C"/>
<path d="M417.392 193.147C417.392 193.835 416.835 194.392 416.147 194.392C415.459 194.392 414.902 193.835 414.902 193.147C414.902 192.459 415.459 191.902 416.147 191.902C416.835 191.902 417.392 192.459 417.392 193.147Z" fill="#3D4B5C"/>
<path d="M417.392 218.049C417.392 218.737 416.835 219.294 416.147 219.294C415.459 219.294 414.902 218.737 414.902 218.049C414.902 217.361 415.459 216.804 416.147 216.804C416.835 216.804 417.392 217.361 417.392 218.049Z" fill="#3D4B5C"/>
<path d="M417.392 242.951C417.392 243.639 416.835 244.196 416.147 244.196C415.459 244.196 414.902 243.639 414.902 242.951C414.902 242.263 415.459 241.706 416.147 241.706C416.835 241.706 417.392 242.263 417.392 242.951Z" fill="#3D4B5C"/>
<path d="M417.392 267.853C417.392 268.541 416.835 269.098 416.147 269.098C415.459 269.098 414.902 268.541 414.902 267.853C414.902 267.165 415.459 266.608 416.147 266.608C416.835 266.608 417.392 267.165 417.392 267.853Z" fill="#3D4B5C"/>
<path d="M417.392 292.755C417.392 293.443 416.835 294 416.147 294C415.459 294 414.902 293.443 414.902 292.755C414.902 292.067 415.459 291.51 416.147 291.51C416.835 291.51 417.392 292.067 417.392 292.755Z" fill="#3D4B5C"/>
<path d="M442.294 168.245C442.294 168.933 441.737 169.49 441.049 169.49C440.361 169.49 439.804 168.933 439.804 168.245C439.804 167.557 440.361 167 441.049 167C441.737 167 442.294 167.557 442.294 168.245Z" fill="#3D4B5C"/>
<path d="M442.294 193.147C442.294 193.835 441.737 194.392 441.049 194.392C440.361 194.392 439.804 193.835 439.804 193.147C439.804 192.459 440.361 191.902 441.049 191.902C441.737 191.902 442.294 192.459 442.294 193.147Z" fill="#3D4B5C"/>
<path d="M442.294 218.049C442.294 218.737 441.737 219.294 441.049 219.294C440.361 219.294 439.804 218.737 439.804 218.049C439.804 217.361 440.361 216.804 441.049 216.804C441.737 216.804 442.294 217.361 442.294 218.049Z" fill="#3D4B5C"/>
<path d="M442.294 242.951C442.294 243.639 441.737 244.196 441.049 244.196C440.361 244.196 439.804 243.639 439.804 242.951C439.804 242.263 440.361 241.706 441.049 241.706C441.737 241.706 442.294 242.263 442.294 242.951Z" fill="#3D4B5C"/>
<path d="M442.294 267.853C442.294 268.541 441.737 269.098 441.049 269.098C440.361 269.098 439.804 268.541 439.804 267.853C439.804 267.165 440.361 266.608 441.049 266.608C441.737 266.608 442.294 267.165 442.294 267.853Z" fill="#3D4B5C"/>
<path d="M442.294 292.755C442.294 293.443 441.737 294 441.049 294C440.361 294 439.804 293.443 439.804 292.755C439.804 292.067 440.361 291.51 441.049 291.51C441.737 291.51 442.294 292.067 442.294 292.755Z" fill="#3D4B5C"/>
<path d="M467.196 168.245C467.196 168.933 466.639 169.49 465.951 169.49C465.263 169.49 464.706 168.933 464.706 168.245C464.706 167.557 465.263 167 465.951 167C466.639 167 467.196 167.557 467.196 168.245Z" fill="#3D4B5C"/>
<path d="M467.196 193.147C467.196 193.835 466.639 194.392 465.951 194.392C465.263 194.392 464.706 193.835 464.706 193.147C464.706 192.459 465.263 191.902 465.951 191.902C466.639 191.902 467.196 192.459 467.196 193.147Z" fill="#3D4B5C"/>
<path d="M467.196 218.049C467.196 218.737 466.639 219.294 465.951 219.294C465.263 219.294 464.706 218.737 464.706 218.049C464.706 217.361 465.263 216.804 465.951 216.804C466.639 216.804 467.196 217.361 467.196 218.049Z" fill="#3D4B5C"/>
<path d="M467.196 242.951C467.196 243.639 466.639 244.196 465.951 244.196C465.263 244.196 464.706 243.639 464.706 242.951C464.706 242.263 465.263 241.706 465.951 241.706C466.639 241.706 467.196 242.263 467.196 242.951Z" fill="#3D4B5C"/>
<path d="M467.196 267.853C467.196 268.541 466.639 269.098 465.951 269.098C465.263 269.098 464.706 268.541 464.706 267.853C464.706 267.165 465.263 266.608 465.951 266.608C466.639 266.608 467.196 267.165 467.196 267.853Z" fill="#3D4B5C"/>
<path d="M467.196 292.755C467.196 293.443 466.639 294 465.951 294C465.263 294 464.706 293.443 464.706 292.755C464.706 292.067 465.263 291.51 465.951 291.51C466.639 291.51 467.196 292.067 467.196 292.755Z" fill="#3D4B5C"/>
<path d="M492.098 168.245C492.098 168.933 491.541 169.49 490.853 169.49C490.165 169.49 489.608 168.933 489.608 168.245C489.608 167.557 490.165 167 490.853 167C491.541 167 492.098 167.557 492.098 168.245Z" fill="#3D4B5C"/>
<path d="M492.098 193.147C492.098 193.835 491.541 194.392 490.853 194.392C490.165 194.392 489.608 193.835 489.608 193.147C489.608 192.459 490.165 191.902 490.853 191.902C491.541 191.902 492.098 192.459 492.098 193.147Z" fill="#3D4B5C"/>
<path d="M492.098 218.049C492.098 218.737 491.541 219.294 490.853 219.294C490.165 219.294 489.608 218.737 489.608 218.049C489.608 217.361 490.165 216.804 490.853 216.804C491.541 216.804 492.098 217.361 492.098 218.049Z" fill="#3D4B5C"/>
<path d="M492.098 242.951C492.098 243.639 491.541 244.196 490.853 244.196C490.165 244.196 489.608 243.639 489.608 242.951C489.608 242.263 490.165 241.706 490.853 241.706C491.541 241.706 492.098 242.263 492.098 242.951Z" fill="#3D4B5C"/>
<path d="M492.098 267.853C492.098 268.541 491.541 269.098 490.853 269.098C490.165 269.098 489.608 268.541 489.608 267.853C489.608 267.165 490.165 266.608 490.853 266.608C491.541 266.608 492.098 267.165 492.098 267.853Z" fill="#3D4B5C"/>
<path d="M492.098 292.755C492.098 293.443 491.541 294 490.853 294C490.165 294 489.608 293.443 489.608 292.755C489.608 292.067 490.165 291.51 490.853 291.51C491.541 291.51 492.098 292.067 492.098 292.755Z" fill="#3D4B5C"/>
<path d="M517 168.245C517 168.933 516.443 169.49 515.755 169.49C515.067 169.49 514.51 168.933 514.51 168.245C514.51 167.557 515.067 167 515.755 167C516.443 167 517 167.557 517 168.245Z" fill="#3D4B5C"/>
<path d="M517 193.147C517 193.835 516.443 194.392 515.755 194.392C515.067 194.392 514.51 193.835 514.51 193.147C514.51 192.459 515.067 191.902 515.755 191.902C516.443 191.902 517 192.459 517 193.147Z" fill="#3D4B5C"/>
<path d="M517 218.049C517 218.737 516.443 219.294 515.755 219.294C515.067 219.294 514.51 218.737 514.51 218.049C514.51 217.361 515.067 216.804 515.755 216.804C516.443 216.804 517 217.361 517 218.049Z" fill="#3D4B5C"/>
<path d="M517 242.951C517 243.639 516.443 244.196 515.755 244.196C515.067 244.196 514.51 243.639 514.51 242.951C514.51 242.263 515.067 241.706 515.755 241.706C516.443 241.706 517 242.263 517 242.951Z" fill="#3D4B5C"/>
<path d="M517 267.853C517 268.541 516.443 269.098 515.755 269.098C515.067 269.098 514.51 268.541 514.51 267.853C514.51 267.165 515.067 266.608 515.755 266.608C516.443 266.608 517 267.165 517 267.853Z" fill="#3D4B5C"/>
<path d="M517 292.755C517 293.443 516.443 294 515.755 294C515.067 294 514.51 293.443 514.51 292.755C514.51 292.067 515.067 291.51 515.755 291.51C516.443 291.51 517 292.067 517 292.755Z" fill="#3D4B5C"/>
</g>
<circle cx="497.5" cy="-0.5" r="209.5" fill="white"/>
<path fill-rule="evenodd" clip-rule="evenodd" d="M1845.5 724C1934.69 724 2007 651.694 2007 562.5C2007 473.306 1934.69 401 1845.5 401C1756.31 401 1684 473.306 1684 562.5C1684 651.694 1756.31 724 1845.5 724ZM1845.5 955C2062.27 955 2238 779.272 2238 562.5C2238 345.728 2062.27 170 1845.5 170C1628.73 170 1453 345.728 1453 562.5C1453 779.272 1628.73 955 1845.5 955Z" fill="white"/>
</g>
<defs>
<clipPath id="clip0">
<rect width="1920" height="582" fill="white"/>
</clipPath>
</defs>
</svg>
