<svg width="152" height="148" viewBox="0 0 152 148" fill="none" xmlns="http://www.w3.org/2000/svg">
<path d="M39.5 89C36.4624 89 34 91.2386 34 94C34 96.7614 36.0352 98.505 39.5 99C43 99.5 45 101.239 45 104C45 106.761 42.5376 109 39.5 109M39.5 89C42.5376 89 45 91.2386 45 94M39.5 89V86.5M39.5 109C36.4624 109 34 106.761 34 104M39.5 109V111.5M55.5 93.5H70.5M55.5 107H70.5M34 120.5H101.5" stroke="#8DD0B8" stroke-width="3.5" stroke-linecap="round" stroke-linejoin="round"/>
<path d="M114.5 73L96 94" stroke="#3D4B5C" stroke-width="3.5" stroke-linecap="round" stroke-linejoin="round"/>
<path d="M81.5 74.5H69M52.5 61H38.5V74.5H52.5M52.5 61V74.5M52.5 61V45.5H69M52.5 74.5H69M69 45.5V74.5M69 45.5V28.5H85.5V44M85.5 56V44M85.5 44H102V59" stroke="#8DD0B8" stroke-width="3.5" stroke-linecap="round" stroke-linejoin="round"/>
<circle cx="99" cy="75" r="4.25" stroke="#3D4B5C" stroke-width="3.5"/>
<circle cx="79" cy="107" r="2" fill="#8DD0B8"/>
<circle cx="111" cy="93" r="4.25" stroke="#3D4B5C" stroke-width="3.5"/>
<circle cx="105" cy="84" r="24.25" stroke="#3D4B5C" stroke-width="3.5"/>
<path d="M125.249 99.0234L139.089 112.864C140.532 114.306 140.532 116.646 139.089 118.089V118.089C137.646 119.532 135.306 119.532 133.863 118.089L120.023 104.249" stroke="#3D4B5C" stroke-width="3.5"/>
<path d="M119 39.5V18C119 15.7909 117.209 14 115 14H25C22.7909 14 21 15.7909 21 18V130C21 132.209 22.7909 134 25 134H115C117.209 134 119 132.209 119 130V118.5M119 51V49.5" stroke="#3D4B5C" stroke-width="3.5" stroke-linecap="round" stroke-linejoin="round"/>
</svg>
