<svg width="152" height="148" viewBox="0 0 152 148" fill="none" xmlns="http://www.w3.org/2000/svg">
<path d="M17.7605 39.6695C18.7328 39.6695 19.5211 38.8812 19.5211 37.9089V34.7181H123.651V51.3973C123.651 52.3696 124.439 53.1578 125.412 53.1578C126.384 53.1578 127.172 52.3696 127.172 51.3973V21.4194C127.172 17.3418 123.855 14.0244 119.777 14.0244H23.3948C19.3173 14.0244 16 17.3418 16 21.4194V37.9089C16 38.8812 16.7883 39.6695 17.7605 39.6695ZM23.3948 17.5455H119.777C121.914 17.5455 123.651 19.2833 123.651 21.4194V31.197H19.5211V21.4194C19.5211 19.2833 21.2589 17.5455 23.3948 17.5455Z" fill="#3D4B5C"/>
<path d="M54.8008 121.675H23.3948C21.2586 121.675 19.5211 119.938 19.5211 117.802V45.4117C19.5211 44.4394 18.7328 43.6511 17.7605 43.6511C16.7883 43.6511 16 44.4394 16 45.4117V117.802C16 121.879 19.3173 125.197 23.3948 125.197H54.8008C55.7731 125.197 56.5613 124.408 56.5613 123.436C56.5613 122.464 55.7731 121.675 54.8008 121.675Z" fill="#3D4B5C"/>
<path d="M127.728 56.6783H68.3543C63.793 56.6783 60.0825 60.3891 60.0825 64.9503V87.8243C60.0825 88.7966 60.8708 89.5848 61.8431 89.5848C62.8154 89.5848 63.6036 88.7966 63.6036 87.8243V76.0091H132.479V125.704C132.479 128.324 130.348 130.455 127.728 130.455H68.3543C65.7348 130.455 63.6036 128.324 63.6036 125.704V95.3273C63.6036 94.355 62.8154 93.5667 61.8431 93.5667C60.8708 93.5667 60.0825 94.355 60.0825 95.3273V125.704C60.0825 130.265 63.7933 133.976 68.3543 133.976H127.728C132.289 133.976 136 130.265 136 125.704V64.9503C136 60.3891 132.289 56.6783 127.728 56.6783ZM63.6036 72.488V64.9503C63.6036 62.3306 65.7348 60.1994 68.3543 60.1994H127.728C130.348 60.1994 132.479 62.3306 132.479 64.9503V72.488H63.6036Z" fill="#3D4B5C"/>
<path d="M26.7886 26.0428H28.1107C29.083 26.0428 29.8712 25.2546 29.8712 24.2823C29.8712 23.31 29.083 22.5217 28.1107 22.5217H26.7886C25.8163 22.5217 25.0281 23.31 25.0281 24.2823C25.0281 25.2546 25.8163 26.0428 26.7886 26.0428Z" fill="#3D4B5C"/>
<path d="M39.034 26.0428H40.356C41.3283 26.0428 42.1166 25.2546 42.1166 24.2823C42.1166 23.31 41.3283 22.5217 40.356 22.5217H39.034C38.0617 22.5217 37.2734 23.31 37.2734 24.2823C37.2734 25.2546 38.0617 26.0428 39.034 26.0428Z" fill="#3D4B5C"/>
<path d="M51.2796 26.0428H52.6016C53.5739 26.0428 54.3622 25.2546 54.3622 24.2823C54.3622 23.31 53.5739 22.5217 52.6016 22.5217H51.2796C50.3073 22.5217 49.519 23.31 49.519 24.2823C49.519 25.2546 50.3073 26.0428 51.2796 26.0428Z" fill="#3D4B5C"/>
<path d="M118.777 99.7197H111.364C110.391 99.7197 109.603 100.508 109.603 101.48C109.603 102.453 110.391 103.241 111.364 103.241H118.777C121.736 103.241 124.143 100.834 124.143 97.8747V90.4003C124.143 87.4414 121.736 85.0342 118.777 85.0342H77.3053C74.3465 85.0342 71.939 87.4414 71.939 90.4003V97.8747C71.939 100.834 74.3462 103.241 77.3053 103.241H103.861C104.834 103.241 105.622 102.453 105.622 101.48C105.622 100.508 104.834 99.7197 103.861 99.7197H77.3053C76.288 99.7197 75.4601 98.892 75.4601 97.8747V90.4003C75.4601 89.383 76.288 88.5553 77.3053 88.5553H118.777C119.795 88.5553 120.623 89.383 120.623 90.4003V97.8747C120.623 98.892 119.795 99.7197 118.777 99.7197Z" fill="#8DD0B8"/>
<path d="M34.5103 49.2229H109.16C110.133 49.2229 110.921 48.4346 110.921 47.4623C110.921 46.49 110.133 45.7018 109.16 45.7018H34.5103C32.3596 45.7018 30.6099 47.4515 30.6099 49.6022V71.5574C30.6099 73.7081 32.3596 75.4578 34.5103 75.4578H50.3709C51.3432 75.4578 52.1315 74.6696 52.1315 73.6973C52.1315 72.725 51.3432 71.9367 50.3709 71.9367H34.5103C34.3011 71.9367 34.131 71.7666 34.131 71.5574V49.6022C34.131 49.3931 34.3011 49.2229 34.5103 49.2229Z" fill="#8DD0B8"/>
<path d="M50.3115 82.9216H32.3704C31.3981 82.9216 30.6099 83.7099 30.6099 84.6822C30.6099 85.6545 31.3981 86.4427 32.3704 86.4427H50.3115C51.2838 86.4427 52.0721 85.6545 52.0721 84.6822C52.0721 83.7099 51.2838 82.9216 50.3115 82.9216Z" fill="#8DD0B8"/>
<path d="M50.3115 96.1194H32.3704C31.3981 96.1194 30.6099 96.9076 30.6099 97.8799C30.6099 98.8522 31.3981 99.6405 32.3704 99.6405H50.3115C51.2838 99.6405 52.0721 98.8522 52.0721 97.8799C52.0721 96.9076 51.2838 96.1194 50.3115 96.1194Z" fill="#8DD0B8"/>
<path d="M73.6995 118.444H122.383C123.356 118.444 124.144 117.655 124.144 116.683C124.144 115.711 123.356 114.922 122.383 114.922H73.6995C72.7272 114.922 71.939 115.711 71.939 116.683C71.939 117.655 72.7272 118.444 73.6995 118.444Z" fill="#8DD0B8"/>
</svg>
