<svg width="306" height="394" viewBox="0 0 306 394" fill="none" xmlns="http://www.w3.org/2000/svg">
<path d="M200.78 137.116L238.373 111.578C241.192 114.574 252.564 125.577 275.496 145.629C304.16 170.694 307.45 186.774 305.57 213.257C304.066 234.444 288.653 263.703 281.135 275.684C280.759 287.79 275.966 313.518 273.616 324.868H247.301L170.236 392.969H166.476L131.703 364.594L189.502 271.427L180.574 270.481L178.694 249.2L172.585 247.308L190.442 196.232H197.49L201.72 145.629L200.78 137.116Z" fill="#8DD0B8"/>
<path fill-rule="evenodd" clip-rule="evenodd" d="M265.642 42.4464C266.467 42.4543 267.129 43.1339 267.121 43.9643C267.077 48.6139 267.033 52.8579 266.987 56.7372C266.761 75.4874 266.472 85.7788 265.805 92.1887C265.469 95.4095 265.034 97.7047 264.443 99.632C263.85 101.569 263.116 103.079 262.247 104.719C260.485 108.043 257.473 109.697 254.588 110.435C251.726 111.167 248.85 111.04 247.027 110.692C247.025 110.692 247.023 110.691 247.021 110.691L235.168 108.522V115.835C235.168 116.665 234.499 117.338 233.673 117.338C232.848 117.338 232.179 116.665 232.179 115.835V107.975L226.358 106.91C225.546 106.761 225.007 105.978 225.155 105.161C225.302 104.344 226.08 103.802 226.892 103.951L247.568 107.734L247.58 107.737C249.048 108.018 251.479 108.127 253.852 107.52C256.207 106.918 258.364 105.655 259.61 103.304C260.445 101.729 261.077 100.413 261.588 98.7456C262.102 97.0685 262.509 94.9813 262.833 91.8754C263.468 85.7762 263.759 75.9587 263.983 57.9909C263.012 57.8611 261.827 57.7709 260.655 57.8081C258.844 57.8656 257.433 58.2181 256.716 58.82C256.082 59.3517 255.14 59.2655 254.611 58.6275C254.083 57.9895 254.169 57.0413 254.803 56.5097C256.341 55.2199 258.644 54.863 260.561 54.8022C261.772 54.7638 262.979 54.841 264.019 54.9646C264.058 51.567 264.096 47.8993 264.133 43.9357C264.141 43.1052 264.816 42.4384 265.642 42.4464ZM230.737 59.4391C235.362 54.7852 242 54.7209 244.757 55.241C245.568 55.3941 246.102 56.1799 245.95 56.9961C245.798 57.8124 245.017 58.35 244.206 58.1969C241.95 57.7712 236.497 57.8961 232.85 61.5657C232.267 62.1529 231.321 62.1529 230.737 61.5657C230.154 60.9784 230.154 60.0263 230.737 59.4391ZM255.853 73.451C256.533 72.9806 257.463 73.1539 257.93 73.8383C258.808 75.1232 260.083 77.1075 261.052 78.8858C261.532 79.7663 261.967 80.6522 262.234 81.4009C262.364 81.7675 262.483 82.1802 262.521 82.5831C262.551 82.9056 262.574 83.6729 261.985 84.2661C261.628 84.6253 261.189 84.7902 260.902 84.8753C260.581 84.9705 260.234 85.0266 259.901 85.0619C259.231 85.1327 258.44 85.1362 257.655 85.1075C256.075 85.0499 254.328 84.8539 253.198 84.6914C252.382 84.574 251.814 83.8123 251.931 82.9902C252.047 82.168 252.804 81.5968 253.621 81.7142C254.684 81.867 256.32 82.0494 257.764 82.1021C258.348 82.1234 258.871 82.1222 259.297 82.0952C259.098 81.6121 258.801 81.0097 258.432 80.3314C257.528 78.6731 256.313 76.7794 255.468 75.542C255 74.8577 255.173 73.9215 255.853 73.451ZM259.545 82.8633C259.548 82.8933 259.545 82.8876 259.545 82.8559C259.545 82.8587 259.545 82.8612 259.545 82.8633ZM28.301 78.5144C28.4906 77.8784 29.0723 77.4428 29.7321 77.4428H200.78C201.194 77.4428 201.59 77.6158 201.872 77.9206C202.155 78.2254 202.299 78.6346 202.27 79.0505L198.997 126.583L203.014 143.204L219.76 152.279L249.518 121.409C250.092 120.813 251.038 120.798 251.631 121.376C252.223 121.955 252.237 122.907 251.663 123.503L221.118 155.189C220.653 155.671 219.926 155.784 219.338 155.466L203.022 146.624L198.979 196.355C198.916 197.135 198.268 197.736 197.49 197.736H192.051L174.703 246.75H178.694C179.471 246.75 180.118 247.35 180.183 248.129L181.948 269.451H190.186L247.927 179.808C248.376 179.111 249.301 178.912 249.993 179.364C250.686 179.815 250.883 180.747 250.434 181.443L146.367 343.008L186.697 376.678C187.332 377.208 187.419 378.156 186.893 378.795C186.366 379.435 185.424 379.523 184.789 378.993L144.764 345.578L131.567 367.27C131.296 367.717 130.813 367.989 130.293 367.989H90.0371C89.2825 368.843 88.7013 369.989 88.7644 371.093C88.8282 372.21 89.6089 373.92 93.2888 375.507C101.133 378.891 107.432 380.981 109.558 381.592C110.351 381.82 110.81 382.652 110.584 383.451C110.357 384.249 109.53 384.712 108.737 384.483C106.476 383.833 100.057 381.699 92.1116 378.272C87.897 376.454 85.9365 373.986 85.7811 371.265C85.7125 370.065 86.008 368.953 86.4715 367.989H78.8061C78.7815 368.683 78.9849 369.773 79.8857 371.24C81.2754 373.503 84.2533 376.501 90.1433 379.835C97.5968 384.055 105.039 387.614 114.867 388.937C124.708 390.261 137.064 389.357 154.321 384.429C154.771 384.3 155.256 384.391 155.629 384.676C156.003 384.96 156.223 385.404 156.223 385.875V392.023C156.223 392.854 155.554 393.527 154.728 393.527C153.903 393.527 153.234 392.854 153.234 392.023V387.854C136.688 392.394 124.456 393.261 114.471 391.918C104.092 390.521 96.2619 386.75 88.6783 382.456C82.5387 378.981 79.0944 375.673 77.3436 372.821C76.2585 371.053 75.7932 369.392 75.8137 367.989H8.58616C7.76098 367.989 7.09203 367.316 7.09203 366.485V318.247C7.09203 317.416 7.76098 316.743 8.58616 316.743H14.6106V273.088L3.44975 277.1C3.02593 277.252 2.55646 277.204 2.17177 276.969C1.78709 276.734 1.52818 276.337 1.46698 275.888C0.912383 271.821 0.249316 265.146 0.0557218 258.287C-0.136608 251.473 0.127217 244.3 1.50844 239.336C2.8652 234.459 6.40962 226.422 10.2241 218.457C14.0578 210.452 18.2272 202.391 20.8987 197.41C21.1595 196.923 21.6644 196.62 22.2136 196.62H29.6478V173.7C29.2358 171.788 29.2564 168.965 30.7526 166.533C32.1676 164.232 34.7305 162.551 38.7731 162.175L37.7475 156.326C36.332 154.99 34.4456 152.802 32.8523 150.096C31.108 147.135 29.6478 143.438 29.6478 139.481C29.6478 132.869 30.6866 123.198 31.3489 118.031C30.2802 117.716 29.127 117.085 28.1204 116.019C26.5269 114.332 25.4186 111.683 25.4186 107.795C25.4186 103.239 25.775 97.1583 26.3066 91.6297C26.8338 86.1472 27.5481 81.0401 28.301 78.5144ZM41.7932 162.094C50.1319 162.062 75.8875 161.764 100.122 161.484C110.669 161.361 120.928 161.243 129.337 161.151C130.162 161.142 130.838 161.808 130.847 162.638C130.856 163.468 130.195 164.149 129.369 164.158C120.977 164.25 110.734 164.368 100.198 164.49C74.5688 164.787 47.208 165.104 40.5401 165.104C36.219 165.104 34.2276 166.597 33.2934 168.116C32.2918 169.744 32.2646 171.785 32.5954 173.183C32.6224 173.297 32.636 173.414 32.636 173.532V198.124C32.636 198.954 31.9671 199.627 31.1419 199.627H23.1063C20.4475 204.614 16.5299 212.217 12.916 219.763C9.08668 227.759 5.66076 235.565 4.38601 240.147C3.13574 244.641 2.85133 251.419 3.04276 258.202C3.20596 263.984 3.70982 269.64 4.19192 273.639L15.6022 269.538C16.0598 269.374 16.5682 269.443 16.9654 269.725C17.3626 270.007 17.5989 270.465 17.5989 270.954V318.247C17.5989 319.077 16.9299 319.75 16.1047 319.75H10.0803V364.982H129.456L143.116 342.527C143.123 342.516 143.13 342.505 143.137 342.494L188.248 272.458H116.196C115.371 272.458 114.702 271.785 114.702 270.954C114.702 270.124 115.371 269.451 116.196 269.451H178.95L177.319 249.758H172.585C172.099 249.758 171.644 249.52 171.364 249.121C171.084 248.721 171.015 248.21 171.178 247.749L188.879 197.736H86.5914C85.7662 197.736 85.0972 197.062 85.0972 196.232C85.0972 195.402 85.7662 194.728 86.5914 194.728H134.34L145.716 155.346V125.321L123.864 115.447H90.3506C89.5255 115.447 88.8565 114.773 88.8565 113.943C88.8565 113.112 89.5255 112.439 90.3506 112.439H146.656V85.0945C146.656 84.264 147.325 83.5908 148.15 83.5908C148.975 83.5908 149.644 84.264 149.644 85.0945V112.439H158.018C158.561 112.439 159.061 112.736 159.325 113.214C159.588 113.692 159.573 114.276 159.285 114.74L152.236 126.09C151.893 126.643 151.235 126.91 150.607 126.752L148.704 126.273V155.56C148.704 155.702 148.684 155.844 148.645 155.98L137.452 194.728H196.113L200.211 144.33L196.039 127.067C196.002 126.917 195.989 126.762 196 126.608L199.178 80.4502H30.8863C30.3154 82.9434 29.737 87.1766 29.2809 91.9194C28.7552 97.3864 28.4068 103.365 28.4068 107.795C28.4068 111.096 29.3348 112.94 30.2866 113.948C31.2626 114.981 32.3912 115.277 33.0215 115.277C33.4534 115.277 33.8641 115.465 34.1479 115.793C34.4316 116.12 34.5606 116.555 34.5016 116.986C33.8764 121.548 32.636 132.402 32.636 139.481C32.636 142.712 33.8386 145.873 35.4229 148.563C37.0049 151.249 38.9006 153.351 40.1189 154.433C40.3727 154.658 40.5429 154.964 40.6018 155.299L41.7932 162.094ZM147.701 122.921L150.278 123.569L155.322 115.447H131.16L147.701 122.921ZM238.849 82.9745C239.493 82.4557 240.434 82.5608 240.949 83.2093C242.001 84.5326 245.706 87.7564 251.336 88.8187C252.147 88.9718 252.681 89.7576 252.529 90.5738C252.377 91.3901 251.596 91.9277 250.785 91.7747C244.385 90.567 240.07 86.9175 238.616 85.088C238.1 84.4395 238.205 83.4933 238.849 82.9745ZM14.7704 244.267C15.0268 243.755 15.5504 243.434 16.1202 243.44L65.9308 243.96L65.9327 243.96L142.528 244.859C143.353 244.868 144.014 245.549 144.005 246.38C143.995 247.21 143.318 247.875 142.493 247.866L66.2343 246.971L29.8869 263.808C29.2496 264.103 28.4941 263.912 28.0708 263.349L14.9133 245.851C14.5694 245.393 14.514 244.779 14.7704 244.267ZM59.2456 246.898L19.133 246.479L29.7288 260.57L59.2456 246.898ZM281.898 274.391C282.607 274.815 282.84 275.738 282.419 276.452C276.02 287.283 261.378 310.732 251.093 322.891H273.616C274.315 322.891 274.92 323.379 275.074 324.065C277.907 336.739 282.745 368.225 279.325 392.706C279.21 393.528 278.454 394.101 277.637 393.985C276.82 393.87 276.251 393.109 276.366 392.287C279.612 369.056 275.24 339.123 272.415 325.899H247.771C247.176 325.899 246.638 325.544 246.401 324.995C246.164 324.446 246.272 323.808 246.677 323.37C256.7 312.536 272.944 286.605 279.85 274.915C280.272 274.201 281.189 273.967 281.898 274.391ZM34.3469 318.247C34.3469 317.416 35.0158 316.743 35.841 316.743H122.774C123.465 316.743 124.066 317.22 124.227 317.896C124.389 318.572 124.068 319.271 123.452 319.587L97.6073 332.829C97.1814 333.047 96.6774 333.047 96.2515 332.829L70.7258 319.75H35.841C35.0158 319.75 34.3469 319.077 34.3469 318.247ZM77.3125 319.75L96.9294 329.801L116.546 319.75H77.3125Z" fill="#3D4B5C"/>
<path d="M177.284 32.5998C170.893 55.6786 184.333 72.7985 191.851 78.4736C189.502 73.2714 186.4 62.0158 192.791 58.6107C200.78 54.3544 205.009 70.4338 210.648 69.9609C216.287 69.488 215.817 57.1919 221.926 51.5168C228.035 45.8417 249.181 50.571 256.699 46.3146C262.714 42.9096 266.097 44.8959 267.037 46.3146C281.604 29.2893 283.014 8.95352 280.665 8.00766C278.315 7.06181 272.676 14.1557 272.206 7.06182C271.736 -0.0320548 267.037 2.80549 262.808 7.06182C258.579 11.3182 259.049 9.42645 257.639 2.80549C256.229 -3.81547 248.711 2.80549 242.602 7.06182C236.493 11.3182 228.504 11.3182 214.877 7.06182C201.25 2.80549 185.273 3.75134 177.284 32.5998Z" fill="#3D4B5C"/>
<path d="M244.011 68.5421C244.011 69.5869 243.17 70.4338 242.132 70.4338C241.094 70.4338 240.252 69.5869 240.252 68.5421C240.252 67.4973 241.094 66.6504 242.132 66.6504C243.17 66.6504 244.011 67.4973 244.011 68.5421Z" fill="#3D4B5C"/>
<path d="M261.868 68.5421C261.868 69.5869 261.027 70.4338 259.989 70.4338C258.95 70.4338 258.109 69.5869 258.109 68.5421C258.109 67.4973 258.95 66.6504 259.989 66.6504C261.027 66.6504 261.868 67.4973 261.868 68.5421Z" fill="#3D4B5C"/>
</svg>
