<svg width="1920" height="750" viewBox="0 0 1920 750" fill="none" xmlns="http://www.w3.org/2000/svg">
<g clip-path="url(#clip0)">
<rect width="1920" height="750" fill="#F4F7FA"/>
<rect x="1215.63" y="101" width="68.7672" height="68.7672" transform="rotate(45 1215.63 101)" fill="white"/>
<rect x="691.749" y="494" width="131.166" height="131.166" transform="rotate(45 691.749 494)" fill="white"/>
<path fill-rule="evenodd" clip-rule="evenodd" d="M1778.5 977C1885.92 977 1973 889.919 1973 782.5C1973 675.081 1885.92 588 1778.5 588C1671.08 588 1584 675.081 1584 782.5C1584 889.919 1671.08 977 1778.5 977ZM1778.5 1208C2013.5 1208 2204 1017.5 2204 782.5C2204 547.503 2013.5 357 1778.5 357C1543.5 357 1353 547.503 1353 782.5C1353 1017.5 1543.5 1208 1778.5 1208Z" fill="white"/>
<path fill-rule="evenodd" clip-rule="evenodd" d="M345.5 -49C345.5 88.7951 233.795 200.5 96 200.5L96 421.5C355.85 421.5 566.5 210.85 566.5 -49L345.5 -49Z" fill="white"/>
<g opacity="0.5">
<path d="M1501.49 564.245C1501.49 564.933 1500.93 565.49 1500.25 565.49C1499.56 565.49 1499 564.933 1499 564.245C1499 563.557 1499.56 563 1500.25 563C1500.93 563 1501.49 563.557 1501.49 564.245Z" fill="#3D4B5C"/>
<path d="M1501.49 589.147C1501.49 589.835 1500.93 590.392 1500.25 590.392C1499.56 590.392 1499 589.835 1499 589.147C1499 588.459 1499.56 587.902 1500.25 587.902C1500.93 587.902 1501.49 588.459 1501.49 589.147Z" fill="#3D4B5C"/>
<path d="M1501.49 614.049C1501.49 614.737 1500.93 615.294 1500.25 615.294C1499.56 615.294 1499 614.737 1499 614.049C1499 613.361 1499.56 612.804 1500.25 612.804C1500.93 612.804 1501.49 613.361 1501.49 614.049Z" fill="#3D4B5C"/>
<path d="M1501.49 638.951C1501.49 639.639 1500.93 640.196 1500.25 640.196C1499.56 640.196 1499 639.639 1499 638.951C1499 638.263 1499.56 637.706 1500.25 637.706C1500.93 637.706 1501.49 638.263 1501.49 638.951Z" fill="#3D4B5C"/>
<path d="M1501.49 663.853C1501.49 664.541 1500.93 665.098 1500.25 665.098C1499.56 665.098 1499 664.541 1499 663.853C1499 663.165 1499.56 662.608 1500.25 662.608C1500.93 662.608 1501.49 663.165 1501.49 663.853Z" fill="#3D4B5C"/>
<path d="M1501.49 688.755C1501.49 689.443 1500.93 690 1500.25 690C1499.56 690 1499 689.443 1499 688.755C1499 688.067 1499.56 687.51 1500.25 687.51C1500.93 687.51 1501.49 688.067 1501.49 688.755Z" fill="#3D4B5C"/>
<path d="M1526.39 564.245C1526.39 564.933 1525.83 565.49 1525.15 565.49C1524.46 565.49 1523.9 564.933 1523.9 564.245C1523.9 563.557 1524.46 563 1525.15 563C1525.83 563 1526.39 563.557 1526.39 564.245Z" fill="#3D4B5C"/>
<path d="M1526.39 589.147C1526.39 589.835 1525.83 590.392 1525.15 590.392C1524.46 590.392 1523.9 589.835 1523.9 589.147C1523.9 588.459 1524.46 587.902 1525.15 587.902C1525.83 587.902 1526.39 588.459 1526.39 589.147Z" fill="#3D4B5C"/>
<path d="M1526.39 614.049C1526.39 614.737 1525.83 615.294 1525.15 615.294C1524.46 615.294 1523.9 614.737 1523.9 614.049C1523.9 613.361 1524.46 612.804 1525.15 612.804C1525.83 612.804 1526.39 613.361 1526.39 614.049Z" fill="#3D4B5C"/>
<path d="M1526.39 638.951C1526.39 639.639 1525.83 640.196 1525.15 640.196C1524.46 640.196 1523.9 639.639 1523.9 638.951C1523.9 638.263 1524.46 637.706 1525.15 637.706C1525.83 637.706 1526.39 638.263 1526.39 638.951Z" fill="#3D4B5C"/>
<path d="M1526.39 663.853C1526.39 664.541 1525.83 665.098 1525.15 665.098C1524.46 665.098 1523.9 664.541 1523.9 663.853C1523.9 663.165 1524.46 662.608 1525.15 662.608C1525.83 662.608 1526.39 663.165 1526.39 663.853Z" fill="#3D4B5C"/>
<path d="M1526.39 688.755C1526.39 689.443 1525.83 690 1525.15 690C1524.46 690 1523.9 689.443 1523.9 688.755C1523.9 688.067 1524.46 687.51 1525.15 687.51C1525.83 687.51 1526.39 688.067 1526.39 688.755Z" fill="#3D4B5C"/>
<path d="M1551.29 564.245C1551.29 564.933 1550.74 565.49 1550.05 565.49C1549.36 565.49 1548.8 564.933 1548.8 564.245C1548.8 563.557 1549.36 563 1550.05 563C1550.74 563 1551.29 563.557 1551.29 564.245Z" fill="#3D4B5C"/>
<path d="M1551.29 589.147C1551.29 589.835 1550.74 590.392 1550.05 590.392C1549.36 590.392 1548.8 589.835 1548.8 589.147C1548.8 588.459 1549.36 587.902 1550.05 587.902C1550.74 587.902 1551.29 588.459 1551.29 589.147Z" fill="#3D4B5C"/>
<path d="M1551.29 614.049C1551.29 614.737 1550.74 615.294 1550.05 615.294C1549.36 615.294 1548.8 614.737 1548.8 614.049C1548.8 613.361 1549.36 612.804 1550.05 612.804C1550.74 612.804 1551.29 613.361 1551.29 614.049Z" fill="#3D4B5C"/>
<path d="M1551.29 638.951C1551.29 639.639 1550.74 640.196 1550.05 640.196C1549.36 640.196 1548.8 639.639 1548.8 638.951C1548.8 638.263 1549.36 637.706 1550.05 637.706C1550.74 637.706 1551.29 638.263 1551.29 638.951Z" fill="#3D4B5C"/>
<path d="M1551.29 663.853C1551.29 664.541 1550.74 665.098 1550.05 665.098C1549.36 665.098 1548.8 664.541 1548.8 663.853C1548.8 663.165 1549.36 662.608 1550.05 662.608C1550.74 662.608 1551.29 663.165 1551.29 663.853Z" fill="#3D4B5C"/>
<path d="M1551.29 688.755C1551.29 689.443 1550.74 690 1550.05 690C1549.36 690 1548.8 689.443 1548.8 688.755C1548.8 688.067 1549.36 687.51 1550.05 687.51C1550.74 687.51 1551.29 688.067 1551.29 688.755Z" fill="#3D4B5C"/>
<path d="M1576.2 564.245C1576.2 564.933 1575.64 565.49 1574.95 565.49C1574.26 565.49 1573.71 564.933 1573.71 564.245C1573.71 563.557 1574.26 563 1574.95 563C1575.64 563 1576.2 563.557 1576.2 564.245Z" fill="#3D4B5C"/>
<path d="M1576.2 589.147C1576.2 589.835 1575.64 590.392 1574.95 590.392C1574.26 590.392 1573.71 589.835 1573.71 589.147C1573.71 588.459 1574.26 587.902 1574.95 587.902C1575.64 587.902 1576.2 588.459 1576.2 589.147Z" fill="#3D4B5C"/>
<path d="M1576.2 614.049C1576.2 614.737 1575.64 615.294 1574.95 615.294C1574.26 615.294 1573.71 614.737 1573.71 614.049C1573.71 613.361 1574.26 612.804 1574.95 612.804C1575.64 612.804 1576.2 613.361 1576.2 614.049Z" fill="#3D4B5C"/>
<path d="M1576.2 638.951C1576.2 639.639 1575.64 640.196 1574.95 640.196C1574.26 640.196 1573.71 639.639 1573.71 638.951C1573.71 638.263 1574.26 637.706 1574.95 637.706C1575.64 637.706 1576.2 638.263 1576.2 638.951Z" fill="#3D4B5C"/>
<path d="M1576.2 663.853C1576.2 664.541 1575.64 665.098 1574.95 665.098C1574.26 665.098 1573.71 664.541 1573.71 663.853C1573.71 663.165 1574.26 662.608 1574.95 662.608C1575.64 662.608 1576.2 663.165 1576.2 663.853Z" fill="#3D4B5C"/>
<path d="M1576.2 688.755C1576.2 689.443 1575.64 690 1574.95 690C1574.26 690 1573.71 689.443 1573.71 688.755C1573.71 688.067 1574.26 687.51 1574.95 687.51C1575.64 687.51 1576.2 688.067 1576.2 688.755Z" fill="#3D4B5C"/>
<path d="M1601.1 564.245C1601.1 564.933 1600.54 565.49 1599.85 565.49C1599.17 565.49 1598.61 564.933 1598.61 564.245C1598.61 563.557 1599.17 563 1599.85 563C1600.54 563 1601.1 563.557 1601.1 564.245Z" fill="#3D4B5C"/>
<path d="M1601.1 589.147C1601.1 589.835 1600.54 590.392 1599.85 590.392C1599.17 590.392 1598.61 589.835 1598.61 589.147C1598.61 588.459 1599.17 587.902 1599.85 587.902C1600.54 587.902 1601.1 588.459 1601.1 589.147Z" fill="#3D4B5C"/>
<path d="M1601.1 614.049C1601.1 614.737 1600.54 615.294 1599.85 615.294C1599.17 615.294 1598.61 614.737 1598.61 614.049C1598.61 613.361 1599.17 612.804 1599.85 612.804C1600.54 612.804 1601.1 613.361 1601.1 614.049Z" fill="#3D4B5C"/>
<path d="M1601.1 638.951C1601.1 639.639 1600.54 640.196 1599.85 640.196C1599.17 640.196 1598.61 639.639 1598.61 638.951C1598.61 638.263 1599.17 637.706 1599.85 637.706C1600.54 637.706 1601.1 638.263 1601.1 638.951Z" fill="#3D4B5C"/>
<path d="M1601.1 663.853C1601.1 664.541 1600.54 665.098 1599.85 665.098C1599.17 665.098 1598.61 664.541 1598.61 663.853C1598.61 663.165 1599.17 662.608 1599.85 662.608C1600.54 662.608 1601.1 663.165 1601.1 663.853Z" fill="#3D4B5C"/>
<path d="M1601.1 688.755C1601.1 689.443 1600.54 690 1599.85 690C1599.17 690 1598.61 689.443 1598.61 688.755C1598.61 688.067 1599.17 687.51 1599.85 687.51C1600.54 687.51 1601.1 688.067 1601.1 688.755Z" fill="#3D4B5C"/>
<path d="M1626 564.245C1626 564.933 1625.44 565.49 1624.75 565.49C1624.07 565.49 1623.51 564.933 1623.51 564.245C1623.51 563.557 1624.07 563 1624.75 563C1625.44 563 1626 563.557 1626 564.245Z" fill="#3D4B5C"/>
<path d="M1626 589.147C1626 589.835 1625.44 590.392 1624.75 590.392C1624.07 590.392 1623.51 589.835 1623.51 589.147C1623.51 588.459 1624.07 587.902 1624.75 587.902C1625.44 587.902 1626 588.459 1626 589.147Z" fill="#3D4B5C"/>
<path d="M1626 614.049C1626 614.737 1625.44 615.294 1624.75 615.294C1624.07 615.294 1623.51 614.737 1623.51 614.049C1623.51 613.361 1624.07 612.804 1624.75 612.804C1625.44 612.804 1626 613.361 1626 614.049Z" fill="#3D4B5C"/>
<path d="M1626 638.951C1626 639.639 1625.44 640.196 1624.75 640.196C1624.07 640.196 1623.51 639.639 1623.51 638.951C1623.51 638.263 1624.07 637.706 1624.75 637.706C1625.44 637.706 1626 638.263 1626 638.951Z" fill="#3D4B5C"/>
<path d="M1626 663.853C1626 664.541 1625.44 665.098 1624.75 665.098C1624.07 665.098 1623.51 664.541 1623.51 663.853C1623.51 663.165 1624.07 662.608 1624.75 662.608C1625.44 662.608 1626 663.165 1626 663.853Z" fill="#3D4B5C"/>
<path d="M1626 688.755C1626 689.443 1625.44 690 1624.75 690C1624.07 690 1623.51 689.443 1623.51 688.755C1623.51 688.067 1624.07 687.51 1624.75 687.51C1625.44 687.51 1626 688.067 1626 688.755Z" fill="#3D4B5C"/>
</g>
<g opacity="0.5">
<path d="M311.49 136.245C311.49 136.933 310.933 137.49 310.245 137.49C309.557 137.49 309 136.933 309 136.245C309 135.557 309.557 135 310.245 135C310.933 135 311.49 135.557 311.49 136.245Z" fill="#3D4B5C"/>
<path d="M311.49 161.147C311.49 161.835 310.933 162.392 310.245 162.392C309.557 162.392 309 161.835 309 161.147C309 160.459 309.557 159.902 310.245 159.902C310.933 159.902 311.49 160.459 311.49 161.147Z" fill="#3D4B5C"/>
<path d="M311.49 186.049C311.49 186.737 310.933 187.294 310.245 187.294C309.557 187.294 309 186.737 309 186.049C309 185.361 309.557 184.804 310.245 184.804C310.933 184.804 311.49 185.361 311.49 186.049Z" fill="#3D4B5C"/>
<path d="M311.49 210.951C311.49 211.639 310.933 212.196 310.245 212.196C309.557 212.196 309 211.639 309 210.951C309 210.263 309.557 209.706 310.245 209.706C310.933 209.706 311.49 210.263 311.49 210.951Z" fill="#3D4B5C"/>
<path d="M311.49 235.853C311.49 236.541 310.933 237.098 310.245 237.098C309.557 237.098 309 236.541 309 235.853C309 235.165 309.557 234.608 310.245 234.608C310.933 234.608 311.49 235.165 311.49 235.853Z" fill="#3D4B5C"/>
<path d="M311.49 260.755C311.49 261.443 310.933 262 310.245 262C309.557 262 309 261.443 309 260.755C309 260.067 309.557 259.51 310.245 259.51C310.933 259.51 311.49 260.067 311.49 260.755Z" fill="#3D4B5C"/>
<path d="M336.392 136.245C336.392 136.933 335.835 137.49 335.147 137.49C334.459 137.49 333.902 136.933 333.902 136.245C333.902 135.557 334.459 135 335.147 135C335.835 135 336.392 135.557 336.392 136.245Z" fill="#3D4B5C"/>
<path d="M336.392 161.147C336.392 161.835 335.835 162.392 335.147 162.392C334.459 162.392 333.902 161.835 333.902 161.147C333.902 160.459 334.459 159.902 335.147 159.902C335.835 159.902 336.392 160.459 336.392 161.147Z" fill="#3D4B5C"/>
<path d="M336.392 186.049C336.392 186.737 335.835 187.294 335.147 187.294C334.459 187.294 333.902 186.737 333.902 186.049C333.902 185.361 334.459 184.804 335.147 184.804C335.835 184.804 336.392 185.361 336.392 186.049Z" fill="#3D4B5C"/>
<path d="M336.392 210.951C336.392 211.639 335.835 212.196 335.147 212.196C334.459 212.196 333.902 211.639 333.902 210.951C333.902 210.263 334.459 209.706 335.147 209.706C335.835 209.706 336.392 210.263 336.392 210.951Z" fill="#3D4B5C"/>
<path d="M336.392 235.853C336.392 236.541 335.835 237.098 335.147 237.098C334.459 237.098 333.902 236.541 333.902 235.853C333.902 235.165 334.459 234.608 335.147 234.608C335.835 234.608 336.392 235.165 336.392 235.853Z" fill="#3D4B5C"/>
<path d="M336.392 260.755C336.392 261.443 335.835 262 335.147 262C334.459 262 333.902 261.443 333.902 260.755C333.902 260.067 334.459 259.51 335.147 259.51C335.835 259.51 336.392 260.067 336.392 260.755Z" fill="#3D4B5C"/>
<path d="M361.294 136.245C361.294 136.933 360.737 137.49 360.049 137.49C359.361 137.49 358.804 136.933 358.804 136.245C358.804 135.557 359.361 135 360.049 135C360.737 135 361.294 135.557 361.294 136.245Z" fill="#3D4B5C"/>
<path d="M361.294 161.147C361.294 161.835 360.737 162.392 360.049 162.392C359.361 162.392 358.804 161.835 358.804 161.147C358.804 160.459 359.361 159.902 360.049 159.902C360.737 159.902 361.294 160.459 361.294 161.147Z" fill="#3D4B5C"/>
<path d="M361.294 186.049C361.294 186.737 360.737 187.294 360.049 187.294C359.361 187.294 358.804 186.737 358.804 186.049C358.804 185.361 359.361 184.804 360.049 184.804C360.737 184.804 361.294 185.361 361.294 186.049Z" fill="#3D4B5C"/>
<path d="M361.294 210.951C361.294 211.639 360.737 212.196 360.049 212.196C359.361 212.196 358.804 211.639 358.804 210.951C358.804 210.263 359.361 209.706 360.049 209.706C360.737 209.706 361.294 210.263 361.294 210.951Z" fill="#3D4B5C"/>
<path d="M361.294 235.853C361.294 236.541 360.737 237.098 360.049 237.098C359.361 237.098 358.804 236.541 358.804 235.853C358.804 235.165 359.361 234.608 360.049 234.608C360.737 234.608 361.294 235.165 361.294 235.853Z" fill="#3D4B5C"/>
<path d="M361.294 260.755C361.294 261.443 360.737 262 360.049 262C359.361 262 358.804 261.443 358.804 260.755C358.804 260.067 359.361 259.51 360.049 259.51C360.737 259.51 361.294 260.067 361.294 260.755Z" fill="#3D4B5C"/>
<path d="M386.196 136.245C386.196 136.933 385.639 137.49 384.951 137.49C384.263 137.49 383.706 136.933 383.706 136.245C383.706 135.557 384.263 135 384.951 135C385.639 135 386.196 135.557 386.196 136.245Z" fill="#3D4B5C"/>
<path d="M386.196 161.147C386.196 161.835 385.639 162.392 384.951 162.392C384.263 162.392 383.706 161.835 383.706 161.147C383.706 160.459 384.263 159.902 384.951 159.902C385.639 159.902 386.196 160.459 386.196 161.147Z" fill="#3D4B5C"/>
<path d="M386.196 186.049C386.196 186.737 385.639 187.294 384.951 187.294C384.263 187.294 383.706 186.737 383.706 186.049C383.706 185.361 384.263 184.804 384.951 184.804C385.639 184.804 386.196 185.361 386.196 186.049Z" fill="#3D4B5C"/>
<path d="M386.196 210.951C386.196 211.639 385.639 212.196 384.951 212.196C384.263 212.196 383.706 211.639 383.706 210.951C383.706 210.263 384.263 209.706 384.951 209.706C385.639 209.706 386.196 210.263 386.196 210.951Z" fill="#3D4B5C"/>
<path d="M386.196 235.853C386.196 236.541 385.639 237.098 384.951 237.098C384.263 237.098 383.706 236.541 383.706 235.853C383.706 235.165 384.263 234.608 384.951 234.608C385.639 234.608 386.196 235.165 386.196 235.853Z" fill="#3D4B5C"/>
<path d="M386.196 260.755C386.196 261.443 385.639 262 384.951 262C384.263 262 383.706 261.443 383.706 260.755C383.706 260.067 384.263 259.51 384.951 259.51C385.639 259.51 386.196 260.067 386.196 260.755Z" fill="#3D4B5C"/>
<path d="M411.098 136.245C411.098 136.933 410.541 137.49 409.853 137.49C409.165 137.49 408.608 136.933 408.608 136.245C408.608 135.557 409.165 135 409.853 135C410.541 135 411.098 135.557 411.098 136.245Z" fill="#3D4B5C"/>
<path d="M411.098 161.147C411.098 161.835 410.541 162.392 409.853 162.392C409.165 162.392 408.608 161.835 408.608 161.147C408.608 160.459 409.165 159.902 409.853 159.902C410.541 159.902 411.098 160.459 411.098 161.147Z" fill="#3D4B5C"/>
<path d="M411.098 186.049C411.098 186.737 410.541 187.294 409.853 187.294C409.165 187.294 408.608 186.737 408.608 186.049C408.608 185.361 409.165 184.804 409.853 184.804C410.541 184.804 411.098 185.361 411.098 186.049Z" fill="#3D4B5C"/>
<path d="M411.098 210.951C411.098 211.639 410.541 212.196 409.853 212.196C409.165 212.196 408.608 211.639 408.608 210.951C408.608 210.263 409.165 209.706 409.853 209.706C410.541 209.706 411.098 210.263 411.098 210.951Z" fill="#3D4B5C"/>
<path d="M411.098 235.853C411.098 236.541 410.541 237.098 409.853 237.098C409.165 237.098 408.608 236.541 408.608 235.853C408.608 235.165 409.165 234.608 409.853 234.608C410.541 234.608 411.098 235.165 411.098 235.853Z" fill="#3D4B5C"/>
<path d="M411.098 260.755C411.098 261.443 410.541 262 409.853 262C409.165 262 408.608 261.443 408.608 260.755C408.608 260.067 409.165 259.51 409.853 259.51C410.541 259.51 411.098 260.067 411.098 260.755Z" fill="#3D4B5C"/>
<path d="M436 136.245C436 136.933 435.443 137.49 434.755 137.49C434.067 137.49 433.51 136.933 433.51 136.245C433.51 135.557 434.067 135 434.755 135C435.443 135 436 135.557 436 136.245Z" fill="#3D4B5C"/>
<path d="M436 161.147C436 161.835 435.443 162.392 434.755 162.392C434.067 162.392 433.51 161.835 433.51 161.147C433.51 160.459 434.067 159.902 434.755 159.902C435.443 159.902 436 160.459 436 161.147Z" fill="#3D4B5C"/>
<path d="M436 186.049C436 186.737 435.443 187.294 434.755 187.294C434.067 187.294 433.51 186.737 433.51 186.049C433.51 185.361 434.067 184.804 434.755 184.804C435.443 184.804 436 185.361 436 186.049Z" fill="#3D4B5C"/>
<path d="M436 210.951C436 211.639 435.443 212.196 434.755 212.196C434.067 212.196 433.51 211.639 433.51 210.951C433.51 210.263 434.067 209.706 434.755 209.706C435.443 209.706 436 210.263 436 210.951Z" fill="#3D4B5C"/>
<path d="M436 235.853C436 236.541 435.443 237.098 434.755 237.098C434.067 237.098 433.51 236.541 433.51 235.853C433.51 235.165 434.067 234.608 434.755 234.608C435.443 234.608 436 235.165 436 235.853Z" fill="#3D4B5C"/>
<path d="M436 260.755C436 261.443 435.443 262 434.755 262C434.067 262 433.51 261.443 433.51 260.755C433.51 260.067 434.067 259.51 434.755 259.51C435.443 259.51 436 260.067 436 260.755Z" fill="#3D4B5C"/>
</g>
</g>
<defs>
<clipPath id="clip0">
<rect width="1920" height="750" fill="white"/>
</clipPath>
</defs>
</svg>
