<svg width="312" height="450" viewBox="0 0 312 450" fill="none" xmlns="http://www.w3.org/2000/svg">
<path d="M89 112L144 33.5L150 23L159 22.5L184 52.5L182.5 70.5L164 106.5L145 118.5L117.5 163.5L88.5 115.5L89 112Z" fill="#F4F7FA"/>
<path d="M32.7089 150.607C51.7218 131.593 77.0723 118.918 87.3709 114.957L118.267 162.491L142.033 120.185L146.311 117.809C168.746 123.513 208.578 148.072 225.689 159.639C242.326 170.888 272.841 200.613 261.814 229.513C250.786 258.414 193.843 232.366 166.75 215.729C168.651 228.278 183.069 264.055 190.04 280.375L48.3946 305.568L45.0673 299.864C27.9557 301.29 15.5974 290.832 6.56625 269.442C-2.46486 248.052 8.94286 174.374 32.7089 150.607Z" fill="#8DD0B8"/>
<path d="M52.5 284.5L37 230C45.8333 219.667 64.8 197.6 70 192C76.5 185 78 179 92.5 171C107 163 112.5 166 129.5 175.5C143.1 183.1 147.5 190 148 192.5L199 195.5C197.833 198.167 195.3 203.6 194.5 204C193.7 204.4 183.5 207.167 178.5 208.5C154 216 140.5 207 136.5 204C133.3 201.6 130.5 197.667 129.5 196L121 192L102 184.5L52.5 284.5Z" fill="#F4F7FA"/>
<path d="M184.401 63.3075C181.868 54.7475 172.245 36.0109 155.911 25.739C154.962 24.9464 151.638 25.739 145.94 35.25C138.818 47.1388 105.421 97.0623 94.5 108C86.1114 102.135 68.7337 84.2317 71.3927 67.1118C74.7165 45.712 105.105 -8.97635 147.365 5.29018C189.624 19.5567 187.25 47.1388 184.401 63.3075C184.162 64.706 184.715 65.7115 184.401 68.063C184.401 79.0006 181.077 87.3971 181.077 97.0716C181.077 113.24 174.43 130.836 153.062 122.751C131.695 114.667 135.969 117.996 132.17 107.534C136.127 110.229 145.56 114.952 151.638 112.289C159.235 108.96 177.753 82.3295 184.401 68.063C184.715 65.7115 184.162 64.706 184.401 63.3075Z" fill="black"/>
<path fill-rule="evenodd" clip-rule="evenodd" d="M148.544 55.0455C156.494 52.109 161.797 56.2716 163.508 58.9402C163.933 59.6027 163.741 60.4851 163.08 60.911C162.42 61.3369 161.54 61.1451 161.115 60.4826C159.981 58.7143 155.992 55.3341 149.528 57.7219C148.791 57.9942 147.973 57.6158 147.701 56.8767C147.43 56.1376 147.807 55.3178 148.544 55.0455ZM185.001 56.3446C185.232 55.6255 184.861 54.8435 184.149 54.5739C183.414 54.2958 182.593 54.6677 182.316 55.4047C182.236 55.6177 182.198 55.8448 182.177 55.9858C182.152 56.1561 182.131 56.3504 182.114 56.5552C182.079 56.9662 182.051 57.4818 182.027 58.0541C181.98 59.1792 181.948 60.5887 181.916 61.9841L181.914 62.0639C181.893 63.0179 181.871 63.9627 181.845 64.8157C180.085 63.3743 177.508 62.0883 174.164 62.0883C173.379 62.0883 172.742 62.7268 172.742 63.5144C172.742 64.302 173.379 64.9406 174.164 64.9406C177.917 64.9406 180.383 67.0576 181.421 68.4315C176.824 79.8702 171.473 89.5396 166.073 96.857C160.536 104.36 155.052 109.248 150.394 111.159C146.89 112.596 142.213 111.226 137.438 108.431C132.76 105.691 128.431 101.842 125.891 99.1404C125.352 98.5673 124.452 98.5408 123.88 99.0811C123.309 99.6214 123.282 100.524 123.821 101.097C126.496 103.942 131.034 107.984 136.004 110.894C140.877 113.747 146.631 115.784 151.471 113.799C156.845 111.594 162.71 106.21 168.36 98.5536C174.039 90.8579 179.608 80.7217 184.34 68.7954C184.427 68.5758 184.467 68.3422 184.488 68.2028C184.515 68.032 184.536 67.8373 184.554 67.633C184.591 67.2228 184.619 66.708 184.644 66.1368C184.693 64.9921 184.726 63.5511 184.758 62.1293L184.76 62.0686C184.792 60.6585 184.824 59.2708 184.869 58.1722C184.892 57.614 184.918 57.1473 184.948 56.7987C184.963 56.6236 184.978 56.4936 184.991 56.4046C184.995 56.3765 184.998 56.3569 185.001 56.3446ZM164.961 70.1973C165.731 70.3518 166.231 71.1031 166.077 71.8754C165.288 75.8281 163.734 85.1533 163.734 91.0864C163.734 92.2148 163.12 93.6289 161.472 94.2325C159.961 94.7856 157.877 94.5357 155.113 93.348C154.391 93.0377 154.057 92.1993 154.366 91.4754C154.676 90.7514 155.512 90.416 156.234 90.7263C158.78 91.8204 160.016 91.729 160.496 91.5532C160.839 91.4278 160.889 91.2256 160.889 91.0864C160.889 84.8497 162.495 75.2864 163.287 71.3161C163.441 70.5437 164.191 70.0428 164.961 70.1973ZM142.786 88.3494C143.508 88.0391 144.345 88.3745 144.654 89.0984C145.079 90.0934 145.955 91.6777 147.154 93.0832C148.372 94.5117 149.771 95.5791 151.211 95.8679C151.982 96.0224 152.481 96.7737 152.327 97.546C152.173 98.3184 151.424 98.8192 150.654 98.6648C148.301 98.193 146.381 96.5665 144.992 94.9367C143.583 93.284 142.562 91.4455 142.039 90.222C141.73 89.4981 142.064 88.6597 142.786 88.3494ZM94.9026 105.166C95.5266 105.644 95.6456 106.539 95.1685 107.165L89.5989 114.468L118.178 161.033L142.114 119.373C142.506 118.69 143.376 118.456 144.057 118.849C144.737 119.242 144.971 120.114 144.579 120.797L119.451 164.532C119.201 164.967 118.74 165.239 118.239 165.246C117.738 165.253 117.27 164.995 117.007 164.567L86.6638 115.128C86.3551 114.625 86.3875 113.983 86.7453 113.514L92.9088 105.432C93.3859 104.807 94.2786 104.687 94.9026 105.166ZM93.6284 171.49C86.2395 175.525 80.0826 181.899 76.6951 186.531C76.6701 186.565 76.6435 186.598 76.6156 186.63L38.7182 229.781L53.1239 280.531C66.4293 252.476 90.2103 204.437 100.826 183.148C101.133 182.534 101.831 182.226 102.489 182.415C103.916 182.823 106.968 184.051 110.104 185.371C113.28 186.706 116.656 188.184 118.796 189.138C119.514 189.458 119.837 190.301 119.518 191.02C119.199 191.74 118.359 192.064 117.641 191.744C115.514 190.797 112.157 189.327 109.004 188.001C106.557 186.972 104.296 186.056 102.821 185.526C91.4882 208.265 66.7557 258.254 54.0767 285.176C53.8236 285.713 53.2648 286.037 52.6741 285.988C52.0834 285.939 51.5847 285.529 51.4225 284.957L36.483 232.326L20.6699 250.331C20.1507 250.922 19.252 250.979 18.6624 250.459C18.0729 249.938 18.0158 249.037 18.535 248.446L74.439 184.792C78.013 179.921 84.4496 173.254 92.2679 168.985C100.133 164.69 109.6 162.729 118.898 167.796C127.109 172.271 132.872 175.821 137.05 178.748C144.05 183.652 146.594 186.804 148.736 189.566C149.219 190.187 149.107 191.083 148.487 191.567C147.867 192.05 146.973 191.938 146.491 191.317C145.332 189.823 144.06 188.212 141.895 186.208C142.559 187.735 143.032 189.12 143.294 190.056C143.506 190.815 143.064 191.602 142.308 191.814C141.552 192.027 140.767 191.584 140.555 190.826C140.262 189.777 139.628 187.974 138.703 186.079C137.79 184.209 136.639 182.344 135.32 181.016C131.264 178.182 125.627 174.709 117.539 170.302C109.39 165.861 100.998 167.466 93.6284 171.49ZM126.221 180.401C126.776 179.844 127.677 179.844 128.232 180.401L137.241 189.433C137.796 189.99 137.796 190.893 137.241 191.45C136.685 192.007 135.785 192.007 135.229 191.45L126.221 182.417C125.666 181.86 125.666 180.957 126.221 180.401ZM196.949 197.292C197.103 196.52 197.853 196.019 198.623 196.173C199.393 196.328 199.893 197.079 199.739 197.852C199.35 199.8 198.683 201.354 197.727 202.591C196.768 203.831 195.577 204.674 194.258 205.284C192.958 205.886 191.518 206.269 190.043 206.587C189.321 206.743 188.572 206.887 187.816 207.033L187.755 207.045C186.973 207.195 186.18 207.349 185.367 207.523C183.872 207.844 182.541 208.41 181.022 209.116C180.783 209.227 180.539 209.342 180.289 209.46C178.975 210.078 177.503 210.771 175.77 211.393C171.582 212.897 165.925 213.981 156.513 213.255C141.215 212.075 131.459 202.943 128.414 198.363C127.978 197.708 128.155 196.822 128.808 196.385C129.462 195.948 130.345 196.125 130.781 196.781C133.425 200.757 142.444 209.309 156.731 210.411C165.809 211.112 171.057 210.056 174.811 208.708C176.406 208.135 177.743 207.507 179.055 206.889C179.312 206.768 179.569 206.648 179.826 206.529C181.374 205.808 182.947 205.126 184.771 204.734C185.617 204.552 186.439 204.394 187.218 204.244L187.262 204.235C188.03 204.087 188.753 203.948 189.444 203.799C190.858 203.493 192.055 203.163 193.066 202.695C194.059 202.235 194.853 201.652 195.479 200.843C196.109 200.029 196.627 198.909 196.949 197.292ZM153.936 196.385C154.59 195.948 155.473 196.125 155.909 196.781C156.461 197.611 157.62 199.003 159.228 200.317C160.834 201.631 162.813 202.807 165.002 203.313C165.767 203.49 166.244 204.256 166.068 205.023C165.891 205.791 165.127 206.269 164.362 206.092C161.62 205.458 159.253 204.019 157.43 202.528C155.608 201.037 154.255 199.435 153.542 198.363C153.106 197.708 153.283 196.822 153.936 196.385ZM140.956 196.527C141.532 195.991 142.432 196.024 142.967 196.601C143.951 197.665 145.703 199.376 147.713 201.002C149.745 202.646 151.929 204.11 153.789 204.788C154.527 205.058 154.908 205.876 154.64 206.616C154.371 207.356 153.555 207.738 152.817 207.469C150.505 206.626 148.027 204.921 145.926 203.222C143.803 201.504 141.952 199.698 140.882 198.542C140.348 197.965 140.381 197.063 140.956 196.527ZM189.555 278.885C190.14 278.778 190.73 279.048 191.033 279.561C204.797 302.829 227.132 369.036 207.31 448.918C207.121 449.682 206.349 450.147 205.587 449.957C204.824 449.767 204.36 448.993 204.55 448.229C223.933 370.114 202.543 305.31 189.085 281.871L50.4424 307.231C43.072 322.886 36.6504 347.93 31.6052 373.102C26.4975 398.586 22.8288 424.051 21.0153 439.706C20.9246 440.488 20.2186 441.049 19.4383 440.958C18.658 440.867 18.0989 440.159 18.1896 439.376C20.0109 423.656 23.691 398.112 28.8163 372.54C33.9334 347.009 40.5193 321.3 48.1904 305.34C48.3878 304.929 48.7691 304.638 49.2164 304.556L189.555 278.885ZM146.025 380.584C144.147 380.362 138.237 381.737 134.233 391.59C131.492 398.337 126.353 414.843 121.944 429.594C122.96 433.756 124.856 442.857 124.856 448.573C124.856 449.361 124.219 449.999 123.434 449.999C122.648 449.999 122.011 449.361 122.011 448.573C122.011 444.881 121.143 439.533 120.273 435.215C118.719 440.474 117.328 445.262 116.267 448.967C116.05 449.724 115.262 450.161 114.507 449.944C113.752 449.727 113.316 448.937 113.533 448.18C114.941 443.262 116.927 436.446 119.107 429.149C123.526 414.354 128.771 397.474 131.599 390.514C135.94 379.831 142.862 377.339 146.358 377.751C147.138 377.843 147.696 378.552 147.604 379.334C147.512 380.117 146.805 380.676 146.025 380.584Z" fill="black"/>
<path d="M116.18 196.506L119.984 190.305H176.095L202.724 130.677H309.24L277.38 196.506H116.18Z" fill="black"/>
<path d="M153.42 70.7424C153.42 71.8277 152.542 72.7075 151.46 72.7075C150.378 72.7075 149.5 71.8277 149.5 70.7424C149.5 69.6571 150.378 68.7773 151.46 68.7773C152.542 68.7773 153.42 69.6571 153.42 70.7424Z" fill="black"/>
<path d="M171.06 74.6726C171.06 75.7579 170.402 76.6376 169.59 76.6376C168.778 76.6376 168.12 75.7579 168.12 74.6726C168.12 73.5873 168.778 72.7075 169.59 72.7075C170.402 72.7075 171.06 73.5873 171.06 74.6726Z" fill="black"/>
</svg>
