<svg width="151" height="40" viewBox="0 0 151 40" fill="none" xmlns="http://www.w3.org/2000/svg">
<path d="M21.472 1.37433C21.5114 4.2233 21.7084 7.03817 21.9251 9.76476C21.9671 10.2877 22.0091 10.808 22.0512 11.3257C21.5291 11.422 20.9342 11.5263 20.4043 11.6146C17.7647 12.1041 15.0423 12.6358 12.3278 13.332C11.0552 13.659 9.78268 14.0222 8.52392 14.4355V14.4836L7.23759 14.8147C5.80351 15.3463 4.37534 15.9362 2.95307 16.6003C1.96242 17.0809 1.14647 17.8684 0.622074 18.8501C0.0976757 19.8318 -0.108282 20.9573 0.033695 22.0655C0.033695 22.1056 0.0336964 22.1478 0.0474857 22.1899C0.222806 23.6585 0.681792 27.3682 0.855142 28.7566C0.957576 25.9156 3.44555 24.7439 4.92493 24.124C5.94731 23.6886 6.97756 23.2974 8.01372 22.9342C8.4077 22.8005 8.80759 22.6667 9.21339 22.533C10.482 22.1317 11.7742 21.7906 13.0645 21.4857C15.7081 20.8657 18.3734 20.4023 20.9756 20.001C22.3545 19.7863 23.7039 19.5837 25.0296 19.3791L31.2663 18.4882L30.4094 12.3148C30.2617 10.9565 30.1041 9.57215 29.9544 8.16372C29.6687 5.49732 29.4186 2.75668 29.3319 0L21.472 1.37433Z" fill="#213466"/>
<path d="M17.4101 1.93216C15.3122 2.22509 13.295 2.53406 11.4039 2.90723L11.2542 2.93532V3.02761C11.3803 4.98779 11.6127 7.05028 11.8767 9.18902C12.0441 10.5433 12.2214 11.9277 12.3928 13.3321L13.1335 21.4898C13.1946 22.84 13.2182 24.1943 13.1847 25.5445C13.1532 26.7724 13.0783 27.9983 12.9424 29.2161C12.7631 30.8312 12.0619 33.5538 9.23901 34.9201C10.4722 34.3603 13.0665 33.7002 14.8768 33.2809L15.0246 33.2428C15.5565 33.1204 16.0095 33.0201 16.3365 32.9519C18.533 32.4864 20.3689 30.8051 20.6703 28.538C20.8673 27.0352 20.9855 25.5285 21.0406 24.0197C21.0879 22.6735 21.0879 21.3293 21.0505 19.9931L20.4812 11.6066C20.4319 11.077 20.3807 10.5493 20.3315 10.0257L21.9192 9.76885C21.7025 7.04226 21.5055 4.22739 21.4661 1.37842C20.0872 1.57905 18.7319 1.7536 17.4042 1.93617" fill="#8DD0B8"/>
<path d="M40.1348 33.2468V11.7571H43.9918V20.4444L51.8005 11.7571H56.5617L48.7846 20.292L56.7725 33.2468H52.0408L46.0129 23.2994L43.9918 25.5405V33.2468H40.1348Z" fill="#3D4B5C"/>
<path d="M63.4661 33.6158C62.1791 33.6158 61.1239 33.4058 60.3005 32.9858C59.5398 32.6241 58.9005 32.0421 58.4626 31.3126C58.0595 30.6158 57.851 29.82 57.8598 29.0113C57.8442 28.3478 57.9836 27.69 58.2665 27.0922C58.5494 26.4943 58.9677 25.9734 59.487 25.5725C60.573 24.691 62.2008 24.251 64.3703 24.2523H68.1683V23.8831C68.1683 22.8399 67.8767 22.0721 67.2936 21.5799C66.6804 21.0795 65.9121 20.8184 65.1267 20.8436C64.4044 20.8275 63.6928 21.0247 63.0781 21.4114C62.7912 21.5962 62.5462 21.8409 62.3591 22.1294C62.172 22.4178 62.0471 22.7434 61.9927 23.0846H58.2203C58.3005 22.0341 58.6836 21.0311 59.3215 20.2016C59.97 19.3704 60.8153 18.7207 61.7779 18.3136C62.8473 17.8608 63.9964 17.6362 65.1543 17.6535C67.2844 17.6535 68.9621 18.1959 70.1874 19.2806C71.4127 20.3654 72.0253 21.9036 72.0253 23.8952V33.2426H68.7415L68.379 30.7869C67.9347 31.6077 67.2979 32.3039 66.5254 32.8133C65.7374 33.3483 64.7177 33.6158 63.4661 33.6158ZM64.3388 30.5461C65.4446 30.5461 66.3041 30.1776 66.9174 29.4407C67.5491 28.6593 67.9513 27.712 68.0776 26.708H64.7919C63.7675 26.708 63.0341 26.8973 62.5915 27.2758C62.3821 27.4421 62.2133 27.6553 62.0981 27.8989C61.983 28.1425 61.9246 28.4099 61.9276 28.6803C61.9158 28.9489 61.9703 29.2162 62.0863 29.4578C62.2023 29.6993 62.376 29.9073 62.5915 30.0626C63.1076 30.4121 63.7198 30.5843 64.3388 30.5542" fill="#3D4B5C"/>
<path d="M77.0602 40L80.5252 32.2336H79.621L73.804 18.0188H77.9939L82.1839 28.7346L86.5551 18.0188H90.6544L81.1595 40H77.0602Z" fill="#3D4B5C"/>
<path d="M97.169 33.6158C95.8833 33.6158 94.8281 33.4058 94.0034 32.9858C93.2427 32.6241 92.6034 32.0421 92.1655 31.3126C91.7633 30.6154 91.5549 29.8199 91.5627 29.0113C91.5471 28.3478 91.6865 27.69 91.9693 27.0922C92.2522 26.4943 92.6706 25.9734 93.1898 25.5725C94.2746 24.691 95.9024 24.251 98.0732 24.2523H101.871V23.8831C101.871 22.8399 101.58 22.0721 100.997 21.5799C100.383 21.0794 99.615 20.8182 98.8296 20.8436C98.1058 20.8245 97.3921 21.0196 96.775 21.4053C96.4885 21.5906 96.2437 21.8354 96.0567 22.1238C95.8696 22.4122 95.7445 22.7375 95.6896 23.0786H91.9212C92.0019 22.0304 92.3843 21.0296 93.0204 20.2016C93.6689 19.3704 94.5142 18.7207 95.4769 18.3136C96.5462 17.8608 97.6953 17.6362 98.8533 17.6535C100.983 17.6535 102.661 18.1959 103.886 19.2806C105.112 20.3654 105.725 21.9036 105.726 23.8952V33.2426H102.44L102.078 30.7869C101.634 31.6082 100.997 32.3045 100.224 32.8133C99.4364 33.3483 98.4166 33.6158 97.1651 33.6158H97.169ZM98.0397 30.5461C99.1455 30.5461 100.004 30.1776 100.616 29.4407C101.248 28.6593 101.65 27.712 101.777 26.708H98.4908C97.4665 26.708 96.733 26.8973 96.2904 27.2758C96.0817 27.4425 95.9134 27.6558 95.7986 27.8994C95.6838 28.1429 95.6256 28.4101 95.6286 28.6803C95.6165 28.9487 95.6707 29.2159 95.7864 29.4574C95.902 29.699 96.0753 29.9071 96.2904 30.0626C96.8071 30.4123 97.4201 30.5846 98.0397 30.5542" fill="#3D4B5C"/>
<path d="M109.404 33.2427V18.0207H112.839L113.202 20.8757C113.738 19.8713 114.538 19.0381 115.512 18.4689C116.486 17.8997 117.595 17.6168 118.717 17.6515V21.8066H117.632C116.86 21.7938 116.093 21.93 115.371 22.2079C114.712 22.4706 114.163 22.9586 113.818 23.5882C113.445 24.2436 113.26 25.1545 113.261 26.3209V33.2427H109.404Z" fill="#3D4B5C"/>
<path d="M128.242 33.6158C126.876 33.6375 125.529 33.2877 124.34 32.6026C123.193 31.9356 122.245 30.965 121.596 29.7937C120.904 28.5219 120.556 27.0861 120.587 25.6326C120.557 24.1779 120.91 22.7415 121.611 21.4735C122.268 20.3033 123.22 19.3334 124.369 18.6647C125.561 18 126.899 17.6516 128.258 17.6516C129.617 17.6516 130.954 18 132.146 18.6647C133.293 19.3318 134.24 20.3024 134.888 21.4735C135.552 22.756 135.899 24.1839 135.899 25.6336C135.899 27.0834 135.552 28.5113 134.888 29.7937C134.237 30.9678 133.283 31.9389 132.131 32.6026C130.945 33.2841 129.603 33.6336 128.242 33.6158ZM128.242 30.205C128.734 30.2075 129.22 30.1067 129.672 29.9089C130.123 29.7111 130.53 29.4205 130.866 29.0554C131.609 28.2863 131.981 27.1447 131.981 25.6306C131.981 24.1165 131.609 22.9756 130.866 22.2078C130.53 21.8442 130.125 21.5545 129.675 21.3564C129.226 21.1583 128.741 21.0562 128.251 21.0562C127.761 21.0562 127.276 21.1583 126.826 21.3564C126.377 21.5545 125.972 21.8442 125.636 22.2078C124.9 22.9769 124.533 24.1179 124.535 25.6306C124.536 27.1434 124.903 28.285 125.636 29.0554C125.968 29.4211 126.371 29.7122 126.82 29.9101C127.269 30.1081 127.753 30.2085 128.242 30.205Z" fill="#3D4B5C"/>
<path d="M143.194 11.1431H139.334V33.2467H143.194V11.1431Z" fill="#3D4B5C"/>
<path d="M151 11.1431H147.141V33.2467H151V11.1431Z" fill="#3D4B5C"/>
</svg>
