<svg width="1920" height="630" viewBox="0 0 1920 630" fill="none" xmlns="http://www.w3.org/2000/svg">
<g clip-path="url(#clip0)">
<path d="M0 0H1920V630H0V0Z" fill="#213466"/>
<g opacity="0.2">
<path d="M1475.49 324.245C1475.49 324.933 1474.93 325.49 1474.25 325.49C1473.56 325.49 1473 324.933 1473 324.245C1473 323.557 1473.56 323 1474.25 323C1474.93 323 1475.49 323.557 1475.49 324.245Z" fill="white"/>
<path d="M1475.49 349.147C1475.49 349.835 1474.93 350.392 1474.25 350.392C1473.56 350.392 1473 349.835 1473 349.147C1473 348.459 1473.56 347.902 1474.25 347.902C1474.93 347.902 1475.49 348.459 1475.49 349.147Z" fill="white"/>
<path d="M1475.49 374.049C1475.49 374.737 1474.93 375.294 1474.25 375.294C1473.56 375.294 1473 374.737 1473 374.049C1473 373.361 1473.56 372.804 1474.25 372.804C1474.93 372.804 1475.49 373.361 1475.49 374.049Z" fill="white"/>
<path d="M1475.49 398.951C1475.49 399.639 1474.93 400.196 1474.25 400.196C1473.56 400.196 1473 399.639 1473 398.951C1473 398.263 1473.56 397.706 1474.25 397.706C1474.93 397.706 1475.49 398.263 1475.49 398.951Z" fill="white"/>
<path d="M1475.49 423.853C1475.49 424.541 1474.93 425.098 1474.25 425.098C1473.56 425.098 1473 424.541 1473 423.853C1473 423.165 1473.56 422.608 1474.25 422.608C1474.93 422.608 1475.49 423.165 1475.49 423.853Z" fill="white"/>
<path d="M1475.49 448.755C1475.49 449.443 1474.93 450 1474.25 450C1473.56 450 1473 449.443 1473 448.755C1473 448.067 1473.56 447.51 1474.25 447.51C1474.93 447.51 1475.49 448.067 1475.49 448.755Z" fill="white"/>
<path d="M1500.39 324.245C1500.39 324.933 1499.83 325.49 1499.15 325.49C1498.46 325.49 1497.9 324.933 1497.9 324.245C1497.9 323.557 1498.46 323 1499.15 323C1499.83 323 1500.39 323.557 1500.39 324.245Z" fill="white"/>
<path d="M1500.39 349.147C1500.39 349.835 1499.83 350.392 1499.15 350.392C1498.46 350.392 1497.9 349.835 1497.9 349.147C1497.9 348.459 1498.46 347.902 1499.15 347.902C1499.83 347.902 1500.39 348.459 1500.39 349.147Z" fill="white"/>
<path d="M1500.39 374.049C1500.39 374.737 1499.83 375.294 1499.15 375.294C1498.46 375.294 1497.9 374.737 1497.9 374.049C1497.9 373.361 1498.46 372.804 1499.15 372.804C1499.83 372.804 1500.39 373.361 1500.39 374.049Z" fill="white"/>
<path d="M1500.39 398.951C1500.39 399.639 1499.83 400.196 1499.15 400.196C1498.46 400.196 1497.9 399.639 1497.9 398.951C1497.9 398.263 1498.46 397.706 1499.15 397.706C1499.83 397.706 1500.39 398.263 1500.39 398.951Z" fill="white"/>
<path d="M1500.39 423.853C1500.39 424.541 1499.83 425.098 1499.15 425.098C1498.46 425.098 1497.9 424.541 1497.9 423.853C1497.9 423.165 1498.46 422.608 1499.15 422.608C1499.83 422.608 1500.39 423.165 1500.39 423.853Z" fill="white"/>
<path d="M1500.39 448.755C1500.39 449.443 1499.83 450 1499.15 450C1498.46 450 1497.9 449.443 1497.9 448.755C1497.9 448.067 1498.46 447.51 1499.15 447.51C1499.83 447.51 1500.39 448.067 1500.39 448.755Z" fill="white"/>
<path d="M1525.29 324.245C1525.29 324.933 1524.74 325.49 1524.05 325.49C1523.36 325.49 1522.8 324.933 1522.8 324.245C1522.8 323.557 1523.36 323 1524.05 323C1524.74 323 1525.29 323.557 1525.29 324.245Z" fill="white"/>
<path d="M1525.29 349.147C1525.29 349.835 1524.74 350.392 1524.05 350.392C1523.36 350.392 1522.8 349.835 1522.8 349.147C1522.8 348.459 1523.36 347.902 1524.05 347.902C1524.74 347.902 1525.29 348.459 1525.29 349.147Z" fill="white"/>
<path d="M1525.29 374.049C1525.29 374.737 1524.74 375.294 1524.05 375.294C1523.36 375.294 1522.8 374.737 1522.8 374.049C1522.8 373.361 1523.36 372.804 1524.05 372.804C1524.74 372.804 1525.29 373.361 1525.29 374.049Z" fill="white"/>
<path d="M1525.29 398.951C1525.29 399.639 1524.74 400.196 1524.05 400.196C1523.36 400.196 1522.8 399.639 1522.8 398.951C1522.8 398.263 1523.36 397.706 1524.05 397.706C1524.74 397.706 1525.29 398.263 1525.29 398.951Z" fill="white"/>
<path d="M1525.29 423.853C1525.29 424.541 1524.74 425.098 1524.05 425.098C1523.36 425.098 1522.8 424.541 1522.8 423.853C1522.8 423.165 1523.36 422.608 1524.05 422.608C1524.74 422.608 1525.29 423.165 1525.29 423.853Z" fill="white"/>
<path d="M1525.29 448.755C1525.29 449.443 1524.74 450 1524.05 450C1523.36 450 1522.8 449.443 1522.8 448.755C1522.8 448.067 1523.36 447.51 1524.05 447.51C1524.74 447.51 1525.29 448.067 1525.29 448.755Z" fill="white"/>
<path d="M1550.2 324.245C1550.2 324.933 1549.64 325.49 1548.95 325.49C1548.26 325.49 1547.71 324.933 1547.71 324.245C1547.71 323.557 1548.26 323 1548.95 323C1549.64 323 1550.2 323.557 1550.2 324.245Z" fill="white"/>
<path d="M1550.2 349.147C1550.2 349.835 1549.64 350.392 1548.95 350.392C1548.26 350.392 1547.71 349.835 1547.71 349.147C1547.71 348.459 1548.26 347.902 1548.95 347.902C1549.64 347.902 1550.2 348.459 1550.2 349.147Z" fill="white"/>
<path d="M1550.2 374.049C1550.2 374.737 1549.64 375.294 1548.95 375.294C1548.26 375.294 1547.71 374.737 1547.71 374.049C1547.71 373.361 1548.26 372.804 1548.95 372.804C1549.64 372.804 1550.2 373.361 1550.2 374.049Z" fill="white"/>
<path d="M1550.2 398.951C1550.2 399.639 1549.64 400.196 1548.95 400.196C1548.26 400.196 1547.71 399.639 1547.71 398.951C1547.71 398.263 1548.26 397.706 1548.95 397.706C1549.64 397.706 1550.2 398.263 1550.2 398.951Z" fill="white"/>
<path d="M1550.2 423.853C1550.2 424.541 1549.64 425.098 1548.95 425.098C1548.26 425.098 1547.71 424.541 1547.71 423.853C1547.71 423.165 1548.26 422.608 1548.95 422.608C1549.64 422.608 1550.2 423.165 1550.2 423.853Z" fill="white"/>
<path d="M1550.2 448.755C1550.2 449.443 1549.64 450 1548.95 450C1548.26 450 1547.71 449.443 1547.71 448.755C1547.71 448.067 1548.26 447.51 1548.95 447.51C1549.64 447.51 1550.2 448.067 1550.2 448.755Z" fill="white"/>
<path d="M1575.1 324.245C1575.1 324.933 1574.54 325.49 1573.85 325.49C1573.17 325.49 1572.61 324.933 1572.61 324.245C1572.61 323.557 1573.17 323 1573.85 323C1574.54 323 1575.1 323.557 1575.1 324.245Z" fill="white"/>
<path d="M1575.1 349.147C1575.1 349.835 1574.54 350.392 1573.85 350.392C1573.17 350.392 1572.61 349.835 1572.61 349.147C1572.61 348.459 1573.17 347.902 1573.85 347.902C1574.54 347.902 1575.1 348.459 1575.1 349.147Z" fill="white"/>
<path d="M1575.1 374.049C1575.1 374.737 1574.54 375.294 1573.85 375.294C1573.17 375.294 1572.61 374.737 1572.61 374.049C1572.61 373.361 1573.17 372.804 1573.85 372.804C1574.54 372.804 1575.1 373.361 1575.1 374.049Z" fill="white"/>
<path d="M1575.1 398.951C1575.1 399.639 1574.54 400.196 1573.85 400.196C1573.17 400.196 1572.61 399.639 1572.61 398.951C1572.61 398.263 1573.17 397.706 1573.85 397.706C1574.54 397.706 1575.1 398.263 1575.1 398.951Z" fill="white"/>
<path d="M1575.1 423.853C1575.1 424.541 1574.54 425.098 1573.85 425.098C1573.17 425.098 1572.61 424.541 1572.61 423.853C1572.61 423.165 1573.17 422.608 1573.85 422.608C1574.54 422.608 1575.1 423.165 1575.1 423.853Z" fill="white"/>
<path d="M1575.1 448.755C1575.1 449.443 1574.54 450 1573.85 450C1573.17 450 1572.61 449.443 1572.61 448.755C1572.61 448.067 1573.17 447.51 1573.85 447.51C1574.54 447.51 1575.1 448.067 1575.1 448.755Z" fill="white"/>
<path d="M1600 324.245C1600 324.933 1599.44 325.49 1598.75 325.49C1598.07 325.49 1597.51 324.933 1597.51 324.245C1597.51 323.557 1598.07 323 1598.75 323C1599.44 323 1600 323.557 1600 324.245Z" fill="white"/>
<path d="M1600 349.147C1600 349.835 1599.44 350.392 1598.75 350.392C1598.07 350.392 1597.51 349.835 1597.51 349.147C1597.51 348.459 1598.07 347.902 1598.75 347.902C1599.44 347.902 1600 348.459 1600 349.147Z" fill="white"/>
<path d="M1600 374.049C1600 374.737 1599.44 375.294 1598.75 375.294C1598.07 375.294 1597.51 374.737 1597.51 374.049C1597.51 373.361 1598.07 372.804 1598.75 372.804C1599.44 372.804 1600 373.361 1600 374.049Z" fill="white"/>
<path d="M1600 398.951C1600 399.639 1599.44 400.196 1598.75 400.196C1598.07 400.196 1597.51 399.639 1597.51 398.951C1597.51 398.263 1598.07 397.706 1598.75 397.706C1599.44 397.706 1600 398.263 1600 398.951Z" fill="white"/>
<path d="M1600 423.853C1600 424.541 1599.44 425.098 1598.75 425.098C1598.07 425.098 1597.51 424.541 1597.51 423.853C1597.51 423.165 1598.07 422.608 1598.75 422.608C1599.44 422.608 1600 423.165 1600 423.853Z" fill="white"/>
<path d="M1600 448.755C1600 449.443 1599.44 450 1598.75 450C1598.07 450 1597.51 449.443 1597.51 448.755C1597.51 448.067 1598.07 447.51 1598.75 447.51C1599.44 447.51 1600 448.067 1600 448.755Z" fill="white"/>
</g>
<g opacity="0.2">
<path d="M153.49 154.245C153.49 154.933 152.933 155.49 152.245 155.49C151.557 155.49 151 154.933 151 154.245C151 153.557 151.557 153 152.245 153C152.933 153 153.49 153.557 153.49 154.245Z" fill="white"/>
<path d="M153.49 179.147C153.49 179.835 152.933 180.392 152.245 180.392C151.557 180.392 151 179.835 151 179.147C151 178.459 151.557 177.902 152.245 177.902C152.933 177.902 153.49 178.459 153.49 179.147Z" fill="white"/>
<path d="M153.49 204.049C153.49 204.737 152.933 205.294 152.245 205.294C151.557 205.294 151 204.737 151 204.049C151 203.361 151.557 202.804 152.245 202.804C152.933 202.804 153.49 203.361 153.49 204.049Z" fill="white"/>
<path d="M153.49 228.951C153.49 229.639 152.933 230.196 152.245 230.196C151.557 230.196 151 229.639 151 228.951C151 228.263 151.557 227.706 152.245 227.706C152.933 227.706 153.49 228.263 153.49 228.951Z" fill="white"/>
<path d="M153.49 253.853C153.49 254.541 152.933 255.098 152.245 255.098C151.557 255.098 151 254.541 151 253.853C151 253.165 151.557 252.608 152.245 252.608C152.933 252.608 153.49 253.165 153.49 253.853Z" fill="white"/>
<path d="M153.49 278.755C153.49 279.443 152.933 280 152.245 280C151.557 280 151 279.443 151 278.755C151 278.067 151.557 277.51 152.245 277.51C152.933 277.51 153.49 278.067 153.49 278.755Z" fill="white"/>
<path d="M178.392 154.245C178.392 154.933 177.835 155.49 177.147 155.49C176.459 155.49 175.902 154.933 175.902 154.245C175.902 153.557 176.459 153 177.147 153C177.835 153 178.392 153.557 178.392 154.245Z" fill="white"/>
<path d="M178.392 179.147C178.392 179.835 177.835 180.392 177.147 180.392C176.459 180.392 175.902 179.835 175.902 179.147C175.902 178.459 176.459 177.902 177.147 177.902C177.835 177.902 178.392 178.459 178.392 179.147Z" fill="white"/>
<path d="M178.392 204.049C178.392 204.737 177.835 205.294 177.147 205.294C176.459 205.294 175.902 204.737 175.902 204.049C175.902 203.361 176.459 202.804 177.147 202.804C177.835 202.804 178.392 203.361 178.392 204.049Z" fill="white"/>
<path d="M178.392 228.951C178.392 229.639 177.835 230.196 177.147 230.196C176.459 230.196 175.902 229.639 175.902 228.951C175.902 228.263 176.459 227.706 177.147 227.706C177.835 227.706 178.392 228.263 178.392 228.951Z" fill="white"/>
<path d="M178.392 253.853C178.392 254.541 177.835 255.098 177.147 255.098C176.459 255.098 175.902 254.541 175.902 253.853C175.902 253.165 176.459 252.608 177.147 252.608C177.835 252.608 178.392 253.165 178.392 253.853Z" fill="white"/>
<path d="M178.392 278.755C178.392 279.443 177.835 280 177.147 280C176.459 280 175.902 279.443 175.902 278.755C175.902 278.067 176.459 277.51 177.147 277.51C177.835 277.51 178.392 278.067 178.392 278.755Z" fill="white"/>
<path d="M203.294 154.245C203.294 154.933 202.737 155.49 202.049 155.49C201.361 155.49 200.804 154.933 200.804 154.245C200.804 153.557 201.361 153 202.049 153C202.737 153 203.294 153.557 203.294 154.245Z" fill="white"/>
<path d="M203.294 179.147C203.294 179.835 202.737 180.392 202.049 180.392C201.361 180.392 200.804 179.835 200.804 179.147C200.804 178.459 201.361 177.902 202.049 177.902C202.737 177.902 203.294 178.459 203.294 179.147Z" fill="white"/>
<path d="M203.294 204.049C203.294 204.737 202.737 205.294 202.049 205.294C201.361 205.294 200.804 204.737 200.804 204.049C200.804 203.361 201.361 202.804 202.049 202.804C202.737 202.804 203.294 203.361 203.294 204.049Z" fill="white"/>
<path d="M203.294 228.951C203.294 229.639 202.737 230.196 202.049 230.196C201.361 230.196 200.804 229.639 200.804 228.951C200.804 228.263 201.361 227.706 202.049 227.706C202.737 227.706 203.294 228.263 203.294 228.951Z" fill="white"/>
<path d="M203.294 253.853C203.294 254.541 202.737 255.098 202.049 255.098C201.361 255.098 200.804 254.541 200.804 253.853C200.804 253.165 201.361 252.608 202.049 252.608C202.737 252.608 203.294 253.165 203.294 253.853Z" fill="white"/>
<path d="M203.294 278.755C203.294 279.443 202.737 280 202.049 280C201.361 280 200.804 279.443 200.804 278.755C200.804 278.067 201.361 277.51 202.049 277.51C202.737 277.51 203.294 278.067 203.294 278.755Z" fill="white"/>
<path d="M228.196 154.245C228.196 154.933 227.639 155.49 226.951 155.49C226.263 155.49 225.706 154.933 225.706 154.245C225.706 153.557 226.263 153 226.951 153C227.639 153 228.196 153.557 228.196 154.245Z" fill="white"/>
<path d="M228.196 179.147C228.196 179.835 227.639 180.392 226.951 180.392C226.263 180.392 225.706 179.835 225.706 179.147C225.706 178.459 226.263 177.902 226.951 177.902C227.639 177.902 228.196 178.459 228.196 179.147Z" fill="white"/>
<path d="M228.196 204.049C228.196 204.737 227.639 205.294 226.951 205.294C226.263 205.294 225.706 204.737 225.706 204.049C225.706 203.361 226.263 202.804 226.951 202.804C227.639 202.804 228.196 203.361 228.196 204.049Z" fill="white"/>
<path d="M228.196 228.951C228.196 229.639 227.639 230.196 226.951 230.196C226.263 230.196 225.706 229.639 225.706 228.951C225.706 228.263 226.263 227.706 226.951 227.706C227.639 227.706 228.196 228.263 228.196 228.951Z" fill="white"/>
<path d="M228.196 253.853C228.196 254.541 227.639 255.098 226.951 255.098C226.263 255.098 225.706 254.541 225.706 253.853C225.706 253.165 226.263 252.608 226.951 252.608C227.639 252.608 228.196 253.165 228.196 253.853Z" fill="white"/>
<path d="M228.196 278.755C228.196 279.443 227.639 280 226.951 280C226.263 280 225.706 279.443 225.706 278.755C225.706 278.067 226.263 277.51 226.951 277.51C227.639 277.51 228.196 278.067 228.196 278.755Z" fill="white"/>
<path d="M253.098 154.245C253.098 154.933 252.541 155.49 251.853 155.49C251.165 155.49 250.608 154.933 250.608 154.245C250.608 153.557 251.165 153 251.853 153C252.541 153 253.098 153.557 253.098 154.245Z" fill="white"/>
<path d="M253.098 179.147C253.098 179.835 252.541 180.392 251.853 180.392C251.165 180.392 250.608 179.835 250.608 179.147C250.608 178.459 251.165 177.902 251.853 177.902C252.541 177.902 253.098 178.459 253.098 179.147Z" fill="white"/>
<path d="M253.098 204.049C253.098 204.737 252.541 205.294 251.853 205.294C251.165 205.294 250.608 204.737 250.608 204.049C250.608 203.361 251.165 202.804 251.853 202.804C252.541 202.804 253.098 203.361 253.098 204.049Z" fill="white"/>
<path d="M253.098 228.951C253.098 229.639 252.541 230.196 251.853 230.196C251.165 230.196 250.608 229.639 250.608 228.951C250.608 228.263 251.165 227.706 251.853 227.706C252.541 227.706 253.098 228.263 253.098 228.951Z" fill="white"/>
<path d="M253.098 253.853C253.098 254.541 252.541 255.098 251.853 255.098C251.165 255.098 250.608 254.541 250.608 253.853C250.608 253.165 251.165 252.608 251.853 252.608C252.541 252.608 253.098 253.165 253.098 253.853Z" fill="white"/>
<path d="M253.098 278.755C253.098 279.443 252.541 280 251.853 280C251.165 280 250.608 279.443 250.608 278.755C250.608 278.067 251.165 277.51 251.853 277.51C252.541 277.51 253.098 278.067 253.098 278.755Z" fill="white"/>
<path d="M278 154.245C278 154.933 277.443 155.49 276.755 155.49C276.067 155.49 275.51 154.933 275.51 154.245C275.51 153.557 276.067 153 276.755 153C277.443 153 278 153.557 278 154.245Z" fill="white"/>
<path d="M278 179.147C278 179.835 277.443 180.392 276.755 180.392C276.067 180.392 275.51 179.835 275.51 179.147C275.51 178.459 276.067 177.902 276.755 177.902C277.443 177.902 278 178.459 278 179.147Z" fill="white"/>
<path d="M278 204.049C278 204.737 277.443 205.294 276.755 205.294C276.067 205.294 275.51 204.737 275.51 204.049C275.51 203.361 276.067 202.804 276.755 202.804C277.443 202.804 278 203.361 278 204.049Z" fill="white"/>
<path d="M278 228.951C278 229.639 277.443 230.196 276.755 230.196C276.067 230.196 275.51 229.639 275.51 228.951C275.51 228.263 276.067 227.706 276.755 227.706C277.443 227.706 278 228.263 278 228.951Z" fill="white"/>
<path d="M278 253.853C278 254.541 277.443 255.098 276.755 255.098C276.067 255.098 275.51 254.541 275.51 253.853C275.51 253.165 276.067 252.608 276.755 252.608C277.443 252.608 278 253.165 278 253.853Z" fill="white"/>
<path d="M278 278.755C278 279.443 277.443 280 276.755 280C276.067 280 275.51 279.443 275.51 278.755C275.51 278.067 276.067 277.51 276.755 277.51C277.443 277.51 278 278.067 278 278.755Z" fill="white"/>
</g>
<path opacity="0.1" fill-rule="evenodd" clip-rule="evenodd" d="M88.5 -3.86846e-06C88.5 48.8772 48.8772 88.5 3.86846e-06 88.5L1.35287e-05 309.5C170.932 309.5 309.5 170.932 309.5 -1.35287e-05L88.5 -3.86846e-06Z" fill="white"/>
<path opacity="0.1" d="M1768.5 118.559C1779.98 127.628 1790.37 138.018 1799.44 149.5L1768.5 149.5L1768.5 118.559Z" stroke="white" stroke-width="231"/>
<g opacity="0.1">
<mask id="path-6-inside-1" fill="white">
<path d="M1531 390L1706 390C1706 293.35 1627.65 215 1531 215L1531 390Z"/>
</mask>
<path d="M1706 390L1706 621L1937 621L1937 390L1706 390ZM1531 390L1300 390L1300 621L1531 621L1531 390ZM1531 215L1531 -16L1300 -16L1300 215L1531 215ZM1706 159L1531 159L1531 621L1706 621L1706 159ZM1531 446C1500.07 446 1475 420.928 1475 390L1937 390C1937 165.772 1755.23 -16 1531 -16L1531 446ZM1762 390L1762 215L1300 215L1300 390L1762 390Z" fill="white" mask="url(#path-6-inside-1)"/>
</g>
<rect opacity="0.1" x="409.947" y="356" width="124.375" height="124.375" transform="rotate(45 409.947 356)" fill="#F4F7FA"/>
</g>
<defs>
<clipPath id="clip0">
<rect width="1920" height="630" fill="white"/>
</clipPath>
</defs>
</svg>
