<svg width="320" height="820" viewBox="0 0 320 820" fill="none" xmlns="http://www.w3.org/2000/svg">
<g clip-path="url(#clip0)">
<path d="M0 0H320V820H0V0Z" fill="#F4F7FA"/>
<circle cx="25.5" cy="-5.5" r="170.5" fill="white"/>
<g opacity="0.5">
<path d="M-5.5098 -23.7549C-5.5098 -23.0673 -6.06725 -22.5098 -6.7549 -22.5098C-7.44255 -22.5098 -8 -23.0673 -8 -23.7549C-8 -24.4426 -7.44255 -25 -6.7549 -25C-6.06725 -25 -5.5098 -24.4426 -5.5098 -23.7549Z" fill="#3D4B5C"/>
<path d="M-5.5098 1.14706C-5.5098 1.83471 -6.06725 2.39216 -6.7549 2.39216C-7.44255 2.39216 -8 1.83471 -8 1.14706C-8 0.45941 -7.44255 -0.0980396 -6.7549 -0.0980396C-6.06725 -0.0980396 -5.5098 0.45941 -5.5098 1.14706Z" fill="#3D4B5C"/>
<path d="M-5.5098 26.049C-5.5098 26.7367 -6.06725 27.2941 -6.7549 27.2941C-7.44255 27.2941 -8 26.7367 -8 26.049C-8 25.3614 -7.44255 24.8039 -6.7549 24.8039C-6.06725 24.8039 -5.5098 25.3614 -5.5098 26.049Z" fill="#3D4B5C"/>
<path d="M-5.5098 50.951C-5.5098 51.6386 -6.06725 52.1961 -6.7549 52.1961C-7.44255 52.1961 -8 51.6386 -8 50.951C-8 50.2633 -7.44255 49.7059 -6.7549 49.7059C-6.06725 49.7059 -5.5098 50.2633 -5.5098 50.951Z" fill="#3D4B5C"/>
<path d="M-5.5098 75.8529C-5.5098 76.5406 -6.06725 77.098 -6.7549 77.098C-7.44255 77.098 -8 76.5406 -8 75.8529C-8 75.1653 -7.44255 74.6078 -6.7549 74.6078C-6.06725 74.6078 -5.5098 75.1653 -5.5098 75.8529Z" fill="#3D4B5C"/>
<path d="M-5.5098 100.755C-5.5098 101.443 -6.06725 102 -6.7549 102C-7.44255 102 -8 101.443 -8 100.755C-8 100.067 -7.44255 99.5098 -6.7549 99.5098C-6.06725 99.5098 -5.5098 100.067 -5.5098 100.755Z" fill="#3D4B5C"/>
<path d="M19.3922 -23.7549C19.3922 -23.0673 18.8347 -22.5098 18.1471 -22.5098C17.4594 -22.5098 16.902 -23.0673 16.902 -23.7549C16.902 -24.4426 17.4594 -25 18.1471 -25C18.8347 -25 19.3922 -24.4426 19.3922 -23.7549Z" fill="#3D4B5C"/>
<path d="M19.3922 1.14706C19.3922 1.83471 18.8347 2.39216 18.1471 2.39216C17.4594 2.39216 16.902 1.83471 16.902 1.14706C16.902 0.45941 17.4594 -0.0980396 18.1471 -0.0980396C18.8347 -0.0980396 19.3922 0.45941 19.3922 1.14706Z" fill="#3D4B5C"/>
<path d="M19.3922 26.049C19.3922 26.7367 18.8347 27.2941 18.1471 27.2941C17.4594 27.2941 16.902 26.7367 16.902 26.049C16.902 25.3614 17.4594 24.8039 18.1471 24.8039C18.8347 24.8039 19.3922 25.3614 19.3922 26.049Z" fill="#3D4B5C"/>
<path d="M19.3922 50.951C19.3922 51.6386 18.8347 52.1961 18.1471 52.1961C17.4594 52.1961 16.902 51.6386 16.902 50.951C16.902 50.2633 17.4594 49.7059 18.1471 49.7059C18.8347 49.7059 19.3922 50.2633 19.3922 50.951Z" fill="#3D4B5C"/>
<path d="M19.3922 75.8529C19.3922 76.5406 18.8347 77.098 18.1471 77.098C17.4594 77.098 16.902 76.5406 16.902 75.8529C16.902 75.1653 17.4594 74.6078 18.1471 74.6078C18.8347 74.6078 19.3922 75.1653 19.3922 75.8529Z" fill="#3D4B5C"/>
<path d="M19.3922 100.755C19.3922 101.443 18.8347 102 18.1471 102C17.4594 102 16.902 101.443 16.902 100.755C16.902 100.067 17.4594 99.5098 18.1471 99.5098C18.8347 99.5098 19.3922 100.067 19.3922 100.755Z" fill="#3D4B5C"/>
<path d="M44.2941 -23.7549C44.2941 -23.0673 43.7367 -22.5098 43.049 -22.5098C42.3614 -22.5098 41.8039 -23.0673 41.8039 -23.7549C41.8039 -24.4426 42.3614 -25 43.049 -25C43.7367 -25 44.2941 -24.4426 44.2941 -23.7549Z" fill="#3D4B5C"/>
<path d="M44.2941 1.14706C44.2941 1.83471 43.7367 2.39216 43.049 2.39216C42.3614 2.39216 41.8039 1.83471 41.8039 1.14706C41.8039 0.45941 42.3614 -0.0980396 43.049 -0.0980396C43.7367 -0.0980396 44.2941 0.45941 44.2941 1.14706Z" fill="#3D4B5C"/>
<path d="M44.2941 26.049C44.2941 26.7367 43.7367 27.2941 43.049 27.2941C42.3614 27.2941 41.8039 26.7367 41.8039 26.049C41.8039 25.3614 42.3614 24.8039 43.049 24.8039C43.7367 24.8039 44.2941 25.3614 44.2941 26.049Z" fill="#3D4B5C"/>
<path d="M44.2941 50.951C44.2941 51.6386 43.7367 52.1961 43.049 52.1961C42.3614 52.1961 41.8039 51.6386 41.8039 50.951C41.8039 50.2633 42.3614 49.7059 43.049 49.7059C43.7367 49.7059 44.2941 50.2633 44.2941 50.951Z" fill="#3D4B5C"/>
<path d="M44.2941 75.8529C44.2941 76.5406 43.7367 77.098 43.049 77.098C42.3614 77.098 41.8039 76.5406 41.8039 75.8529C41.8039 75.1653 42.3614 74.6078 43.049 74.6078C43.7367 74.6078 44.2941 75.1653 44.2941 75.8529Z" fill="#3D4B5C"/>
<path d="M44.2941 100.755C44.2941 101.443 43.7367 102 43.049 102C42.3614 102 41.8039 101.443 41.8039 100.755C41.8039 100.067 42.3614 99.5098 43.049 99.5098C43.7367 99.5098 44.2941 100.067 44.2941 100.755Z" fill="#3D4B5C"/>
<path d="M69.1961 -23.7549C69.1961 -23.0673 68.6386 -22.5098 67.951 -22.5098C67.2633 -22.5098 66.7059 -23.0673 66.7059 -23.7549C66.7059 -24.4426 67.2633 -25 67.951 -25C68.6386 -25 69.1961 -24.4426 69.1961 -23.7549Z" fill="#3D4B5C"/>
<path d="M69.1961 1.14706C69.1961 1.83471 68.6386 2.39216 67.951 2.39216C67.2633 2.39216 66.7059 1.83471 66.7059 1.14706C66.7059 0.45941 67.2633 -0.0980396 67.951 -0.0980396C68.6386 -0.0980396 69.1961 0.45941 69.1961 1.14706Z" fill="#3D4B5C"/>
<path d="M69.1961 26.049C69.1961 26.7367 68.6386 27.2941 67.951 27.2941C67.2633 27.2941 66.7059 26.7367 66.7059 26.049C66.7059 25.3614 67.2633 24.8039 67.951 24.8039C68.6386 24.8039 69.1961 25.3614 69.1961 26.049Z" fill="#3D4B5C"/>
<path d="M69.1961 50.951C69.1961 51.6386 68.6386 52.1961 67.951 52.1961C67.2633 52.1961 66.7059 51.6386 66.7059 50.951C66.7059 50.2633 67.2633 49.7059 67.951 49.7059C68.6386 49.7059 69.1961 50.2633 69.1961 50.951Z" fill="#3D4B5C"/>
<path d="M69.1961 75.8529C69.1961 76.5406 68.6386 77.098 67.951 77.098C67.2633 77.098 66.7059 76.5406 66.7059 75.8529C66.7059 75.1653 67.2633 74.6078 67.951 74.6078C68.6386 74.6078 69.1961 75.1653 69.1961 75.8529Z" fill="#3D4B5C"/>
<path d="M69.1961 100.755C69.1961 101.443 68.6386 102 67.951 102C67.2633 102 66.7059 101.443 66.7059 100.755C66.7059 100.067 67.2633 99.5098 67.951 99.5098C68.6386 99.5098 69.1961 100.067 69.1961 100.755Z" fill="#3D4B5C"/>
<path d="M94.098 -23.7549C94.098 -23.0673 93.5406 -22.5098 92.8529 -22.5098C92.1653 -22.5098 91.6078 -23.0673 91.6078 -23.7549C91.6078 -24.4426 92.1653 -25 92.8529 -25C93.5406 -25 94.098 -24.4426 94.098 -23.7549Z" fill="#3D4B5C"/>
<path d="M94.098 1.14706C94.098 1.83471 93.5406 2.39216 92.8529 2.39216C92.1653 2.39216 91.6078 1.83471 91.6078 1.14706C91.6078 0.45941 92.1653 -0.0980396 92.8529 -0.0980396C93.5406 -0.0980396 94.098 0.45941 94.098 1.14706Z" fill="#3D4B5C"/>
<path d="M94.098 26.049C94.098 26.7367 93.5406 27.2941 92.8529 27.2941C92.1653 27.2941 91.6078 26.7367 91.6078 26.049C91.6078 25.3614 92.1653 24.8039 92.8529 24.8039C93.5406 24.8039 94.098 25.3614 94.098 26.049Z" fill="#3D4B5C"/>
<path d="M94.098 50.951C94.098 51.6386 93.5406 52.1961 92.8529 52.1961C92.1653 52.1961 91.6078 51.6386 91.6078 50.951C91.6078 50.2633 92.1653 49.7059 92.8529 49.7059C93.5406 49.7059 94.098 50.2633 94.098 50.951Z" fill="#3D4B5C"/>
<path d="M94.098 75.8529C94.098 76.5406 93.5406 77.098 92.8529 77.098C92.1653 77.098 91.6078 76.5406 91.6078 75.8529C91.6078 75.1653 92.1653 74.6078 92.8529 74.6078C93.5406 74.6078 94.098 75.1653 94.098 75.8529Z" fill="#3D4B5C"/>
<path d="M94.098 100.755C94.098 101.443 93.5406 102 92.8529 102C92.1653 102 91.6078 101.443 91.6078 100.755C91.6078 100.067 92.1653 99.5098 92.8529 99.5098C93.5406 99.5098 94.098 100.067 94.098 100.755Z" fill="#3D4B5C"/>
<path d="M119 -23.7549C119 -23.0673 118.443 -22.5098 117.755 -22.5098C117.067 -22.5098 116.51 -23.0673 116.51 -23.7549C116.51 -24.4426 117.067 -25 117.755 -25C118.443 -25 119 -24.4426 119 -23.7549Z" fill="#3D4B5C"/>
<path d="M119 1.14706C119 1.83471 118.443 2.39216 117.755 2.39216C117.067 2.39216 116.51 1.83471 116.51 1.14706C116.51 0.45941 117.067 -0.0980396 117.755 -0.0980396C118.443 -0.0980396 119 0.45941 119 1.14706Z" fill="#3D4B5C"/>
<path d="M119 26.049C119 26.7367 118.443 27.2941 117.755 27.2941C117.067 27.2941 116.51 26.7367 116.51 26.049C116.51 25.3614 117.067 24.8039 117.755 24.8039C118.443 24.8039 119 25.3614 119 26.049Z" fill="#3D4B5C"/>
<path d="M119 50.951C119 51.6386 118.443 52.1961 117.755 52.1961C117.067 52.1961 116.51 51.6386 116.51 50.951C116.51 50.2633 117.067 49.7059 117.755 49.7059C118.443 49.7059 119 50.2633 119 50.951Z" fill="#3D4B5C"/>
<path d="M119 75.8529C119 76.5406 118.443 77.098 117.755 77.098C117.067 77.098 116.51 76.5406 116.51 75.8529C116.51 75.1653 117.067 74.6078 117.755 74.6078C118.443 74.6078 119 75.1653 119 75.8529Z" fill="#3D4B5C"/>
<path d="M119 100.755C119 101.443 118.443 102 117.755 102C117.067 102 116.51 101.443 116.51 100.755C116.51 100.067 117.067 99.5098 117.755 99.5098C118.443 99.5098 119 100.067 119 100.755Z" fill="#3D4B5C"/>
</g>
<path fill-rule="evenodd" clip-rule="evenodd" d="M301.5 887.827C343.654 887.827 377.827 853.654 377.827 811.5C377.827 769.346 343.654 735.173 301.5 735.173C259.346 735.173 225.173 769.346 225.173 811.5C225.173 853.654 259.346 887.827 301.5 887.827ZM301.5 997C403.949 997 487 913.949 487 811.5C487 709.051 403.949 626 301.5 626C199.051 626 116 709.051 116 811.5C116 913.949 199.051 997 301.5 997Z" fill="white"/>
</g>
<defs>
<clipPath id="clip0">
<rect width="320" height="820" fill="white"/>
</clipPath>
</defs>
</svg>
