<svg width="326" height="434" viewBox="0 0 326 434" fill="none" xmlns="http://www.w3.org/2000/svg">
<path d="M295 157.463C275 137.463 248.333 124.13 237.5 119.963L205 169.963L180 125.463L175.5 122.963C151.9 128.963 110 154.796 92.0001 166.963C74.5001 178.796 42.4001 210.063 54.0001 240.463C65.6001 270.863 125.5 243.463 154 225.963C152 239.163 136.833 276.796 129.5 293.963L278.5 320.463L282 314.463C300 315.963 313 304.963 322.5 282.463C332 259.963 320 182.463 295 157.463Z" fill="#8DD0B8"/>
<path d="M135.5 65.4629C138.167 56.4629 148.3 36.763 165.5 25.963C166.5 25.1297 170 25.963 176 35.963C183.5 48.463 220 98.9629 231.5 110.463C240.333 104.296 257.3 87.4629 254.5 69.4629C251 46.9629 219 -10.5371 174.5 4.46286C130 19.4629 132.5 48.463 135.5 65.4629C135.752 66.9333 135.169 67.9905 135.5 70.4629C135.5 81.9629 139 90.7911 139 100.963C139 117.963 146 136.463 168.5 127.963C191 119.463 186.5 122.963 190.5 111.963C186.333 114.796 176.4 119.763 170 116.963C162 113.463 142.5 85.4629 135.5 70.4629C135.169 67.9905 135.752 66.9333 135.5 65.4629Z" fill="#3D4B5C"/>
<path fill-rule="evenodd" clip-rule="evenodd" d="M173.519 56.5556C165.135 53.4671 159.543 57.8452 157.738 60.652C157.29 61.3488 157.492 62.2769 158.189 62.7249C158.886 63.1729 159.814 62.9711 160.262 62.2743C161.457 60.4144 165.665 56.8592 172.481 59.3706C173.259 59.657 174.121 59.259 174.408 58.4817C174.694 57.7043 174.296 56.842 173.519 56.5556ZM135.072 57.922C134.828 57.1656 135.219 56.3432 135.97 56.0596C136.746 55.7671 137.611 56.1583 137.903 56.9334C137.988 57.1575 138.028 57.3963 138.05 57.5446C138.076 57.7237 138.098 57.9281 138.117 58.1435C138.154 58.5758 138.183 59.1181 138.208 59.72C138.257 60.9034 138.291 62.3859 138.325 63.8535L138.327 63.9375C138.35 64.9409 138.373 65.9346 138.4 66.8318C140.256 65.3158 142.974 63.9631 146.5 63.9631C147.328 63.9631 148 64.6347 148 65.4631C148 66.2915 147.328 66.9631 146.5 66.9631C142.543 66.9631 139.942 69.1898 138.847 70.6348C143.695 82.6659 149.338 92.8361 155.033 100.532C160.872 108.424 166.655 113.565 171.568 115.575C175.264 117.087 180.195 115.646 185.231 112.705C190.165 109.824 194.73 105.775 197.409 102.934C197.977 102.331 198.926 102.303 199.529 102.872C200.132 103.44 200.16 104.389 199.591 104.992C196.77 107.984 191.985 112.235 186.744 115.296C181.605 118.297 175.537 120.44 170.432 118.351C164.765 116.033 158.58 110.37 152.621 102.317C146.632 94.2227 140.759 83.5615 135.769 71.0176C135.677 70.7866 135.635 70.5409 135.612 70.3943C135.584 70.2146 135.562 70.0099 135.543 69.795C135.504 69.3635 135.474 68.8221 135.448 68.2213C135.397 67.0173 135.362 65.5017 135.327 64.0063L135.326 63.9425C135.292 62.4593 135.259 60.9997 135.211 59.8443C135.186 59.2572 135.159 58.7663 135.127 58.3996C135.112 58.2154 135.096 58.0788 135.082 57.9851C135.078 57.9555 135.074 57.9349 135.072 57.922ZM156.206 72.4921C155.394 72.6546 154.867 73.4448 155.029 74.2571C155.861 78.4145 157.5 88.2227 157.5 94.463C157.5 95.6499 158.147 97.1372 159.886 97.772C161.479 98.3537 163.676 98.091 166.591 96.8417C167.352 96.5154 167.705 95.6335 167.379 94.8721C167.052 94.1106 166.171 93.7579 165.409 94.0842C162.724 95.235 161.421 95.1389 160.914 94.9539C160.553 94.8221 160.5 94.6094 160.5 94.463C160.5 87.9033 158.806 77.8448 157.971 73.6688C157.808 72.8565 157.018 72.3296 156.206 72.4921ZM179.591 91.5842C178.829 91.2579 177.948 91.6106 177.621 92.3721C177.173 93.4186 176.249 95.0849 174.985 96.5632C173.7 98.0657 172.225 99.1883 170.706 99.4921C169.894 99.6546 169.367 100.445 169.529 101.257C169.692 102.069 170.482 102.596 171.294 102.434C173.775 101.938 175.8 100.227 177.265 98.5127C178.751 96.7744 179.827 94.8407 180.379 93.5538C180.705 92.7924 180.352 91.9106 179.591 91.5842ZM230.089 109.272C229.431 109.775 229.305 110.716 229.809 111.374L235.682 119.055L205.543 168.032L180.3 124.214C179.886 123.497 178.969 123.25 178.251 123.663C177.533 124.077 177.287 124.994 177.7 125.712L204.2 171.712C204.464 172.17 204.95 172.455 205.478 172.463C206.007 172.471 206.5 172.199 206.778 171.749L238.778 119.749C239.103 119.22 239.069 118.545 238.692 118.052L232.192 109.552C231.688 108.894 230.747 108.768 230.089 109.272ZM231.433 179.03C239.225 183.274 245.718 189.979 249.29 194.85C249.317 194.886 249.345 194.921 249.374 194.954L289.341 240.34L274.148 293.719C260.117 264.211 235.037 213.684 223.842 191.292C223.519 190.647 222.782 190.323 222.088 190.521C220.583 190.951 217.365 192.242 214.057 193.63C210.708 195.035 207.148 196.589 204.891 197.592C204.134 197.929 203.793 198.815 204.129 199.572C204.466 200.329 205.352 200.67 206.109 200.334C208.352 199.337 211.892 197.791 215.218 196.396C217.798 195.314 220.182 194.351 221.738 193.794C233.69 217.71 259.772 270.288 273.144 298.604C273.411 299.169 274 299.509 274.623 299.458C275.246 299.407 275.772 298.975 275.943 298.374L291.698 243.017L308.374 261.954C308.922 262.576 309.87 262.636 310.491 262.089C311.113 261.541 311.173 260.594 310.626 259.972L251.67 193.022C247.901 187.898 241.113 180.886 232.867 176.396C224.573 171.878 214.589 169.816 204.784 175.145C196.124 179.852 190.047 183.586 185.641 186.664C178.258 191.822 175.576 195.137 173.316 198.042C172.807 198.696 172.925 199.639 173.579 200.147C174.233 200.656 175.175 200.538 175.684 199.884C176.906 198.313 178.247 196.618 180.531 194.511C179.831 196.117 179.332 197.573 179.056 198.558C178.832 199.356 179.298 200.184 180.095 200.408C180.893 200.631 181.721 200.165 181.944 199.368C182.254 198.264 182.921 196.369 183.897 194.375C184.86 192.408 186.074 190.447 187.465 189.049C191.742 186.069 197.688 182.416 206.216 177.781C214.811 173.11 223.661 174.798 231.433 179.03ZM197.061 188.402C196.475 187.817 195.525 187.817 194.939 188.402L185.439 197.902C184.854 198.488 184.854 199.438 185.439 200.024C186.025 200.61 186.975 200.61 187.561 200.024L197.061 190.524C197.646 189.938 197.646 188.988 197.061 188.402ZM122.471 206.169C122.308 205.357 121.518 204.83 120.706 204.992C119.894 205.155 119.367 205.945 119.529 206.757C119.939 208.807 120.643 210.442 121.651 211.742C122.663 213.047 123.918 213.933 125.309 214.575C126.68 215.208 128.199 215.61 129.755 215.945C130.515 216.109 131.306 216.261 132.103 216.414L132.167 216.426C132.992 216.585 133.829 216.746 134.686 216.93C136.262 217.268 137.666 217.863 139.267 218.605C139.52 218.722 139.777 218.843 140.041 218.967C141.427 219.617 142.979 220.346 144.807 221C149.223 222.582 155.189 223.722 165.115 222.959C181.248 221.718 191.536 212.113 194.748 207.295C195.208 206.606 195.021 205.675 194.332 205.215C193.643 204.756 192.712 204.942 192.252 205.631C189.464 209.813 179.952 218.809 164.885 219.968C155.311 220.704 149.777 219.594 145.818 218.176C144.136 217.573 142.726 216.912 141.342 216.263C141.071 216.136 140.801 216.009 140.53 215.884C138.896 215.126 137.238 214.409 135.314 213.996C134.422 213.805 133.555 213.638 132.733 213.48L132.687 213.471C131.877 213.316 131.115 213.169 130.386 213.012C128.895 212.691 127.633 212.343 126.566 211.851C125.519 211.368 124.681 210.755 124.021 209.903C123.358 209.047 122.811 207.869 122.471 206.169ZM167.832 205.215C167.143 204.756 166.212 204.942 165.752 205.631C165.17 206.504 163.947 207.968 162.252 209.351C160.558 210.732 158.471 211.969 156.163 212.502C155.356 212.688 154.852 213.493 155.038 214.3C155.225 215.108 156.03 215.611 156.837 215.425C159.729 214.757 162.225 213.244 164.148 211.675C166.07 210.108 167.497 208.422 168.248 207.295C168.708 206.606 168.521 205.675 167.832 205.215ZM181.521 205.364C180.914 204.8 179.965 204.835 179.401 205.442C178.363 206.561 176.515 208.361 174.396 210.071C172.252 211.8 169.95 213.34 167.987 214.053C167.209 214.337 166.807 215.197 167.09 215.976C167.373 216.754 168.234 217.156 169.013 216.873C171.45 215.986 174.064 214.193 176.279 212.405C178.519 210.599 180.471 208.699 181.599 207.484C182.163 206.877 182.128 205.928 181.521 205.364ZM130.269 291.988C129.652 291.875 129.03 292.158 128.71 292.698C116.77 312.829 98.7474 363.448 104.303 427.467C104.375 428.292 105.102 428.903 105.927 428.831C106.752 428.76 107.363 428.033 107.292 427.207C101.873 364.764 119.14 315.32 130.765 295.127L276.976 321.801C288.45 346.106 297.707 391.821 303.35 427.571C303.48 428.389 304.248 428.948 305.066 428.819C305.884 428.689 306.443 427.921 306.314 427.103C300.627 391.075 291.198 344.393 279.351 319.812C279.143 319.38 278.741 319.074 278.269 318.988L130.269 291.988ZM176.175 398.953C178.156 398.72 184.389 400.165 188.611 410.529C189.352 412.349 190.267 414.863 191.3 417.874L187.143 426.698C186.79 427.447 187.111 428.341 187.861 428.694C188.61 429.047 189.504 428.726 189.857 427.976L192.682 421.98C193.289 423.815 193.922 425.764 194.571 427.794C194.824 428.583 195.668 429.018 196.457 428.766C197.246 428.513 197.681 427.669 197.429 426.88C196.339 423.474 195.293 420.287 194.336 417.479C193.216 414.197 192.21 411.413 191.389 409.397C186.812 398.161 179.511 395.54 175.825 395.973C175.002 396.07 174.414 396.816 174.51 397.638C174.607 398.461 175.353 399.05 176.175 398.953Z" fill="#3D4B5C"/>
<path d="M207 205.463L203 198.963H144L116 136.463H4.00006L37.5001 205.463H207Z" fill="#3D4B5C"/>
<path d="M168 73.4629C168 74.5675 168.895 75.4629 170 75.4629C171.105 75.4629 172 74.5675 172 73.4629C172 72.3583 171.105 71.4629 170 71.4629C168.895 71.4629 168 72.3583 168 73.4629Z" fill="#3D4B5C"/>
<path d="M149 77.4629C149 78.5675 149.895 79.4629 151 79.4629C152.105 79.4629 153 78.5675 153 77.4629C153 76.3583 152.105 75.4629 151 75.4629C149.895 75.4629 149 76.3583 149 77.4629Z" fill="#3D4B5C"/>
</svg>
