<svg width="1920" height="950" viewBox="0 0 1920 950" fill="none" xmlns="http://www.w3.org/2000/svg">
<g clip-path="url(#clip0)">
<path fill-rule="evenodd" clip-rule="evenodd" d="M331.5 232C438.919 232 526 144.919 526 37.5C526 -69.9194 438.919 -157 331.5 -157C224.081 -157 137 -69.9194 137 37.5C137 144.919 224.081 232 331.5 232ZM331.5 463C566.497 463 757 272.497 757 37.5C757 -197.497 566.497 -388 331.5 -388C96.5028 -388 -94 -197.497 -94 37.5C-94 272.497 96.5028 463 331.5 463Z" fill="white"/>
<path fill-rule="evenodd" clip-rule="evenodd" d="M1823 726.5C1685.2 726.5 1573.5 838.205 1573.5 976L1352.5 976C1352.5 716.15 1563.15 505.5 1823 505.5L1823 726.5Z" fill="white"/>
<g opacity="0.5">
<path d="M1401.49 158.245C1401.49 158.933 1400.93 159.49 1400.25 159.49C1399.56 159.49 1399 158.933 1399 158.245C1399 157.557 1399.56 157 1400.25 157C1400.93 157 1401.49 157.557 1401.49 158.245Z" fill="#3D4B5C"/>
<path d="M1401.49 183.147C1401.49 183.835 1400.93 184.392 1400.25 184.392C1399.56 184.392 1399 183.835 1399 183.147C1399 182.459 1399.56 181.902 1400.25 181.902C1400.93 181.902 1401.49 182.459 1401.49 183.147Z" fill="#3D4B5C"/>
<path d="M1401.49 208.049C1401.49 208.737 1400.93 209.294 1400.25 209.294C1399.56 209.294 1399 208.737 1399 208.049C1399 207.361 1399.56 206.804 1400.25 206.804C1400.93 206.804 1401.49 207.361 1401.49 208.049Z" fill="#3D4B5C"/>
<path d="M1401.49 232.951C1401.49 233.639 1400.93 234.196 1400.25 234.196C1399.56 234.196 1399 233.639 1399 232.951C1399 232.263 1399.56 231.706 1400.25 231.706C1400.93 231.706 1401.49 232.263 1401.49 232.951Z" fill="#3D4B5C"/>
<path d="M1401.49 257.853C1401.49 258.541 1400.93 259.098 1400.25 259.098C1399.56 259.098 1399 258.541 1399 257.853C1399 257.165 1399.56 256.608 1400.25 256.608C1400.93 256.608 1401.49 257.165 1401.49 257.853Z" fill="#3D4B5C"/>
<path d="M1401.49 282.755C1401.49 283.443 1400.93 284 1400.25 284C1399.56 284 1399 283.443 1399 282.755C1399 282.067 1399.56 281.51 1400.25 281.51C1400.93 281.51 1401.49 282.067 1401.49 282.755Z" fill="#3D4B5C"/>
<path d="M1426.39 158.245C1426.39 158.933 1425.83 159.49 1425.15 159.49C1424.46 159.49 1423.9 158.933 1423.9 158.245C1423.9 157.557 1424.46 157 1425.15 157C1425.83 157 1426.39 157.557 1426.39 158.245Z" fill="#3D4B5C"/>
<path d="M1426.39 183.147C1426.39 183.835 1425.83 184.392 1425.15 184.392C1424.46 184.392 1423.9 183.835 1423.9 183.147C1423.9 182.459 1424.46 181.902 1425.15 181.902C1425.83 181.902 1426.39 182.459 1426.39 183.147Z" fill="#3D4B5C"/>
<path d="M1426.39 208.049C1426.39 208.737 1425.83 209.294 1425.15 209.294C1424.46 209.294 1423.9 208.737 1423.9 208.049C1423.9 207.361 1424.46 206.804 1425.15 206.804C1425.83 206.804 1426.39 207.361 1426.39 208.049Z" fill="#3D4B5C"/>
<path d="M1426.39 232.951C1426.39 233.639 1425.83 234.196 1425.15 234.196C1424.46 234.196 1423.9 233.639 1423.9 232.951C1423.9 232.263 1424.46 231.706 1425.15 231.706C1425.83 231.706 1426.39 232.263 1426.39 232.951Z" fill="#3D4B5C"/>
<path d="M1426.39 257.853C1426.39 258.541 1425.83 259.098 1425.15 259.098C1424.46 259.098 1423.9 258.541 1423.9 257.853C1423.9 257.165 1424.46 256.608 1425.15 256.608C1425.83 256.608 1426.39 257.165 1426.39 257.853Z" fill="#3D4B5C"/>
<path d="M1426.39 282.755C1426.39 283.443 1425.83 284 1425.15 284C1424.46 284 1423.9 283.443 1423.9 282.755C1423.9 282.067 1424.46 281.51 1425.15 281.51C1425.83 281.51 1426.39 282.067 1426.39 282.755Z" fill="#3D4B5C"/>
<path d="M1451.29 158.245C1451.29 158.933 1450.74 159.49 1450.05 159.49C1449.36 159.49 1448.8 158.933 1448.8 158.245C1448.8 157.557 1449.36 157 1450.05 157C1450.74 157 1451.29 157.557 1451.29 158.245Z" fill="#3D4B5C"/>
<path d="M1451.29 183.147C1451.29 183.835 1450.74 184.392 1450.05 184.392C1449.36 184.392 1448.8 183.835 1448.8 183.147C1448.8 182.459 1449.36 181.902 1450.05 181.902C1450.74 181.902 1451.29 182.459 1451.29 183.147Z" fill="#3D4B5C"/>
<path d="M1451.29 208.049C1451.29 208.737 1450.74 209.294 1450.05 209.294C1449.36 209.294 1448.8 208.737 1448.8 208.049C1448.8 207.361 1449.36 206.804 1450.05 206.804C1450.74 206.804 1451.29 207.361 1451.29 208.049Z" fill="#3D4B5C"/>
<path d="M1451.29 232.951C1451.29 233.639 1450.74 234.196 1450.05 234.196C1449.36 234.196 1448.8 233.639 1448.8 232.951C1448.8 232.263 1449.36 231.706 1450.05 231.706C1450.74 231.706 1451.29 232.263 1451.29 232.951Z" fill="#3D4B5C"/>
<path d="M1451.29 257.853C1451.29 258.541 1450.74 259.098 1450.05 259.098C1449.36 259.098 1448.8 258.541 1448.8 257.853C1448.8 257.165 1449.36 256.608 1450.05 256.608C1450.74 256.608 1451.29 257.165 1451.29 257.853Z" fill="#3D4B5C"/>
<path d="M1451.29 282.755C1451.29 283.443 1450.74 284 1450.05 284C1449.36 284 1448.8 283.443 1448.8 282.755C1448.8 282.067 1449.36 281.51 1450.05 281.51C1450.74 281.51 1451.29 282.067 1451.29 282.755Z" fill="#3D4B5C"/>
<path d="M1476.2 158.245C1476.2 158.933 1475.64 159.49 1474.95 159.49C1474.26 159.49 1473.71 158.933 1473.71 158.245C1473.71 157.557 1474.26 157 1474.95 157C1475.64 157 1476.2 157.557 1476.2 158.245Z" fill="#3D4B5C"/>
<path d="M1476.2 183.147C1476.2 183.835 1475.64 184.392 1474.95 184.392C1474.26 184.392 1473.71 183.835 1473.71 183.147C1473.71 182.459 1474.26 181.902 1474.95 181.902C1475.64 181.902 1476.2 182.459 1476.2 183.147Z" fill="#3D4B5C"/>
<path d="M1476.2 208.049C1476.2 208.737 1475.64 209.294 1474.95 209.294C1474.26 209.294 1473.71 208.737 1473.71 208.049C1473.71 207.361 1474.26 206.804 1474.95 206.804C1475.64 206.804 1476.2 207.361 1476.2 208.049Z" fill="#3D4B5C"/>
<path d="M1476.2 232.951C1476.2 233.639 1475.64 234.196 1474.95 234.196C1474.26 234.196 1473.71 233.639 1473.71 232.951C1473.71 232.263 1474.26 231.706 1474.95 231.706C1475.64 231.706 1476.2 232.263 1476.2 232.951Z" fill="#3D4B5C"/>
<path d="M1476.2 257.853C1476.2 258.541 1475.64 259.098 1474.95 259.098C1474.26 259.098 1473.71 258.541 1473.71 257.853C1473.71 257.165 1474.26 256.608 1474.95 256.608C1475.64 256.608 1476.2 257.165 1476.2 257.853Z" fill="#3D4B5C"/>
<path d="M1476.2 282.755C1476.2 283.443 1475.64 284 1474.95 284C1474.26 284 1473.71 283.443 1473.71 282.755C1473.71 282.067 1474.26 281.51 1474.95 281.51C1475.64 281.51 1476.2 282.067 1476.2 282.755Z" fill="#3D4B5C"/>
<path d="M1501.1 158.245C1501.1 158.933 1500.54 159.49 1499.85 159.49C1499.17 159.49 1498.61 158.933 1498.61 158.245C1498.61 157.557 1499.17 157 1499.85 157C1500.54 157 1501.1 157.557 1501.1 158.245Z" fill="#3D4B5C"/>
<path d="M1501.1 183.147C1501.1 183.835 1500.54 184.392 1499.85 184.392C1499.17 184.392 1498.61 183.835 1498.61 183.147C1498.61 182.459 1499.17 181.902 1499.85 181.902C1500.54 181.902 1501.1 182.459 1501.1 183.147Z" fill="#3D4B5C"/>
<path d="M1501.1 208.049C1501.1 208.737 1500.54 209.294 1499.85 209.294C1499.17 209.294 1498.61 208.737 1498.61 208.049C1498.61 207.361 1499.17 206.804 1499.85 206.804C1500.54 206.804 1501.1 207.361 1501.1 208.049Z" fill="#3D4B5C"/>
<path d="M1501.1 232.951C1501.1 233.639 1500.54 234.196 1499.85 234.196C1499.17 234.196 1498.61 233.639 1498.61 232.951C1498.61 232.263 1499.17 231.706 1499.85 231.706C1500.54 231.706 1501.1 232.263 1501.1 232.951Z" fill="#3D4B5C"/>
<path d="M1501.1 257.853C1501.1 258.541 1500.54 259.098 1499.85 259.098C1499.17 259.098 1498.61 258.541 1498.61 257.853C1498.61 257.165 1499.17 256.608 1499.85 256.608C1500.54 256.608 1501.1 257.165 1501.1 257.853Z" fill="#3D4B5C"/>
<path d="M1501.1 282.755C1501.1 283.443 1500.54 284 1499.85 284C1499.17 284 1498.61 283.443 1498.61 282.755C1498.61 282.067 1499.17 281.51 1499.85 281.51C1500.54 281.51 1501.1 282.067 1501.1 282.755Z" fill="#3D4B5C"/>
<path d="M1526 158.245C1526 158.933 1525.44 159.49 1524.75 159.49C1524.07 159.49 1523.51 158.933 1523.51 158.245C1523.51 157.557 1524.07 157 1524.75 157C1525.44 157 1526 157.557 1526 158.245Z" fill="#3D4B5C"/>
<path d="M1526 183.147C1526 183.835 1525.44 184.392 1524.75 184.392C1524.07 184.392 1523.51 183.835 1523.51 183.147C1523.51 182.459 1524.07 181.902 1524.75 181.902C1525.44 181.902 1526 182.459 1526 183.147Z" fill="#3D4B5C"/>
<path d="M1526 208.049C1526 208.737 1525.44 209.294 1524.75 209.294C1524.07 209.294 1523.51 208.737 1523.51 208.049C1523.51 207.361 1524.07 206.804 1524.75 206.804C1525.44 206.804 1526 207.361 1526 208.049Z" fill="#3D4B5C"/>
<path d="M1526 232.951C1526 233.639 1525.44 234.196 1524.75 234.196C1524.07 234.196 1523.51 233.639 1523.51 232.951C1523.51 232.263 1524.07 231.706 1524.75 231.706C1525.44 231.706 1526 232.263 1526 232.951Z" fill="#3D4B5C"/>
<path d="M1526 257.853C1526 258.541 1525.44 259.098 1524.75 259.098C1524.07 259.098 1523.51 258.541 1523.51 257.853C1523.51 257.165 1524.07 256.608 1524.75 256.608C1525.44 256.608 1526 257.165 1526 257.853Z" fill="#3D4B5C"/>
<path d="M1526 282.755C1526 283.443 1525.44 284 1524.75 284C1524.07 284 1523.51 283.443 1523.51 282.755C1523.51 282.067 1524.07 281.51 1524.75 281.51C1525.44 281.51 1526 282.067 1526 282.755Z" fill="#3D4B5C"/>
</g>
<g opacity="0.5">
<path d="M393.49 741.245C393.49 741.933 392.933 742.49 392.245 742.49C391.557 742.49 391 741.933 391 741.245C391 740.557 391.557 740 392.245 740C392.933 740 393.49 740.557 393.49 741.245Z" fill="#3D4B5C"/>
<path d="M393.49 766.147C393.49 766.835 392.933 767.392 392.245 767.392C391.557 767.392 391 766.835 391 766.147C391 765.459 391.557 764.902 392.245 764.902C392.933 764.902 393.49 765.459 393.49 766.147Z" fill="#3D4B5C"/>
<path d="M393.49 791.049C393.49 791.737 392.933 792.294 392.245 792.294C391.557 792.294 391 791.737 391 791.049C391 790.361 391.557 789.804 392.245 789.804C392.933 789.804 393.49 790.361 393.49 791.049Z" fill="#3D4B5C"/>
<path d="M393.49 815.951C393.49 816.639 392.933 817.196 392.245 817.196C391.557 817.196 391 816.639 391 815.951C391 815.263 391.557 814.706 392.245 814.706C392.933 814.706 393.49 815.263 393.49 815.951Z" fill="#3D4B5C"/>
<path d="M393.49 840.853C393.49 841.541 392.933 842.098 392.245 842.098C391.557 842.098 391 841.541 391 840.853C391 840.165 391.557 839.608 392.245 839.608C392.933 839.608 393.49 840.165 393.49 840.853Z" fill="#3D4B5C"/>
<path d="M393.49 865.755C393.49 866.443 392.933 867 392.245 867C391.557 867 391 866.443 391 865.755C391 865.067 391.557 864.51 392.245 864.51C392.933 864.51 393.49 865.067 393.49 865.755Z" fill="#3D4B5C"/>
<path d="M418.392 741.245C418.392 741.933 417.835 742.49 417.147 742.49C416.459 742.49 415.902 741.933 415.902 741.245C415.902 740.557 416.459 740 417.147 740C417.835 740 418.392 740.557 418.392 741.245Z" fill="#3D4B5C"/>
<path d="M418.392 766.147C418.392 766.835 417.835 767.392 417.147 767.392C416.459 767.392 415.902 766.835 415.902 766.147C415.902 765.459 416.459 764.902 417.147 764.902C417.835 764.902 418.392 765.459 418.392 766.147Z" fill="#3D4B5C"/>
<path d="M418.392 791.049C418.392 791.737 417.835 792.294 417.147 792.294C416.459 792.294 415.902 791.737 415.902 791.049C415.902 790.361 416.459 789.804 417.147 789.804C417.835 789.804 418.392 790.361 418.392 791.049Z" fill="#3D4B5C"/>
<path d="M418.392 815.951C418.392 816.639 417.835 817.196 417.147 817.196C416.459 817.196 415.902 816.639 415.902 815.951C415.902 815.263 416.459 814.706 417.147 814.706C417.835 814.706 418.392 815.263 418.392 815.951Z" fill="#3D4B5C"/>
<path d="M418.392 840.853C418.392 841.541 417.835 842.098 417.147 842.098C416.459 842.098 415.902 841.541 415.902 840.853C415.902 840.165 416.459 839.608 417.147 839.608C417.835 839.608 418.392 840.165 418.392 840.853Z" fill="#3D4B5C"/>
<path d="M418.392 865.755C418.392 866.443 417.835 867 417.147 867C416.459 867 415.902 866.443 415.902 865.755C415.902 865.067 416.459 864.51 417.147 864.51C417.835 864.51 418.392 865.067 418.392 865.755Z" fill="#3D4B5C"/>
<path d="M443.294 741.245C443.294 741.933 442.737 742.49 442.049 742.49C441.361 742.49 440.804 741.933 440.804 741.245C440.804 740.557 441.361 740 442.049 740C442.737 740 443.294 740.557 443.294 741.245Z" fill="#3D4B5C"/>
<path d="M443.294 766.147C443.294 766.835 442.737 767.392 442.049 767.392C441.361 767.392 440.804 766.835 440.804 766.147C440.804 765.459 441.361 764.902 442.049 764.902C442.737 764.902 443.294 765.459 443.294 766.147Z" fill="#3D4B5C"/>
<path d="M443.294 791.049C443.294 791.737 442.737 792.294 442.049 792.294C441.361 792.294 440.804 791.737 440.804 791.049C440.804 790.361 441.361 789.804 442.049 789.804C442.737 789.804 443.294 790.361 443.294 791.049Z" fill="#3D4B5C"/>
<path d="M443.294 815.951C443.294 816.639 442.737 817.196 442.049 817.196C441.361 817.196 440.804 816.639 440.804 815.951C440.804 815.263 441.361 814.706 442.049 814.706C442.737 814.706 443.294 815.263 443.294 815.951Z" fill="#3D4B5C"/>
<path d="M443.294 840.853C443.294 841.541 442.737 842.098 442.049 842.098C441.361 842.098 440.804 841.541 440.804 840.853C440.804 840.165 441.361 839.608 442.049 839.608C442.737 839.608 443.294 840.165 443.294 840.853Z" fill="#3D4B5C"/>
<path d="M443.294 865.755C443.294 866.443 442.737 867 442.049 867C441.361 867 440.804 866.443 440.804 865.755C440.804 865.067 441.361 864.51 442.049 864.51C442.737 864.51 443.294 865.067 443.294 865.755Z" fill="#3D4B5C"/>
<path d="M468.196 741.245C468.196 741.933 467.639 742.49 466.951 742.49C466.263 742.49 465.706 741.933 465.706 741.245C465.706 740.557 466.263 740 466.951 740C467.639 740 468.196 740.557 468.196 741.245Z" fill="#3D4B5C"/>
<path d="M468.196 766.147C468.196 766.835 467.639 767.392 466.951 767.392C466.263 767.392 465.706 766.835 465.706 766.147C465.706 765.459 466.263 764.902 466.951 764.902C467.639 764.902 468.196 765.459 468.196 766.147Z" fill="#3D4B5C"/>
<path d="M468.196 791.049C468.196 791.737 467.639 792.294 466.951 792.294C466.263 792.294 465.706 791.737 465.706 791.049C465.706 790.361 466.263 789.804 466.951 789.804C467.639 789.804 468.196 790.361 468.196 791.049Z" fill="#3D4B5C"/>
<path d="M468.196 815.951C468.196 816.639 467.639 817.196 466.951 817.196C466.263 817.196 465.706 816.639 465.706 815.951C465.706 815.263 466.263 814.706 466.951 814.706C467.639 814.706 468.196 815.263 468.196 815.951Z" fill="#3D4B5C"/>
<path d="M468.196 840.853C468.196 841.541 467.639 842.098 466.951 842.098C466.263 842.098 465.706 841.541 465.706 840.853C465.706 840.165 466.263 839.608 466.951 839.608C467.639 839.608 468.196 840.165 468.196 840.853Z" fill="#3D4B5C"/>
<path d="M468.196 865.755C468.196 866.443 467.639 867 466.951 867C466.263 867 465.706 866.443 465.706 865.755C465.706 865.067 466.263 864.51 466.951 864.51C467.639 864.51 468.196 865.067 468.196 865.755Z" fill="#3D4B5C"/>
<path d="M493.098 741.245C493.098 741.933 492.541 742.49 491.853 742.49C491.165 742.49 490.608 741.933 490.608 741.245C490.608 740.557 491.165 740 491.853 740C492.541 740 493.098 740.557 493.098 741.245Z" fill="#3D4B5C"/>
<path d="M493.098 766.147C493.098 766.835 492.541 767.392 491.853 767.392C491.165 767.392 490.608 766.835 490.608 766.147C490.608 765.459 491.165 764.902 491.853 764.902C492.541 764.902 493.098 765.459 493.098 766.147Z" fill="#3D4B5C"/>
<path d="M493.098 791.049C493.098 791.737 492.541 792.294 491.853 792.294C491.165 792.294 490.608 791.737 490.608 791.049C490.608 790.361 491.165 789.804 491.853 789.804C492.541 789.804 493.098 790.361 493.098 791.049Z" fill="#3D4B5C"/>
<path d="M493.098 815.951C493.098 816.639 492.541 817.196 491.853 817.196C491.165 817.196 490.608 816.639 490.608 815.951C490.608 815.263 491.165 814.706 491.853 814.706C492.541 814.706 493.098 815.263 493.098 815.951Z" fill="#3D4B5C"/>
<path d="M493.098 840.853C493.098 841.541 492.541 842.098 491.853 842.098C491.165 842.098 490.608 841.541 490.608 840.853C490.608 840.165 491.165 839.608 491.853 839.608C492.541 839.608 493.098 840.165 493.098 840.853Z" fill="#3D4B5C"/>
<path d="M493.098 865.755C493.098 866.443 492.541 867 491.853 867C491.165 867 490.608 866.443 490.608 865.755C490.608 865.067 491.165 864.51 491.853 864.51C492.541 864.51 493.098 865.067 493.098 865.755Z" fill="#3D4B5C"/>
<path d="M518 741.245C518 741.933 517.443 742.49 516.755 742.49C516.067 742.49 515.51 741.933 515.51 741.245C515.51 740.557 516.067 740 516.755 740C517.443 740 518 740.557 518 741.245Z" fill="#3D4B5C"/>
<path d="M518 766.147C518 766.835 517.443 767.392 516.755 767.392C516.067 767.392 515.51 766.835 515.51 766.147C515.51 765.459 516.067 764.902 516.755 764.902C517.443 764.902 518 765.459 518 766.147Z" fill="#3D4B5C"/>
<path d="M518 791.049C518 791.737 517.443 792.294 516.755 792.294C516.067 792.294 515.51 791.737 515.51 791.049C515.51 790.361 516.067 789.804 516.755 789.804C517.443 789.804 518 790.361 518 791.049Z" fill="#3D4B5C"/>
<path d="M518 815.951C518 816.639 517.443 817.196 516.755 817.196C516.067 817.196 515.51 816.639 515.51 815.951C515.51 815.263 516.067 814.706 516.755 814.706C517.443 814.706 518 815.263 518 815.951Z" fill="#3D4B5C"/>
<path d="M518 840.853C518 841.541 517.443 842.098 516.755 842.098C516.067 842.098 515.51 841.541 515.51 840.853C515.51 840.165 516.067 839.608 516.755 839.608C517.443 839.608 518 840.165 518 840.853Z" fill="#3D4B5C"/>
<path d="M518 865.755C518 866.443 517.443 867 516.755 867C516.067 867 515.51 866.443 515.51 865.755C515.51 865.067 516.067 864.51 516.755 864.51C517.443 864.51 518 865.067 518 865.755Z" fill="#3D4B5C"/>
</g>
</g>
<defs>
<clipPath id="clip0">
<rect width="1920" height="950" fill="white"/>
</clipPath>
</defs>
</svg>
