<svg width="780" height="568" viewBox="0 0 780 568" fill="none" xmlns="http://www.w3.org/2000/svg">
<g clip-path="url(#clip0)">
<path d="M0 0H780V568H0V0Z" fill="#F4F7FA"/>
<g opacity="0.5">
<path d="M505.49 73.2451C505.49 73.9327 504.933 74.4902 504.245 74.4902C503.557 74.4902 503 73.9327 503 73.2451C503 72.5574 503.557 72 504.245 72C504.933 72 505.49 72.5574 505.49 73.2451Z" fill="#3D4B5C"/>
<path d="M505.49 98.1471C505.49 98.8347 504.933 99.3922 504.245 99.3922C503.557 99.3922 503 98.8347 503 98.1471C503 97.4594 503.557 96.902 504.245 96.902C504.933 96.902 505.49 97.4594 505.49 98.1471Z" fill="#3D4B5C"/>
<path d="M505.49 123.049C505.49 123.737 504.933 124.294 504.245 124.294C503.557 124.294 503 123.737 503 123.049C503 122.361 503.557 121.804 504.245 121.804C504.933 121.804 505.49 122.361 505.49 123.049Z" fill="#3D4B5C"/>
<path d="M505.49 147.951C505.49 148.639 504.933 149.196 504.245 149.196C503.557 149.196 503 148.639 503 147.951C503 147.263 503.557 146.706 504.245 146.706C504.933 146.706 505.49 147.263 505.49 147.951Z" fill="#3D4B5C"/>
<path d="M505.49 172.853C505.49 173.541 504.933 174.098 504.245 174.098C503.557 174.098 503 173.541 503 172.853C503 172.165 503.557 171.608 504.245 171.608C504.933 171.608 505.49 172.165 505.49 172.853Z" fill="#3D4B5C"/>
<path d="M505.49 197.755C505.49 198.443 504.933 199 504.245 199C503.557 199 503 198.443 503 197.755C503 197.067 503.557 196.51 504.245 196.51C504.933 196.51 505.49 197.067 505.49 197.755Z" fill="#3D4B5C"/>
<path d="M530.392 73.2451C530.392 73.9327 529.835 74.4902 529.147 74.4902C528.459 74.4902 527.902 73.9327 527.902 73.2451C527.902 72.5574 528.459 72 529.147 72C529.835 72 530.392 72.5574 530.392 73.2451Z" fill="#3D4B5C"/>
<path d="M530.392 98.1471C530.392 98.8347 529.835 99.3922 529.147 99.3922C528.459 99.3922 527.902 98.8347 527.902 98.1471C527.902 97.4594 528.459 96.902 529.147 96.902C529.835 96.902 530.392 97.4594 530.392 98.1471Z" fill="#3D4B5C"/>
<path d="M530.392 123.049C530.392 123.737 529.835 124.294 529.147 124.294C528.459 124.294 527.902 123.737 527.902 123.049C527.902 122.361 528.459 121.804 529.147 121.804C529.835 121.804 530.392 122.361 530.392 123.049Z" fill="#3D4B5C"/>
<path d="M530.392 147.951C530.392 148.639 529.835 149.196 529.147 149.196C528.459 149.196 527.902 148.639 527.902 147.951C527.902 147.263 528.459 146.706 529.147 146.706C529.835 146.706 530.392 147.263 530.392 147.951Z" fill="#3D4B5C"/>
<path d="M530.392 172.853C530.392 173.541 529.835 174.098 529.147 174.098C528.459 174.098 527.902 173.541 527.902 172.853C527.902 172.165 528.459 171.608 529.147 171.608C529.835 171.608 530.392 172.165 530.392 172.853Z" fill="#3D4B5C"/>
<path d="M530.392 197.755C530.392 198.443 529.835 199 529.147 199C528.459 199 527.902 198.443 527.902 197.755C527.902 197.067 528.459 196.51 529.147 196.51C529.835 196.51 530.392 197.067 530.392 197.755Z" fill="#3D4B5C"/>
<path d="M555.294 73.2451C555.294 73.9327 554.737 74.4902 554.049 74.4902C553.361 74.4902 552.804 73.9327 552.804 73.2451C552.804 72.5574 553.361 72 554.049 72C554.737 72 555.294 72.5574 555.294 73.2451Z" fill="#3D4B5C"/>
<path d="M555.294 98.1471C555.294 98.8347 554.737 99.3922 554.049 99.3922C553.361 99.3922 552.804 98.8347 552.804 98.1471C552.804 97.4594 553.361 96.902 554.049 96.902C554.737 96.902 555.294 97.4594 555.294 98.1471Z" fill="#3D4B5C"/>
<path d="M555.294 123.049C555.294 123.737 554.737 124.294 554.049 124.294C553.361 124.294 552.804 123.737 552.804 123.049C552.804 122.361 553.361 121.804 554.049 121.804C554.737 121.804 555.294 122.361 555.294 123.049Z" fill="#3D4B5C"/>
<path d="M555.294 147.951C555.294 148.639 554.737 149.196 554.049 149.196C553.361 149.196 552.804 148.639 552.804 147.951C552.804 147.263 553.361 146.706 554.049 146.706C554.737 146.706 555.294 147.263 555.294 147.951Z" fill="#3D4B5C"/>
<path d="M555.294 172.853C555.294 173.541 554.737 174.098 554.049 174.098C553.361 174.098 552.804 173.541 552.804 172.853C552.804 172.165 553.361 171.608 554.049 171.608C554.737 171.608 555.294 172.165 555.294 172.853Z" fill="#3D4B5C"/>
<path d="M555.294 197.755C555.294 198.443 554.737 199 554.049 199C553.361 199 552.804 198.443 552.804 197.755C552.804 197.067 553.361 196.51 554.049 196.51C554.737 196.51 555.294 197.067 555.294 197.755Z" fill="#3D4B5C"/>
<path d="M580.196 73.2451C580.196 73.9327 579.639 74.4902 578.951 74.4902C578.263 74.4902 577.706 73.9327 577.706 73.2451C577.706 72.5574 578.263 72 578.951 72C579.639 72 580.196 72.5574 580.196 73.2451Z" fill="#3D4B5C"/>
<path d="M580.196 98.1471C580.196 98.8347 579.639 99.3922 578.951 99.3922C578.263 99.3922 577.706 98.8347 577.706 98.1471C577.706 97.4594 578.263 96.902 578.951 96.902C579.639 96.902 580.196 97.4594 580.196 98.1471Z" fill="#3D4B5C"/>
<path d="M580.196 123.049C580.196 123.737 579.639 124.294 578.951 124.294C578.263 124.294 577.706 123.737 577.706 123.049C577.706 122.361 578.263 121.804 578.951 121.804C579.639 121.804 580.196 122.361 580.196 123.049Z" fill="#3D4B5C"/>
<path d="M580.196 147.951C580.196 148.639 579.639 149.196 578.951 149.196C578.263 149.196 577.706 148.639 577.706 147.951C577.706 147.263 578.263 146.706 578.951 146.706C579.639 146.706 580.196 147.263 580.196 147.951Z" fill="#3D4B5C"/>
<path d="M580.196 172.853C580.196 173.541 579.639 174.098 578.951 174.098C578.263 174.098 577.706 173.541 577.706 172.853C577.706 172.165 578.263 171.608 578.951 171.608C579.639 171.608 580.196 172.165 580.196 172.853Z" fill="#3D4B5C"/>
<path d="M580.196 197.755C580.196 198.443 579.639 199 578.951 199C578.263 199 577.706 198.443 577.706 197.755C577.706 197.067 578.263 196.51 578.951 196.51C579.639 196.51 580.196 197.067 580.196 197.755Z" fill="#3D4B5C"/>
<path d="M605.098 73.2451C605.098 73.9327 604.541 74.4902 603.853 74.4902C603.165 74.4902 602.608 73.9327 602.608 73.2451C602.608 72.5574 603.165 72 603.853 72C604.541 72 605.098 72.5574 605.098 73.2451Z" fill="#3D4B5C"/>
<path d="M605.098 98.1471C605.098 98.8347 604.541 99.3922 603.853 99.3922C603.165 99.3922 602.608 98.8347 602.608 98.1471C602.608 97.4594 603.165 96.902 603.853 96.902C604.541 96.902 605.098 97.4594 605.098 98.1471Z" fill="#3D4B5C"/>
<path d="M605.098 123.049C605.098 123.737 604.541 124.294 603.853 124.294C603.165 124.294 602.608 123.737 602.608 123.049C602.608 122.361 603.165 121.804 603.853 121.804C604.541 121.804 605.098 122.361 605.098 123.049Z" fill="#3D4B5C"/>
<path d="M605.098 147.951C605.098 148.639 604.541 149.196 603.853 149.196C603.165 149.196 602.608 148.639 602.608 147.951C602.608 147.263 603.165 146.706 603.853 146.706C604.541 146.706 605.098 147.263 605.098 147.951Z" fill="#3D4B5C"/>
<path d="M605.098 172.853C605.098 173.541 604.541 174.098 603.853 174.098C603.165 174.098 602.608 173.541 602.608 172.853C602.608 172.165 603.165 171.608 603.853 171.608C604.541 171.608 605.098 172.165 605.098 172.853Z" fill="#3D4B5C"/>
<path d="M605.098 197.755C605.098 198.443 604.541 199 603.853 199C603.165 199 602.608 198.443 602.608 197.755C602.608 197.067 603.165 196.51 603.853 196.51C604.541 196.51 605.098 197.067 605.098 197.755Z" fill="#3D4B5C"/>
<path d="M630 73.2451C630 73.9327 629.443 74.4902 628.755 74.4902C628.067 74.4902 627.51 73.9327 627.51 73.2451C627.51 72.5574 628.067 72 628.755 72C629.443 72 630 72.5574 630 73.2451Z" fill="#3D4B5C"/>
<path d="M630 98.1471C630 98.8347 629.443 99.3922 628.755 99.3922C628.067 99.3922 627.51 98.8347 627.51 98.1471C627.51 97.4594 628.067 96.902 628.755 96.902C629.443 96.902 630 97.4594 630 98.1471Z" fill="#3D4B5C"/>
<path d="M630 123.049C630 123.737 629.443 124.294 628.755 124.294C628.067 124.294 627.51 123.737 627.51 123.049C627.51 122.361 628.067 121.804 628.755 121.804C629.443 121.804 630 122.361 630 123.049Z" fill="#3D4B5C"/>
<path d="M630 147.951C630 148.639 629.443 149.196 628.755 149.196C628.067 149.196 627.51 148.639 627.51 147.951C627.51 147.263 628.067 146.706 628.755 146.706C629.443 146.706 630 147.263 630 147.951Z" fill="#3D4B5C"/>
<path d="M630 172.853C630 173.541 629.443 174.098 628.755 174.098C628.067 174.098 627.51 173.541 627.51 172.853C627.51 172.165 628.067 171.608 628.755 171.608C629.443 171.608 630 172.165 630 172.853Z" fill="#3D4B5C"/>
<path d="M630 197.755C630 198.443 629.443 199 628.755 199C628.067 199 627.51 198.443 627.51 197.755C627.51 197.067 628.067 196.51 628.755 196.51C629.443 196.51 630 197.067 630 197.755Z" fill="#3D4B5C"/>
</g>
<circle cx="60.5" cy="-0.5" r="209.5" fill="white"/>
<path fill-rule="evenodd" clip-rule="evenodd" d="M802.5 684.983C859.652 684.983 905.983 638.652 905.983 581.5C905.983 524.348 859.652 478.017 802.5 478.017C745.348 478.017 699.017 524.348 699.017 581.5C699.017 638.652 745.348 684.983 802.5 684.983ZM802.5 833C941.4 833 1054 720.4 1054 581.5C1054 442.6 941.4 330 802.5 330C663.6 330 551 442.6 551 581.5C551 720.4 663.6 833 802.5 833Z" fill="white"/>
</g>
<defs>
<clipPath id="clip0">
<rect width="780" height="568" fill="white"/>
</clipPath>
</defs>
</svg>
