<svg width="780" height="901" viewBox="0 0 780 901" fill="none" xmlns="http://www.w3.org/2000/svg">
<g clip-path="url(#clip0)">
<path d="M0 0H780V901H0V0Z" fill="#F4F7FA"/>
<g opacity="0.5">
<path d="M68.4902 451.245C68.4902 451.933 67.9327 452.49 67.2451 452.49C66.5574 452.49 66 451.933 66 451.245C66 450.557 66.5574 450 67.2451 450C67.9327 450 68.4902 450.557 68.4902 451.245Z" fill="#3D4B5C"/>
<path d="M68.4902 476.147C68.4902 476.835 67.9327 477.392 67.2451 477.392C66.5574 477.392 66 476.835 66 476.147C66 475.459 66.5574 474.902 67.2451 474.902C67.9327 474.902 68.4902 475.459 68.4902 476.147Z" fill="#3D4B5C"/>
<path d="M68.4902 501.049C68.4902 501.737 67.9327 502.294 67.2451 502.294C66.5574 502.294 66 501.737 66 501.049C66 500.361 66.5574 499.804 67.2451 499.804C67.9327 499.804 68.4902 500.361 68.4902 501.049Z" fill="#3D4B5C"/>
<path d="M68.4902 525.951C68.4902 526.639 67.9327 527.196 67.2451 527.196C66.5574 527.196 66 526.639 66 525.951C66 525.263 66.5574 524.706 67.2451 524.706C67.9327 524.706 68.4902 525.263 68.4902 525.951Z" fill="#3D4B5C"/>
<path d="M68.4902 550.853C68.4902 551.541 67.9327 552.098 67.2451 552.098C66.5574 552.098 66 551.541 66 550.853C66 550.165 66.5574 549.608 67.2451 549.608C67.9327 549.608 68.4902 550.165 68.4902 550.853Z" fill="#3D4B5C"/>
<path d="M68.4902 575.755C68.4902 576.443 67.9327 577 67.2451 577C66.5574 577 66 576.443 66 575.755C66 575.067 66.5574 574.51 67.2451 574.51C67.9327 574.51 68.4902 575.067 68.4902 575.755Z" fill="#3D4B5C"/>
<path d="M93.3922 451.245C93.3922 451.933 92.8347 452.49 92.1471 452.49C91.4594 452.49 90.902 451.933 90.902 451.245C90.902 450.557 91.4594 450 92.1471 450C92.8347 450 93.3922 450.557 93.3922 451.245Z" fill="#3D4B5C"/>
<path d="M93.3922 476.147C93.3922 476.835 92.8347 477.392 92.1471 477.392C91.4594 477.392 90.902 476.835 90.902 476.147C90.902 475.459 91.4594 474.902 92.1471 474.902C92.8347 474.902 93.3922 475.459 93.3922 476.147Z" fill="#3D4B5C"/>
<path d="M93.3922 501.049C93.3922 501.737 92.8347 502.294 92.1471 502.294C91.4594 502.294 90.902 501.737 90.902 501.049C90.902 500.361 91.4594 499.804 92.1471 499.804C92.8347 499.804 93.3922 500.361 93.3922 501.049Z" fill="#3D4B5C"/>
<path d="M93.3922 525.951C93.3922 526.639 92.8347 527.196 92.1471 527.196C91.4594 527.196 90.902 526.639 90.902 525.951C90.902 525.263 91.4594 524.706 92.1471 524.706C92.8347 524.706 93.3922 525.263 93.3922 525.951Z" fill="#3D4B5C"/>
<path d="M93.3922 550.853C93.3922 551.541 92.8347 552.098 92.1471 552.098C91.4594 552.098 90.902 551.541 90.902 550.853C90.902 550.165 91.4594 549.608 92.1471 549.608C92.8347 549.608 93.3922 550.165 93.3922 550.853Z" fill="#3D4B5C"/>
<path d="M93.3922 575.755C93.3922 576.443 92.8347 577 92.1471 577C91.4594 577 90.902 576.443 90.902 575.755C90.902 575.067 91.4594 574.51 92.1471 574.51C92.8347 574.51 93.3922 575.067 93.3922 575.755Z" fill="#3D4B5C"/>
<path d="M118.294 451.245C118.294 451.933 117.737 452.49 117.049 452.49C116.361 452.49 115.804 451.933 115.804 451.245C115.804 450.557 116.361 450 117.049 450C117.737 450 118.294 450.557 118.294 451.245Z" fill="#3D4B5C"/>
<path d="M118.294 476.147C118.294 476.835 117.737 477.392 117.049 477.392C116.361 477.392 115.804 476.835 115.804 476.147C115.804 475.459 116.361 474.902 117.049 474.902C117.737 474.902 118.294 475.459 118.294 476.147Z" fill="#3D4B5C"/>
<path d="M118.294 501.049C118.294 501.737 117.737 502.294 117.049 502.294C116.361 502.294 115.804 501.737 115.804 501.049C115.804 500.361 116.361 499.804 117.049 499.804C117.737 499.804 118.294 500.361 118.294 501.049Z" fill="#3D4B5C"/>
<path d="M118.294 525.951C118.294 526.639 117.737 527.196 117.049 527.196C116.361 527.196 115.804 526.639 115.804 525.951C115.804 525.263 116.361 524.706 117.049 524.706C117.737 524.706 118.294 525.263 118.294 525.951Z" fill="#3D4B5C"/>
<path d="M118.294 550.853C118.294 551.541 117.737 552.098 117.049 552.098C116.361 552.098 115.804 551.541 115.804 550.853C115.804 550.165 116.361 549.608 117.049 549.608C117.737 549.608 118.294 550.165 118.294 550.853Z" fill="#3D4B5C"/>
<path d="M118.294 575.755C118.294 576.443 117.737 577 117.049 577C116.361 577 115.804 576.443 115.804 575.755C115.804 575.067 116.361 574.51 117.049 574.51C117.737 574.51 118.294 575.067 118.294 575.755Z" fill="#3D4B5C"/>
<path d="M143.196 451.245C143.196 451.933 142.639 452.49 141.951 452.49C141.263 452.49 140.706 451.933 140.706 451.245C140.706 450.557 141.263 450 141.951 450C142.639 450 143.196 450.557 143.196 451.245Z" fill="#3D4B5C"/>
<path d="M143.196 476.147C143.196 476.835 142.639 477.392 141.951 477.392C141.263 477.392 140.706 476.835 140.706 476.147C140.706 475.459 141.263 474.902 141.951 474.902C142.639 474.902 143.196 475.459 143.196 476.147Z" fill="#3D4B5C"/>
<path d="M143.196 501.049C143.196 501.737 142.639 502.294 141.951 502.294C141.263 502.294 140.706 501.737 140.706 501.049C140.706 500.361 141.263 499.804 141.951 499.804C142.639 499.804 143.196 500.361 143.196 501.049Z" fill="#3D4B5C"/>
<path d="M143.196 525.951C143.196 526.639 142.639 527.196 141.951 527.196C141.263 527.196 140.706 526.639 140.706 525.951C140.706 525.263 141.263 524.706 141.951 524.706C142.639 524.706 143.196 525.263 143.196 525.951Z" fill="#3D4B5C"/>
<path d="M143.196 550.853C143.196 551.541 142.639 552.098 141.951 552.098C141.263 552.098 140.706 551.541 140.706 550.853C140.706 550.165 141.263 549.608 141.951 549.608C142.639 549.608 143.196 550.165 143.196 550.853Z" fill="#3D4B5C"/>
<path d="M143.196 575.755C143.196 576.443 142.639 577 141.951 577C141.263 577 140.706 576.443 140.706 575.755C140.706 575.067 141.263 574.51 141.951 574.51C142.639 574.51 143.196 575.067 143.196 575.755Z" fill="#3D4B5C"/>
<path d="M168.098 451.245C168.098 451.933 167.541 452.49 166.853 452.49C166.165 452.49 165.608 451.933 165.608 451.245C165.608 450.557 166.165 450 166.853 450C167.541 450 168.098 450.557 168.098 451.245Z" fill="#3D4B5C"/>
<path d="M168.098 476.147C168.098 476.835 167.541 477.392 166.853 477.392C166.165 477.392 165.608 476.835 165.608 476.147C165.608 475.459 166.165 474.902 166.853 474.902C167.541 474.902 168.098 475.459 168.098 476.147Z" fill="#3D4B5C"/>
<path d="M168.098 501.049C168.098 501.737 167.541 502.294 166.853 502.294C166.165 502.294 165.608 501.737 165.608 501.049C165.608 500.361 166.165 499.804 166.853 499.804C167.541 499.804 168.098 500.361 168.098 501.049Z" fill="#3D4B5C"/>
<path d="M168.098 525.951C168.098 526.639 167.541 527.196 166.853 527.196C166.165 527.196 165.608 526.639 165.608 525.951C165.608 525.263 166.165 524.706 166.853 524.706C167.541 524.706 168.098 525.263 168.098 525.951Z" fill="#3D4B5C"/>
<path d="M168.098 550.853C168.098 551.541 167.541 552.098 166.853 552.098C166.165 552.098 165.608 551.541 165.608 550.853C165.608 550.165 166.165 549.608 166.853 549.608C167.541 549.608 168.098 550.165 168.098 550.853Z" fill="#3D4B5C"/>
<path d="M168.098 575.755C168.098 576.443 167.541 577 166.853 577C166.165 577 165.608 576.443 165.608 575.755C165.608 575.067 166.165 574.51 166.853 574.51C167.541 574.51 168.098 575.067 168.098 575.755Z" fill="#3D4B5C"/>
<path d="M193 451.245C193 451.933 192.443 452.49 191.755 452.49C191.067 452.49 190.51 451.933 190.51 451.245C190.51 450.557 191.067 450 191.755 450C192.443 450 193 450.557 193 451.245Z" fill="#3D4B5C"/>
<path d="M193 476.147C193 476.835 192.443 477.392 191.755 477.392C191.067 477.392 190.51 476.835 190.51 476.147C190.51 475.459 191.067 474.902 191.755 474.902C192.443 474.902 193 475.459 193 476.147Z" fill="#3D4B5C"/>
<path d="M193 501.049C193 501.737 192.443 502.294 191.755 502.294C191.067 502.294 190.51 501.737 190.51 501.049C190.51 500.361 191.067 499.804 191.755 499.804C192.443 499.804 193 500.361 193 501.049Z" fill="#3D4B5C"/>
<path d="M193 525.951C193 526.639 192.443 527.196 191.755 527.196C191.067 527.196 190.51 526.639 190.51 525.951C190.51 525.263 191.067 524.706 191.755 524.706C192.443 524.706 193 525.263 193 525.951Z" fill="#3D4B5C"/>
<path d="M193 550.853C193 551.541 192.443 552.098 191.755 552.098C191.067 552.098 190.51 551.541 190.51 550.853C190.51 550.165 191.067 549.608 191.755 549.608C192.443 549.608 193 550.165 193 550.853Z" fill="#3D4B5C"/>
<path d="M193 575.755C193 576.443 192.443 577 191.755 577C191.067 577 190.51 576.443 190.51 575.755C190.51 575.067 191.067 574.51 191.755 574.51C192.443 574.51 193 575.067 193 575.755Z" fill="#3D4B5C"/>
</g>
<path fill-rule="evenodd" clip-rule="evenodd" d="M821.5 1112.55C910.995 1112.55 983.545 1040 983.545 950.5C983.545 861.005 910.995 788.455 821.5 788.455C732.005 788.455 659.455 861.005 659.455 950.5C659.455 1040 732.005 1112.55 821.5 1112.55ZM821.5 1305C1017.28 1305 1176 1146.28 1176 950.5C1176 754.715 1017.28 596 821.5 596C625.715 596 467 754.715 467 950.5C467 1146.28 625.715 1305 821.5 1305Z" fill="white"/>
<path fill-rule="evenodd" clip-rule="evenodd" d="M137.996 -16C137.996 61.3175 75.3175 123.996 -1.99999 123.996L-1.99999 248C143.803 248 262 129.803 262 -16L137.996 -16Z" fill="white"/>
</g>
<defs>
<clipPath id="clip0">
<rect width="782" height="901" fill="white" transform="translate(-2)"/>
</clipPath>
</defs>
</svg>
