<svg width="780" height="524" viewBox="0 0 780 524" fill="none" xmlns="http://www.w3.org/2000/svg">
<g clip-path="url(#clip0)">
<path d="M0 0H780V524H0V0Z" fill="#213466"/>
<g opacity="0.2">
<path d="M460.49 65.2451C460.49 65.9327 459.933 66.4902 459.245 66.4902C458.557 66.4902 458 65.9327 458 65.2451C458 64.5574 458.557 64 459.245 64C459.933 64 460.49 64.5574 460.49 65.2451Z" fill="white"/>
<path d="M460.49 90.1471C460.49 90.8347 459.933 91.3922 459.245 91.3922C458.557 91.3922 458 90.8347 458 90.1471C458 89.4594 458.557 88.902 459.245 88.902C459.933 88.902 460.49 89.4594 460.49 90.1471Z" fill="white"/>
<path d="M460.49 115.049C460.49 115.737 459.933 116.294 459.245 116.294C458.557 116.294 458 115.737 458 115.049C458 114.361 458.557 113.804 459.245 113.804C459.933 113.804 460.49 114.361 460.49 115.049Z" fill="white"/>
<path d="M460.49 139.951C460.49 140.639 459.933 141.196 459.245 141.196C458.557 141.196 458 140.639 458 139.951C458 139.263 458.557 138.706 459.245 138.706C459.933 138.706 460.49 139.263 460.49 139.951Z" fill="white"/>
<path d="M460.49 164.853C460.49 165.541 459.933 166.098 459.245 166.098C458.557 166.098 458 165.541 458 164.853C458 164.165 458.557 163.608 459.245 163.608C459.933 163.608 460.49 164.165 460.49 164.853Z" fill="white"/>
<path d="M460.49 189.755C460.49 190.443 459.933 191 459.245 191C458.557 191 458 190.443 458 189.755C458 189.067 458.557 188.51 459.245 188.51C459.933 188.51 460.49 189.067 460.49 189.755Z" fill="white"/>
<path d="M485.392 65.2451C485.392 65.9327 484.835 66.4902 484.147 66.4902C483.459 66.4902 482.902 65.9327 482.902 65.2451C482.902 64.5574 483.459 64 484.147 64C484.835 64 485.392 64.5574 485.392 65.2451Z" fill="white"/>
<path d="M485.392 90.1471C485.392 90.8347 484.835 91.3922 484.147 91.3922C483.459 91.3922 482.902 90.8347 482.902 90.1471C482.902 89.4594 483.459 88.902 484.147 88.902C484.835 88.902 485.392 89.4594 485.392 90.1471Z" fill="white"/>
<path d="M485.392 115.049C485.392 115.737 484.835 116.294 484.147 116.294C483.459 116.294 482.902 115.737 482.902 115.049C482.902 114.361 483.459 113.804 484.147 113.804C484.835 113.804 485.392 114.361 485.392 115.049Z" fill="white"/>
<path d="M485.392 139.951C485.392 140.639 484.835 141.196 484.147 141.196C483.459 141.196 482.902 140.639 482.902 139.951C482.902 139.263 483.459 138.706 484.147 138.706C484.835 138.706 485.392 139.263 485.392 139.951Z" fill="white"/>
<path d="M485.392 164.853C485.392 165.541 484.835 166.098 484.147 166.098C483.459 166.098 482.902 165.541 482.902 164.853C482.902 164.165 483.459 163.608 484.147 163.608C484.835 163.608 485.392 164.165 485.392 164.853Z" fill="white"/>
<path d="M485.392 189.755C485.392 190.443 484.835 191 484.147 191C483.459 191 482.902 190.443 482.902 189.755C482.902 189.067 483.459 188.51 484.147 188.51C484.835 188.51 485.392 189.067 485.392 189.755Z" fill="white"/>
<path d="M510.294 65.2451C510.294 65.9327 509.737 66.4902 509.049 66.4902C508.361 66.4902 507.804 65.9327 507.804 65.2451C507.804 64.5574 508.361 64 509.049 64C509.737 64 510.294 64.5574 510.294 65.2451Z" fill="white"/>
<path d="M510.294 90.1471C510.294 90.8347 509.737 91.3922 509.049 91.3922C508.361 91.3922 507.804 90.8347 507.804 90.1471C507.804 89.4594 508.361 88.902 509.049 88.902C509.737 88.902 510.294 89.4594 510.294 90.1471Z" fill="white"/>
<path d="M510.294 115.049C510.294 115.737 509.737 116.294 509.049 116.294C508.361 116.294 507.804 115.737 507.804 115.049C507.804 114.361 508.361 113.804 509.049 113.804C509.737 113.804 510.294 114.361 510.294 115.049Z" fill="white"/>
<path d="M510.294 139.951C510.294 140.639 509.737 141.196 509.049 141.196C508.361 141.196 507.804 140.639 507.804 139.951C507.804 139.263 508.361 138.706 509.049 138.706C509.737 138.706 510.294 139.263 510.294 139.951Z" fill="white"/>
<path d="M510.294 164.853C510.294 165.541 509.737 166.098 509.049 166.098C508.361 166.098 507.804 165.541 507.804 164.853C507.804 164.165 508.361 163.608 509.049 163.608C509.737 163.608 510.294 164.165 510.294 164.853Z" fill="white"/>
<path d="M510.294 189.755C510.294 190.443 509.737 191 509.049 191C508.361 191 507.804 190.443 507.804 189.755C507.804 189.067 508.361 188.51 509.049 188.51C509.737 188.51 510.294 189.067 510.294 189.755Z" fill="white"/>
<path d="M535.196 65.2451C535.196 65.9327 534.639 66.4902 533.951 66.4902C533.263 66.4902 532.706 65.9327 532.706 65.2451C532.706 64.5574 533.263 64 533.951 64C534.639 64 535.196 64.5574 535.196 65.2451Z" fill="white"/>
<path d="M535.196 90.1471C535.196 90.8347 534.639 91.3922 533.951 91.3922C533.263 91.3922 532.706 90.8347 532.706 90.1471C532.706 89.4594 533.263 88.902 533.951 88.902C534.639 88.902 535.196 89.4594 535.196 90.1471Z" fill="white"/>
<path d="M535.196 115.049C535.196 115.737 534.639 116.294 533.951 116.294C533.263 116.294 532.706 115.737 532.706 115.049C532.706 114.361 533.263 113.804 533.951 113.804C534.639 113.804 535.196 114.361 535.196 115.049Z" fill="white"/>
<path d="M535.196 139.951C535.196 140.639 534.639 141.196 533.951 141.196C533.263 141.196 532.706 140.639 532.706 139.951C532.706 139.263 533.263 138.706 533.951 138.706C534.639 138.706 535.196 139.263 535.196 139.951Z" fill="white"/>
<path d="M535.196 164.853C535.196 165.541 534.639 166.098 533.951 166.098C533.263 166.098 532.706 165.541 532.706 164.853C532.706 164.165 533.263 163.608 533.951 163.608C534.639 163.608 535.196 164.165 535.196 164.853Z" fill="white"/>
<path d="M535.196 189.755C535.196 190.443 534.639 191 533.951 191C533.263 191 532.706 190.443 532.706 189.755C532.706 189.067 533.263 188.51 533.951 188.51C534.639 188.51 535.196 189.067 535.196 189.755Z" fill="white"/>
<path d="M560.098 65.2451C560.098 65.9327 559.541 66.4902 558.853 66.4902C558.165 66.4902 557.608 65.9327 557.608 65.2451C557.608 64.5574 558.165 64 558.853 64C559.541 64 560.098 64.5574 560.098 65.2451Z" fill="white"/>
<path d="M560.098 90.1471C560.098 90.8347 559.541 91.3922 558.853 91.3922C558.165 91.3922 557.608 90.8347 557.608 90.1471C557.608 89.4594 558.165 88.902 558.853 88.902C559.541 88.902 560.098 89.4594 560.098 90.1471Z" fill="white"/>
<path d="M560.098 115.049C560.098 115.737 559.541 116.294 558.853 116.294C558.165 116.294 557.608 115.737 557.608 115.049C557.608 114.361 558.165 113.804 558.853 113.804C559.541 113.804 560.098 114.361 560.098 115.049Z" fill="white"/>
<path d="M560.098 139.951C560.098 140.639 559.541 141.196 558.853 141.196C558.165 141.196 557.608 140.639 557.608 139.951C557.608 139.263 558.165 138.706 558.853 138.706C559.541 138.706 560.098 139.263 560.098 139.951Z" fill="white"/>
<path d="M560.098 164.853C560.098 165.541 559.541 166.098 558.853 166.098C558.165 166.098 557.608 165.541 557.608 164.853C557.608 164.165 558.165 163.608 558.853 163.608C559.541 163.608 560.098 164.165 560.098 164.853Z" fill="white"/>
<path d="M560.098 189.755C560.098 190.443 559.541 191 558.853 191C558.165 191 557.608 190.443 557.608 189.755C557.608 189.067 558.165 188.51 558.853 188.51C559.541 188.51 560.098 189.067 560.098 189.755Z" fill="white"/>
<path d="M585 65.2451C585 65.9327 584.443 66.4902 583.755 66.4902C583.067 66.4902 582.51 65.9327 582.51 65.2451C582.51 64.5574 583.067 64 583.755 64C584.443 64 585 64.5574 585 65.2451Z" fill="white"/>
<path d="M585 90.1471C585 90.8347 584.443 91.3922 583.755 91.3922C583.067 91.3922 582.51 90.8347 582.51 90.1471C582.51 89.4594 583.067 88.902 583.755 88.902C584.443 88.902 585 89.4594 585 90.1471Z" fill="white"/>
<path d="M585 115.049C585 115.737 584.443 116.294 583.755 116.294C583.067 116.294 582.51 115.737 582.51 115.049C582.51 114.361 583.067 113.804 583.755 113.804C584.443 113.804 585 114.361 585 115.049Z" fill="white"/>
<path d="M585 139.951C585 140.639 584.443 141.196 583.755 141.196C583.067 141.196 582.51 140.639 582.51 139.951C582.51 139.263 583.067 138.706 583.755 138.706C584.443 138.706 585 139.263 585 139.951Z" fill="white"/>
<path d="M585 164.853C585 165.541 584.443 166.098 583.755 166.098C583.067 166.098 582.51 165.541 582.51 164.853C582.51 164.165 583.067 163.608 583.755 163.608C584.443 163.608 585 164.165 585 164.853Z" fill="white"/>
<path d="M585 189.755C585 190.443 584.443 191 583.755 191C583.067 191 582.51 190.443 582.51 189.755C582.51 189.067 583.067 188.51 583.755 188.51C584.443 188.51 585 189.067 585 189.755Z" fill="white"/>
</g>
<path opacity="0.1" fill-rule="evenodd" clip-rule="evenodd" d="M54.6155 -2.38732e-06C54.6155 30.1633 30.1633 54.6155 2.38732e-06 54.6155L8.34888e-06 191C105.486 191 191 105.486 191 -8.34887e-06L54.6155 -2.38732e-06Z" fill="white"/>
<g opacity="0.1">
<mask id="path-4-inside-1" fill="white">
<path d="M714 334L899 334C899 231.275 816.173 148 714 148L714 334Z"/>
</mask>
<path d="M899 334L899 565L1130 565L1130 334L899 334ZM714 334L483 334L483 565L714 565L714 334ZM714 148L714 -83L483 -83L483 148L714 148ZM899 103L714 103L714 565L899 565L899 103ZM714 379C687.422 379 668 357.677 668 334L1130 334C1130 104.873 944.923 -83 714 -83L714 379ZM945 334L945 148L483 148L483 334L945 334Z" fill="white" mask="url(#path-4-inside-1)"/>
</g>
<g opacity="0.1">
<mask id="path-6-inside-2" fill="white">
<path d="M639 411L745 411C745 351.906 697.542 304 639 304L639 411Z"/>
</mask>
<path d="M745 411L745 642L976 642L976 411L745 411ZM639 411L408 411L408 642L639 642L639 411ZM639 304L639 73L408 73L408 304L639 304ZM745 180L639 180L639 642L745 642L745 180ZM639 535C567.924 535 514 477.434 514 411L976 411C976 226.377 827.16 73 639 73L639 535ZM870 411L870 304L408 304L408 411L870 411Z" fill="white" mask="url(#path-6-inside-2)"/>
</g>
<rect opacity="0.1" x="204.947" y="436" width="124.375" height="124.375" transform="rotate(45 204.947 436)" fill="#F4F7FA"/>
</g>
<defs>
<clipPath id="clip0">
<rect width="780" height="524" fill="white"/>
</clipPath>
</defs>
</svg>
